<svg width="20" height="20" viewBox="0 0 20 20" fill="none" xmlns="http://www.w3.org/2000/svg">
<path d="M9.16667 7.5V5H6.66667V3.33334H9.16667V0.833336H10.8333V3.33334H13.3333V5H10.8333V7.5H9.16667ZM5.83334 18.3333C5.375 18.3333 4.98278 18.1703 4.65667 17.8442C4.33 17.5175 4.16667 17.125 4.16667 16.6667C4.16667 16.2083 4.33 15.8158 4.65667 15.4892C4.98278 15.1631 5.375 15 5.83334 15C6.29167 15 6.68389 15.1631 7.01 15.4892C7.33667 15.8158 7.5 16.2083 7.5 16.6667C7.5 17.125 7.33667 17.5175 7.01 17.8442C6.68389 18.1703 6.29167 18.3333 5.83334 18.3333ZM14.1667 18.3333C13.7083 18.3333 13.3161 18.1703 12.99 17.8442C12.6633 17.5175 12.5 17.125 12.5 16.6667C12.5 16.2083 12.6633 15.8158 12.99 15.4892C13.3161 15.1631 13.7083 15 14.1667 15C14.625 15 15.0175 15.1631 15.3442 15.4892C15.6703 15.8158 15.8333 16.2083 15.8333 16.6667C15.8333 17.125 15.6703 17.5175 15.3442 17.8442C15.0175 18.1703 14.625 18.3333 14.1667 18.3333ZM15.8333 14.1667H3.02084L5.5 9.66667L2.5 3.33334H0.833336V1.66667H3.5625L7.10417 9.16667H12.9583L16.1875 3.33334H18.0833L13.9375 10.8333H6.75L5.83334 12.5H15.8333V14.1667Z" fill="white"/>
</svg>
