<svg width="51" height="60" viewBox="0 0 51 60" fill="none" xmlns="http://www.w3.org/2000/svg">
<path d="M25.5 40.875C11.6875 40.875 0.5 46.4688 0.5 53.375V59.625H50.5V53.375C50.5 46.4688 39.3125 40.875 25.5 40.875ZM13 22.125C13 25.4402 14.317 28.6196 16.6612 30.9638C19.0054 33.308 22.1848 34.625 25.5 34.625C28.8152 34.625 31.9946 33.308 34.3388 30.9638C36.683 28.6196 38 25.4402 38 22.125M23.9375 0.25C23 0.25 22.375 0.90625 22.375 1.8125V11.1875H19.25V3.375C19.25 3.375 12.2188 6.0625 12.2188 15.0938C12.2188 15.0938 9.875 15.5312 9.875 19H41.125C40.9688 15.5312 38.7812 15.0938 38.7812 15.0938C38.7812 6.0625 31.75 3.375 31.75 3.375V11.1875H28.625V1.8125C28.625 0.90625 28.0312 0.25 27.0625 0.25H23.9375Z" fill="white"/>
</svg>
