<svg width="24" height="26" viewBox="0 0 24 26" fill="none" xmlns="http://www.w3.org/2000/svg">
<path fill-rule="evenodd" clip-rule="evenodd" d="M16.0625 5.6875C16.0625 4.61006 15.6345 3.57675 14.8726 2.81488C14.1108 2.05301 13.0774 1.625 12 1.625C10.9226 1.625 9.88925 2.05301 9.12738 2.81488C8.36551 3.57675 7.9375 4.61006 7.9375 5.6875V6.5H16.0625V5.6875ZM17.6875 5.6875V6.5H23.375V22.75C23.375 23.612 23.0326 24.4386 22.4231 25.0481C21.8136 25.6576 20.987 26 20.125 26H3.875C3.01305 26 2.1864 25.6576 1.5769 25.0481C0.96741 24.4386 0.625 23.612 0.625 22.75V6.5H6.3125V5.6875C6.3125 4.17908 6.91172 2.73244 7.97833 1.66583C9.04494 0.599217 10.4916 0 12 0C13.5084 0 14.9551 0.599217 16.0217 1.66583C17.0883 2.73244 17.6875 4.17908 17.6875 5.6875ZM12.8125 13C12.8125 12.7845 12.7269 12.5778 12.5745 12.4255C12.4222 12.2731 12.2155 12.1875 12 12.1875C11.7845 12.1875 11.5778 12.2731 11.4255 12.4255C11.2731 12.5778 11.1875 12.7845 11.1875 13V15.4375H8.75C8.53451 15.4375 8.32785 15.5231 8.17548 15.6755C8.0231 15.8278 7.9375 16.0345 7.9375 16.25C7.9375 16.4655 8.0231 16.6722 8.17548 16.8245C8.32785 16.9769 8.53451 17.0625 8.75 17.0625H11.1875V19.5C11.1875 19.7155 11.2731 19.9222 11.4255 20.0745C11.5778 20.2269 11.7845 20.3125 12 20.3125C12.2155 20.3125 12.4222 20.2269 12.5745 20.0745C12.7269 19.9222 12.8125 19.7155 12.8125 19.5V17.0625H15.25C15.4655 17.0625 15.6722 16.9769 15.8245 16.8245C15.9769 16.6722 16.0625 16.4655 16.0625 16.25C16.0625 16.0345 15.9769 15.8278 15.8245 15.6755C15.6722 15.5231 15.4655 15.4375 15.25 15.4375H12.8125V13Z" fill="white"/>
</svg>
