<svg width="416" height="448" viewBox="0 0 416 448" fill="none" xmlns="http://www.w3.org/2000/svg">
<path d="M406.65 137.4C403.684 134.413 400.155 132.044 396.267 130.43C392.379 128.817 388.209 127.991 384 128H320V112C320 82.2958 308.2 53.8081 287.196 32.804C266.192 11.8 237.704 0 208 0C178.296 0 149.808 11.8 128.804 32.804C107.8 53.8081 96 82.2958 96 112V128H32C23.5131 128 15.3737 131.371 9.37258 137.373C3.37142 143.374 0 151.513 0 160V376C0 415 33 448 72 448H344C362.865 448.006 380.983 440.63 394.48 427.45C401.272 420.97 406.681 413.181 410.38 404.553C414.078 395.925 415.99 386.637 416 377.25V160C416.013 155.802 415.193 151.643 413.588 147.764C411.984 143.884 409.625 140.362 406.65 137.4ZM128 112C128 90.7827 136.429 70.4344 151.431 55.4315C166.434 40.4285 186.783 32 208 32C229.217 32 249.566 40.4285 264.569 55.4315C279.571 70.4344 288 90.7827 288 112V128H128V112ZM320 208C320 237.704 308.2 266.192 287.196 287.196C266.192 308.2 237.704 320 208 320C178.296 320 149.808 308.2 128.804 287.196C107.8 266.192 96 237.704 96 208V192C96 187.757 97.6857 183.687 100.686 180.686C103.687 177.686 107.757 176 112 176C116.243 176 120.313 177.686 123.314 180.686C126.314 183.687 128 187.757 128 192V208C128 229.217 136.429 249.566 151.431 264.569C166.434 279.571 186.783 288 208 288C229.217 288 249.566 279.571 264.569 264.569C279.571 249.566 288 229.217 288 208V192C288 187.757 289.686 183.687 292.686 180.686C295.687 177.686 299.757 176 304 176C308.243 176 312.313 177.686 315.314 180.686C318.314 183.687 320 187.757 320 192V208Z" fill="black"/>
</svg>
