<svg fill="#000000" height="800px" width="800px" version="1.1" id="Capa_1" xmlns="http://www.w3.org/2000/svg" xmlns:xlink="http://www.w3.org/1999/xlink" 
	 viewBox="0 0 439.639 439.639" xml:space="preserve">
<g>
	<path d="M51.441,247.148c4.142,0,7.5-3.358,7.5-7.5v-37.922c0.978,1.013,2.011,2.24,3.213,3.697
		c4.431,5.372,10.5,12.728,22.284,12.728c11.785,0,17.854-7.356,22.285-12.727c4.052-4.912,6.2-7.273,10.713-7.273
		c4.512,0,6.66,2.361,10.711,7.272c4.43,5.371,10.498,12.728,22.282,12.728s17.852-7.356,22.282-12.728
		c4.051-4.912,6.199-7.272,10.711-7.272c4.514,0,6.662,2.361,10.713,7.273c4.431,5.371,10.5,12.727,22.285,12.727
		s17.854-7.356,22.285-12.727c4.052-4.912,6.2-7.273,10.713-7.273c4.514,0,6.663,2.361,10.715,7.273
		c4.431,5.371,10.5,12.727,22.285,12.727c11.785,0,17.854-7.356,22.285-12.728c4.052-4.912,6.2-7.272,10.713-7.272
		c4.516,0,6.664,2.361,10.717,7.273c4.432,5.371,10.501,12.727,22.287,12.727c11.786,0,17.855-7.356,22.287-12.727
		c1.203-1.458,2.237-2.686,3.216-3.7v27.426c0,4.142,3.358,7.5,7.5,7.5s7.5-3.358,7.5-7.5v-57.541
		c0-16.242-13.214-29.456-29.456-29.456h-48.42V83.656c0-4.142-3.358-7.5-7.5-7.5H278.05c-4.142,0-7.5,3.358-7.5,7.5v58.497h-38.248
		V83.656c0-4.142-3.358-7.5-7.5-7.5h-25.499c-4.142,0-7.5,3.358-7.5,7.5v58.497h-38.248V83.656c0-4.142-3.358-7.5-7.5-7.5h-25.499
		c-4.142,0-7.5,3.358-7.5,7.5v58.497H73.396c-16.242,0-29.455,13.214-29.455,29.456v68.04
		C43.941,243.79,47.299,247.148,51.441,247.148z M285.55,91.156h10.499v50.997H285.55V91.156z M206.804,91.156h10.499v50.997
		h-10.499V91.156z M128.058,91.156h10.499v50.997h-10.499V91.156z M73.396,157.153h286.073c7.971,0,14.456,6.485,14.456,14.456
		v12.679c-7.077,2.267-11.411,7.5-14.787,11.59c-4.053,4.912-6.201,7.273-10.717,7.273c-4.515,0-6.664-2.361-10.716-7.273
		c-4.432-5.371-10.501-12.727-22.287-12.727c-11.785,0-17.854,7.356-22.284,12.727c-4.052,4.912-6.2,7.273-10.714,7.273
		s-6.663-2.361-10.715-7.273c-4.431-5.371-10.5-12.727-22.285-12.727c-11.785,0-17.854,7.356-22.285,12.727
		c-4.052,4.912-6.2,7.273-10.713,7.273s-6.662-2.361-10.713-7.273c-4.431-5.371-10.5-12.727-22.285-12.727
		c-11.785,0-17.852,7.356-22.283,12.728c-4.051,4.912-6.199,7.272-10.711,7.272s-6.66-2.361-10.711-7.272
		c-4.43-5.371-10.498-12.728-22.282-12.728c-11.785,0-17.854,7.356-22.285,12.727c-4.052,4.912-6.2,7.273-10.713,7.273
		c-4.513,0-6.661-2.361-10.713-7.272c-3.375-4.091-7.708-9.324-14.784-11.591v-12.679C58.941,163.638,65.425,157.153,73.396,157.153
		z"/>
	<path d="M216.553,304.145h-46.499c-4.142,0-7.5,3.358-7.5,7.5s3.358,7.5,7.5,7.5h46.499c4.142,0,7.5-3.358,7.5-7.5
		S220.695,304.145,216.553,304.145z"/>
	<path d="M194.553,65.894c4.825,4.824,11.163,7.236,17.5,7.236c6.338,0,12.676-2.412,17.5-7.237c9.65-9.649,9.65-25.351,0-35
		l-12.197-12.197c-1.406-1.407-3.314-2.197-5.303-2.197s-3.897,0.79-5.303,2.197l-12.197,12.197
		C184.903,40.543,184.903,56.244,194.553,65.894C194.553,65.894,194.553,65.894,194.553,65.894z M205.159,41.5l6.894-6.894
		l6.894,6.894c3.801,3.801,3.801,9.986,0,13.787c-3.801,3.803-9.987,3.802-13.788,0v0C201.358,51.486,201.358,45.301,205.159,41.5z"
		/>
	<path d="M115.807,65.894c4.825,4.824,11.163,7.236,17.5,7.236c6.338,0,12.676-2.412,17.5-7.237c9.65-9.649,9.65-25.351,0-35
		L138.61,18.696c-1.406-1.407-3.314-2.197-5.303-2.197s-3.897,0.79-5.303,2.197l-12.197,12.197
		C106.157,40.543,106.157,56.244,115.807,65.894C115.807,65.894,115.807,65.894,115.807,65.894z M126.413,41.5l6.894-6.894
		l6.894,6.894c3.801,3.801,3.801,9.986,0,13.787c-3.801,3.803-9.987,3.802-13.788,0v0C122.612,51.486,122.612,45.301,126.413,41.5z"
		/>
	<path d="M273.299,65.894c4.825,4.824,11.163,7.236,17.5,7.236c6.338,0,12.676-2.412,17.5-7.237c9.65-9.649,9.65-25.351,0-35
		l-12.197-12.197c-1.406-1.407-3.314-2.197-5.303-2.197s-3.897,0.79-5.303,2.197l-12.197,12.197
		C263.649,40.543,263.649,56.244,273.299,65.894C273.299,65.894,273.299,65.894,273.299,65.894z M283.905,41.5l6.894-6.894
		l6.894,6.894c3.801,3.801,3.801,9.986,0,13.787c-3.801,3.803-9.987,3.802-13.788,0v0C280.104,51.486,280.104,45.301,283.905,41.5z"
		/>
	<path d="M69.56,385.641H15v-76.495h119.993v5.6c0,4.142,3.358,7.5,7.5,7.5c4.142,0,7.5-3.358,7.5-7.5v-53.598
		c0-4.142-3.358-7.5-7.5-7.5H7.5c-4.142,0-7.5,3.358-7.5,7.5v131.993c0,4.142,3.358,7.5,7.5,7.5h62.06c4.142,0,7.5-3.358,7.5-7.5
		S73.702,385.641,69.56,385.641z M134.993,268.648v25.498H15v-25.498H134.993z"/>
	<path d="M432.139,245.051H239.463c-4.142,0-7.5,3.358-7.5,7.5v100.062c0,4.142,3.358,7.5,7.5,7.5h192.676
		c4.142,0,7.5-3.358,7.5-7.5V252.551C439.639,248.408,436.281,245.051,432.139,245.051z M424.639,283.646h-81.338v-23.596h81.338
		V283.646z M328.301,260.051v23.596h-81.338v-23.596H328.301z M246.963,298.646h81.338v46.466h-81.338V298.646z M343.301,345.112
		v-46.466h81.338v46.466H343.301z"/>
	<path d="M203.898,333.826H96.296c-4.142,0-7.5,3.358-7.5,7.5v74.313c0,4.142,3.358,7.5,7.5,7.5h107.602c4.142,0,7.5-3.358,7.5-7.5
		v-74.313C211.398,337.184,208.04,333.826,203.898,333.826z M196.398,370.983h-38.801v-22.157h38.801V370.983z M142.597,348.826
		v22.157h-38.801v-22.157H142.597z M103.796,385.983h38.801v22.157h-38.801V385.983z M157.597,408.14v-22.157h38.801v22.157H157.597
		z"/>
</g>
</svg>