<svg width="42" height="46" viewBox="0 0 42 46" fill="none" xmlns="http://www.w3.org/2000/svg">
<path d="M40.9219 11.8282H40.9023C40.6219 11.3527 40.2254 10.9563 39.75 10.6758L22.5625 0.968797C22.0933 0.708876 21.5657 0.57251 21.0293 0.57251C20.4929 0.57251 19.9653 0.708876 19.4961 0.968797L2.30861 10.6368C1.8233 10.911 1.41903 11.3085 1.13673 11.7891C1.13673 11.7917 1.13623 11.7942 1.13525 11.7966C1.13426 11.799 1.13283 11.8011 1.13101 11.8029C1.1292 11.8047 1.12704 11.8062 1.12468 11.8072C1.12231 11.8081 1.11977 11.8086 1.1172 11.8086V11.8477C0.84375 12.3085 0.701887 12.8354 0.707045 13.3711V32.629C0.708033 33.1857 0.856822 33.7322 1.13821 34.2126C1.41959 34.6931 1.82348 35.0901 2.30861 35.3633L19.4961 45.0313C19.9288 45.2673 20.4099 45.401 20.9024 45.4219H21.1758C21.6616 45.398 22.1357 45.2645 22.5625 45.0313L39.75 35.3633C40.2302 35.0861 40.629 34.6876 40.9067 34.2077C41.1843 33.7278 41.331 33.1834 41.332 32.629V13.3711C41.3349 12.8295 41.1933 12.2969 40.9219 11.8282ZM21.0195 3.70317L36.6055 12.4532L30.6094 15.8516L14.8672 7.16021L21.0195 3.70317ZM21.1953 21.2032L5.47267 12.4532L11.6641 8.97661L27.4258 17.668L21.1953 21.2032ZM3.83204 15.1094L19.6328 23.918L19.4766 41.4376L3.83204 32.629V15.1094ZM22.6016 41.418L22.7578 23.918L29.0273 20.3438V27.7852C29.0273 28.1996 29.192 28.597 29.485 28.8901C29.778 29.1831 30.1754 29.3477 30.5898 29.3477C31.0042 29.3477 31.4017 29.1831 31.6947 28.8901C31.9877 28.597 32.1523 28.1996 32.1523 27.7852V18.5665L38.207 15.129V32.629L22.6016 41.418Z" fill="#005952"/>
</svg>
