<svg width="69" height="65" viewBox="0 0 69 65" fill="none" xmlns="http://www.w3.org/2000/svg">
<path d="M64.9792 8.83325H56.4236V15.2499C56.4236 15.8679 56.3019 16.4798 56.0654 17.0507C55.8289 17.6216 55.4823 18.1403 55.0454 18.5773C54.6084 19.0142 54.0897 19.3608 53.5188 19.5973C52.9479 19.8338 52.336 19.9555 51.718 19.9555C51.1001 19.9555 50.4882 19.8338 49.9173 19.5973C49.3464 19.3608 48.8277 19.0142 48.3907 18.5773C47.9538 18.1403 47.6072 17.6216 47.3707 17.0507C47.1342 16.4798 47.0125 15.8679 47.0125 15.2499V8.83325H22.0944V15.2499C22.0944 16.4979 21.5987 17.6948 20.7162 18.5773C19.8337 19.4597 18.6369 19.9555 17.3889 19.9555C16.1409 19.9555 14.944 19.4597 14.0616 18.5773C13.1791 17.6948 12.6833 16.4979 12.6833 15.2499V8.83325H4.12777C3.61877 8.82746 3.11377 8.9238 2.64264 9.11658C2.17152 9.30935 1.74384 9.59464 1.38489 9.95558C1.02594 10.3165 0.743023 10.7458 0.552861 11.218C0.3627 11.6902 0.269159 12.1957 0.277771 12.7046V60.573C0.269274 61.073 0.359358 61.5697 0.542878 62.0349C0.726398 62.5001 0.999759 62.9245 1.34735 63.284C1.69494 63.6435 2.10994 63.9311 2.56866 64.1301C3.02738 64.3292 3.52083 64.436 4.02083 64.4444H64.9792C65.4791 64.436 65.9726 64.3292 66.4313 64.1301C66.89 63.9311 67.3051 63.6435 67.6526 63.284C68.0002 62.9245 68.2736 62.5001 68.4571 62.0349C68.6406 61.5697 68.7307 61.073 68.7222 60.573V12.7046C68.7307 12.2047 68.6406 11.7079 68.4571 11.2427C68.2736 10.7775 68.0002 10.3531 67.6526 9.99358C67.3051 9.63407 66.89 9.34657 66.4313 9.14747C65.9726 8.94838 65.4791 8.84161 64.9792 8.83325ZM17.3889 51.611H13.1111V47.3333H17.3889V51.611ZM17.3889 40.9166H13.1111V36.6388H17.3889V40.9166ZM17.3889 30.2221H13.1111V25.9444H17.3889V30.2221ZM30.2222 51.611H25.9444V47.3333H30.2222V51.611ZM30.2222 40.9166H25.9444V36.6388H30.2222V40.9166ZM30.2222 30.2221H25.9444V25.9444H30.2222V30.2221ZM43.0555 51.611H38.7778V47.3333H43.0555V51.611ZM43.0555 40.9166H38.7778V36.6388H43.0555V40.9166ZM43.0555 30.2221H38.7778V25.9444H43.0555V30.2221ZM55.8889 51.611H51.6111V47.3333H55.8889V51.611ZM55.8889 40.9166H51.6111V36.6388H55.8889V40.9166ZM55.8889 30.2221H51.6111V25.9444H55.8889V30.2221Z" fill="#C19238"/>
<path d="M17.3889 17.3889C17.9562 17.3889 18.5002 17.1636 18.9013 16.7625C19.3024 16.3614 19.5278 15.8173 19.5278 15.2501V2.41672C19.5278 1.84945 19.3024 1.30542 18.9013 0.904298C18.5002 0.503179 17.9562 0.277832 17.3889 0.277832C16.8216 0.277832 16.2776 0.503179 15.8765 0.904298C15.4753 1.30542 15.25 1.84945 15.25 2.41672V15.2501C15.25 15.8173 15.4753 16.3614 15.8765 16.7625C16.2776 17.1636 16.8216 17.3889 17.3889 17.3889Z" fill="#C19238"/>
<path d="M51.6111 17.3889C52.1784 17.3889 52.7224 17.1636 53.1235 16.7625C53.5247 16.3614 53.75 15.8173 53.75 15.2501V2.41672C53.75 1.84945 53.5247 1.30542 53.1235 0.904298C52.7224 0.503179 52.1784 0.277832 51.6111 0.277832C51.0438 0.277832 50.4998 0.503179 50.0987 0.904298C49.6976 1.30542 49.4722 1.84945 49.4722 2.41672V15.2501C49.4722 15.8173 49.6976 16.3614 50.0987 16.7625C50.4998 17.1636 51.0438 17.3889 51.6111 17.3889Z" fill="#C19238"/>
</svg>
