<svg width="26" height="24" viewBox="0 0 26 24" fill="none" xmlns="http://www.w3.org/2000/svg">
<path d="M11.08 1.10253C11.3037 0.834162 11.5811 0.615658 11.8945 0.461116C12.2078 0.306575 12.5501 0.219427 12.8992 0.205294C13.2483 0.19116 13.5965 0.250355 13.9213 0.37906C14.2461 0.507766 14.5403 0.703124 14.785 0.952534L14.92 1.10253L19.835 7.00003H23.5662C23.8285 6.99948 24.088 7.05434 24.3277 7.16103C24.5673 7.26772 24.7817 7.42383 24.9569 7.61913C25.132 7.81444 25.2639 8.04453 25.3439 8.29435C25.4239 8.54417 25.4503 8.80807 25.4212 9.06878L25.3062 10.0263L25.1812 10.9513L25.0787 11.6438L24.96 12.3875L24.825 13.1688L24.6725 13.9788L24.5025 14.805C24.4125 15.2213 24.3162 15.6388 24.2125 16.0525C23.9358 17.1505 23.5884 18.2294 23.1725 19.2825L22.8962 19.9575L22.6287 20.5675L22.3762 21.11L22.2587 21.3525L21.9475 21.965C21.5475 22.7275 20.7925 23.1775 19.9937 23.2425L19.7937 23.25H6.19372C5.7567 23.2534 5.32696 23.138 4.95047 22.9161C4.57397 22.6941 4.26488 22.3741 4.05622 21.99L3.76623 21.4275L3.54123 20.965C3.50116 20.8798 3.46158 20.7944 3.42247 20.7088L3.17247 20.1475C2.60178 18.8219 2.13862 17.4525 1.78748 16.0525C1.71965 15.7807 1.65464 15.5082 1.59248 15.235L1.41498 14.425L1.25623 13.6325L1.11623 12.8663L0.991225 12.1325L0.882475 11.44L0.789975 10.7988L0.677475 9.94503L0.594975 9.25003C0.587769 9.1863 0.580685 9.12255 0.573725 9.05878C0.547523 8.81315 0.570514 8.56475 0.641355 8.3281C0.712197 8.09144 0.829471 7.87127 0.98633 7.68043C1.14319 7.48959 1.33649 7.33191 1.55496 7.2166C1.77342 7.10128 2.01266 7.03063 2.25873 7.00878L2.42873 7.00003H6.16497L11.08 1.10253ZM22.8537 9.50003H3.14122L3.21873 10.105L3.31372 10.79L3.42872 11.545L3.56373 12.355C3.61373 12.6325 3.66498 12.9175 3.72123 13.2075L3.89997 14.0913C3.99497 14.5388 4.09997 14.9938 4.21247 15.4463C4.52986 16.7097 4.94786 17.9458 5.46247 19.1425L5.70747 19.6938L5.93497 20.1738L6.13872 20.5775L6.22873 20.75H19.7625L19.955 20.3713L20.1762 19.915L20.4187 19.3863C20.8775 18.355 21.4025 16.9888 21.7875 15.4463C21.9437 14.8213 22.0825 14.1863 22.2062 13.5625L22.3812 12.64L22.5312 11.7538L22.5975 11.33L22.7162 10.5338L22.8125 9.82128L22.8537 9.50003ZM10.4825 13.045L11.1075 16.795C11.1511 17.1171 11.0676 17.4435 10.8747 17.705C10.6817 17.9665 10.3945 18.1426 10.0739 18.1959C9.75329 18.2493 9.42454 18.1756 9.15732 17.9906C8.8901 17.8057 8.70544 17.5239 8.64247 17.205L8.01748 13.455C7.98506 13.2909 7.98593 13.1219 8.02004 12.9581C8.05415 12.7943 8.12079 12.639 8.21603 12.5014C8.31127 12.3638 8.43315 12.2468 8.57447 12.1572C8.71578 12.0676 8.87365 12.0073 9.0387 11.9798C9.20376 11.9524 9.37264 11.9583 9.53535 11.9974C9.69806 12.0364 9.85128 12.1077 9.98592 12.207C10.1206 12.3064 10.2339 12.4317 10.3192 12.5757C10.4045 12.7196 10.46 12.8792 10.4825 13.045ZM16.81 12L16.955 12.0163C17.2575 12.0662 17.5312 12.2256 17.7238 12.4642C17.9165 12.7027 18.0148 13.0038 18 13.31L17.9837 13.455L17.3587 17.205C17.3057 17.5189 17.1349 17.8008 16.8812 17.9931C16.6275 18.1854 16.31 18.2736 15.9934 18.2398C15.6769 18.206 15.3852 18.0527 15.1778 17.8111C14.9704 17.5696 14.863 17.2581 14.8775 16.94L14.8937 16.795L15.5187 13.045C15.5686 12.7429 15.7276 12.4696 15.9657 12.277C16.2037 12.0844 16.5041 11.9858 16.81 12ZM13 2.70253L9.41873 7.00003H16.5812L13 2.70253Z" fill="#808080"/>
</svg>
