<svg width="24" height="24" viewBox="0 0 24 24" fill="none" xmlns="http://www.w3.org/2000/svg">
<path d="M1.5 21C1.5 21.2109 1.53906 21.4062 1.61719 21.5859C1.69531 21.7656 1.80078 21.9219 1.93359 22.0547C2.06641 22.1875 2.22656 22.2969 2.41406 22.3828C2.60156 22.4688 2.79688 22.5078 3 22.5H10.5L13.5117 24H3C2.58594 24 2.19922 23.9219 1.83984 23.7656C1.48047 23.6094 1.16016 23.3945 0.878906 23.1211C0.597656 22.8477 0.382812 22.5312 0.234375 22.1719C0.0859375 21.8125 0.0078125 21.4219 0 21V3C0 2.61719 0.0820312 2.24609 0.246094 1.88672C0.410156 1.52734 0.632812 1.20703 0.914062 0.925781C1.19531 0.644531 1.51562 0.421875 1.875 0.257812C2.23438 0.09375 2.60938 0.0078125 3 0H19.5V7.98047L18 7.23047V1.5H3C2.82031 1.5 2.64062 1.54297 2.46094 1.62891C2.28125 1.71484 2.12109 1.83203 1.98047 1.98047C1.83984 2.12891 1.72656 2.28906 1.64062 2.46094C1.55469 2.63281 1.50781 2.8125 1.5 3V18.4219C1.72656 18.2891 1.96484 18.1875 2.21484 18.1172C2.46484 18.0469 2.72656 18.0078 3 18H9V19.5H3C2.78906 19.5 2.59375 19.5391 2.41406 19.6172C2.23438 19.6953 2.07812 19.8008 1.94531 19.9336C1.8125 20.0664 1.70312 20.2266 1.61719 20.4141C1.53125 20.6016 1.49219 20.7969 1.5 21ZM24 11.8945V20.8242L17.25 24.1875L10.5 20.8242V11.8945L17.25 8.53125L24 11.8945ZM17.25 10.207L12.9258 12.3633L17.25 14.5195L21.5742 12.3633L17.25 10.207ZM12 19.8984L16.5 22.1367V15.8203L12 13.5703V19.8984ZM22.5 19.8984V13.5703L18 15.8203V22.1367L22.5 19.8984Z" fill="white"/>
</svg>
