<svg width="44" height="44" viewBox="0 0 44 44" fill="none" xmlns="http://www.w3.org/2000/svg">
<path d="M19.0542 1.37496C19.7916 0.638451 20.7784 0.205075 21.8197 0.160337C22.861 0.1156 23.8812 0.46275 24.6792 1.1333L24.9458 1.37705L28.9042 5.3333H34.5C35.5508 5.33349 36.5628 5.73074 37.3332 6.44546C38.1035 7.16018 38.5754 8.13958 38.6542 9.18746L38.6667 9.49996V15.0958L42.625 19.0541C43.3621 19.7917 43.7958 20.7789 43.8406 21.8207C43.8853 22.8624 43.5378 23.8832 42.8667 24.6812L42.6229 24.9458L38.6646 28.9041V34.5C38.6649 35.5512 38.2679 36.5636 37.5531 37.3344C36.8384 38.1052 35.8587 38.5774 34.8104 38.6562L34.5 38.6666H28.9062L24.9479 42.625C24.2103 43.3621 23.2232 43.7958 22.1814 43.8405C21.1396 43.8853 20.1189 43.5378 19.3208 42.8666L19.0563 42.625L15.0979 38.6666H9.5C8.4488 38.667 7.43632 38.27 6.66552 37.5552C5.89473 36.8404 5.42259 35.8607 5.34375 34.8125L5.33333 34.5V28.9041L1.375 24.9458C0.637904 24.2082 0.204161 23.2211 0.159419 22.1793C0.114677 21.1375 0.462189 20.1168 1.13333 19.3187L1.375 19.0541L5.33333 15.0958V9.49996C5.33353 8.44912 5.73077 7.43716 6.44549 6.66681C7.16021 5.89646 8.13962 5.42461 9.1875 5.3458L9.5 5.3333H15.0958L19.0542 1.37496ZM22 4.32496L18.0417 8.2833C17.3496 8.97424 16.4366 9.39976 15.4625 9.48538L15.0958 9.49996H9.5V15.0958C9.50025 16.0747 9.15581 17.0225 8.52708 17.7729L8.27917 18.0437L4.32083 22.002L8.27917 25.9583C8.97087 26.65 9.39715 27.563 9.48333 28.5375L9.5 28.9041V34.5H15.0958C16.0748 34.4997 17.0226 34.8442 17.7729 35.4729L18.0438 35.7208L22 39.6791L25.9583 35.7208C26.65 35.0291 27.5631 34.6028 28.5375 34.5166L28.9042 34.5H34.5V28.9041C34.4997 27.9252 34.8442 26.9774 35.4729 26.227L35.7208 25.9562L39.6792 22L35.7208 18.0416C35.0291 17.3499 34.6028 16.4369 34.5167 15.4625L34.5 15.0958V9.49996H28.9042C27.9252 9.50021 26.9774 9.15577 26.2271 8.52705L25.9563 8.27913L21.9979 4.3208L22 4.32496ZM28.4167 15.7166C28.7916 15.343 29.2947 15.1261 29.8237 15.1099C30.3528 15.0938 30.8682 15.2796 31.2652 15.6296C31.6622 15.9797 31.9111 16.4678 31.9612 16.9947C32.0114 17.5216 31.8592 18.0479 31.5354 18.4666L31.3604 18.6625L21.1938 28.8291C20.7968 29.2266 20.2677 29.4644 19.707 29.4974C19.1463 29.5305 18.5929 29.3564 18.1521 29.0083L17.9521 28.8312L12.9438 23.8229C12.5661 23.4488 12.3458 22.9446 12.3277 22.4134C12.3097 21.8822 12.4954 21.3642 12.8468 20.9654C13.1982 20.5666 13.6887 20.3173 14.218 20.2683C14.7472 20.2193 15.2752 20.3745 15.6937 20.702L15.8896 20.875L19.5729 24.5583L28.4167 15.7166Z" fill="#005952"/>
</svg>
