<?xml version="1.0" encoding="utf-8"?>

<!DOCTYPE svg PUBLIC "-//W3C//DTD SVG 1.1//EN" "http://www.w3.org/Graphics/SVG/1.1/DTD/svg11.dtd">
<!-- Uploaded to: SVG Repo, www.svgrepo.com, Generator: SVG Repo Mixer Tools -->
<svg height="800px" width="800px" version="1.1" id="_x32_" xmlns="http://www.w3.org/2000/svg" xmlns:xlink="http://www.w3.org/1999/xlink" 
	 viewBox="0 0 512 512"  xml:space="preserve">
<style type="text/css">
	.st0{fill:#000000;}
</style>
<g>
	<path class="st0" d="M202.2,395.191c-0.008-0.044,0-0.08-0.008-0.116c-0.015-0.044-0.044-0.081-0.044-0.081L202.2,395.191z"/>
	<path class="st0" d="M511.033,90.971c-0.757-0.582-1.768-0.698-2.635-0.283l-17.357,8.267c-1.892,0.902-4.075,0.976-6.025,0.204
		l-25.558-10.13c-1.776-0.698-3.217-2.052-4.039-3.776l-13.704-28.87c-1.004-2.125-2.947-3.66-5.247-4.155l-24.256-5.124
		c-1.848-0.393-3.784-0.08-5.414,0.895l-13.471,7.998c-1.87,1.113-3.166,2.976-3.573,5.102l-8.245,44.006l-4.716-3.144
		c-1.892-1.259-4.25-1.601-6.412-0.931c-2.176,0.669-3.93,2.277-4.781,4.388l-3.893,9.621c-0.902,2.242-0.691,4.774,0.582,6.827
		c1.274,2.038,3.45,3.362,5.866,3.544l5.655,0.415l4.156-2.591c3.078-1.928,7.11-1.382,9.562,1.31l8.777,9.578l-60.047,27.043
		c-3.289,1.484-5.072,5.094-4.257,8.602l1.208,5.145c0.866,3.741-1.208,7.539-4.818,8.835l-51.43,18.317
		c-1.318,0.48-2.744,0.582-4.112,0.276l-57.171-12.204c-1.128-0.247-2.183-0.742-3.093-1.448l-29.015-22.793
		c-1.747-1.383-4.018-1.907-6.208-1.456l-7.569,1.572c-2.03,0.422-4.162-0.007-5.866-1.201l-3.835-2.685
		c-3.064-2.154-4.09-6.215-2.424-9.57l3.988-7.954c1.522-3.049,0.823-6.732-1.703-9.002l-26.599-23.892
		c-2.416-2.176-5.968-2.547-8.791-0.931l-49.472,28.265c-2.364,1.346-3.813,3.857-3.813,6.564v20.901
		c0,2.358-1.092,4.556-2.94,5.997l-18.31,14.074c-1.194,0.918-2.635,1.456-4.149,1.558l-38.782,2.3
		c-2.176,0.131-4.192,1.194-5.531,2.926c-1.332,1.718-1.848,3.937-1.419,6.084l7.234,36.671c0.357,1.798,1.353,3.413,2.809,4.52
		l15.5,11.891l3.938-2.373c2.918-1.739,6.644-1.332,9.111,1.034l4.141,3.959c2.962,2.824,3.122,7.488,0.379,10.523l-15.349,16.956
		c-1.412,1.572-2.11,3.654-1.921,5.749l0.691,7.562c0.131,1.426,0.655,2.772,1.521,3.908l9.738,12.692
		c1.587,2.074,4.141,3.173,6.739,2.918l4.235-0.429c2.176-0.218,4.33,0.516,5.924,2.008l34.349,32.239
		c1.063,0.997,2.394,1.659,3.821,1.921l50.644,9.162c1.812,0.335,3.69-0.022,5.269-0.983l24.263-14.744
		c2.176-1.324,4.862-1.456,7.154-0.371l26.941,12.78c2.628,1.251,4.316,3.915,4.316,6.834v13.165c0,1.79-0.64,3.53-1.805,4.89
		l-5.931,6.979c-1.448,1.704-2.052,3.959-1.666,6.172c0.721,3.508,3.784,6.04,7.379,6.04h-2.99c3.856,0,7.102,2.918,7.518,6.754
		l0.648,6.106c0.247,2.35,1.586,4.447,3.602,5.662l27.319,16.476c0.779,0.473,1.747,0.487,2.54,0.036
		c0.786-0.444,1.281-1.281,1.281-2.191v-10.479c0-3.937,3.013-7.212,6.935-7.525l30.624-2.482c3.624-0.29,6.936,2.038,7.896,5.531
		l0.597,2.212c0.793,2.896,3.224,5.05,6.208,5.487l21.57,3.129c3.544,0.524,6.826,0.444,6.826,0.444
		c0.218,3.66-1.266,10.975,2.372,11.404l3.398,0.298c2.147,0.255,2.023-0.669,2.824-2.671c0.888-2.213,1.325-3.682,1.325-5.829
		c0-2.162,1.987-2.889,4.963-3.966l37.668-13.748c0.779-0.284,1.506-0.706,2.154-1.23l34.641-28.026
		c1.098-0.895,1.929-2.088,2.394-3.42l22.728-66.036c0.888-2.569,0.327-5.406-1.463-7.437l-30.238-34.495
		c-2.664-3.034-2.467-7.627,0.451-10.422l21.301-20.442c1.579-1.528,2.431-3.654,2.315-5.852l-0.408-7.794l-18.332,3.238
		c-1.179,0.211-2.3,0.698-3.26,1.434l-5.924,4.505c-2.918,2.227-7.015,2.023-9.708-0.473l-6.172-5.742
		c-1.506-1.39-2.38-3.333-2.416-5.386s0.764-4.032,2.212-5.48l25.238-25.246l6.521,1.186l-2.089,10.894
		c-0.182,1.011-0.167,2.052,0.052,3.056l1.12,5.036c0.19,0.859,0.822,1.565,1.666,1.849c0.837,0.276,1.768,0.087,2.438-0.488
		l64.253-55.148c2.198-1.892,3.122-4.876,2.379-7.677l-2.364-8.857c-0.706-2.664,0.087-5.51,2.081-7.408l8.667-8.29
		c1.121-1.07,1.878-2.459,2.184-3.988l6.834-34.175C512.139,92.522,511.782,91.56,511.033,90.971z"/>
	<path class="st0" d="M346.577,443.746l-10.662,5.924c0,0-6.506,0-9.46,0c-2.969,0-6.521,4.141-6.521,8.878
		c0,4.731,5.931,6.514,11.251,6.514c5.327,0,8.878-5.917,10.065-7.693c1.186-1.775,7.103-8.289,7.103-8.289
		S348.353,441.978,346.577,443.746z"/>
</g>
</svg>