<svg fill="#000000" height="800px" width="800px" version="1.1" xmlns="http://www.w3.org/2000/svg" viewBox="0 0 463.002 463.002" xmlns:xlink="http://www.w3.org/1999/xlink" enable-background="new 0 0 463.002 463.002">
  <g>
    <path d="m403.774,72.383c3.595-4.574 4.248-10.666 1.705-15.898s-7.737-8.483-13.555-8.483h-56.223c0.136-10.454-5.002-20.478-13.66-26.455l4.44-11.303c1.515-3.855-0.383-8.208-4.238-9.723-3.854-1.514-8.208,0.382-9.723,4.238l-4.507,11.472c-13.903-1.682-27.761,6.13-33.119,19.758l-4.695,12.012h-199.121c-5.818,0-11.012,3.251-13.555,8.483s-1.89,11.324 1.704,15.898l164.774,209.712v117.406c0,26.743-21.757,48.5-48.5,48.5h-24c-4.142,0-7.5,3.357-7.5,7.5s3.358,7.5 7.5,7.5h160c4.142,0 7.5-3.357 7.5-7.5s-3.358-7.5-7.5-7.5h-24c-26.743,0-48.5-21.757-48.5-48.5v-117.404l164.773-209.713zm-135.006,70.619c7.803,0 11.302,1.498 15.731,3.395 5.042,2.159 10.756,4.605 21.636,4.605 9.586,0 15.161-1.899 19.8-3.828l-94.434,120.189-94.44-120.18c4.629,1.926 10.195,3.819 19.755,3.819 10.866,0 16.573-2.447 21.608-4.607 4.419-1.896 7.91-3.393 15.695-3.393 7.787,0 11.278,1.497 15.698,3.393 5.036,2.16 10.743,4.607 21.61,4.607 10.875,0 16.585-2.447 21.625-4.606 4.424-1.896 7.92-3.394 15.716-3.394zm20.092-101.538c3.327-8.464 12.926-12.64 21.395-9.318 6.577,2.585 10.63,9.072 10.441,15.855h-34.391l2.555-6.537zm-217.782,21.538l320.871-.019c0.026,0.023 0.059,0.091 0.031,0.133l-51.023,64.938c-9.25,0.349-14.46,2.57-19.092,4.553-4.429,1.896-7.928,3.395-15.731,3.395-7.804,0-11.302-1.498-15.731-3.395-2.982-1.277-6.21-2.651-10.593-3.564l15.243-38.8c1.515-3.855-0.383-8.208-4.238-9.723-3.856-1.513-8.209,0.383-9.723,4.238l-17.057,43.418c-7.901,0.59-12.642,2.61-16.892,4.431-4.425,1.896-7.92,3.394-15.716,3.394-7.787,0-11.278-1.497-15.698-3.393-5.036-2.16-10.743-4.607-21.61-4.607-10.867,0-16.573,2.447-21.608,4.607-4.419,1.896-7.91,3.393-15.695,3.393-7.789,0-11.28-1.497-15.702-3.394-4.629-1.984-9.836-4.207-19.085-4.554l-51.036-64.945c0.002-0.034 0.034-0.102 0.085-0.106zm175.499,385h-30.151c6.123-5.175 11.259-11.48 15.076-18.599 3.815,7.118 8.951,13.424 15.075,18.599z"/>
    <path d="m249.663,164.759l-25.143,64c-1.515,3.855 0.383,8.208 4.238,9.723 0.9,0.354 1.828,0.521 2.74,0.521 2.994,0 5.822-1.805 6.982-4.76l25.143-64c1.515-3.855-0.383-8.208-4.238-9.723-3.854-1.512-8.207,0.383-9.722,4.239z"/>
  </g>
</svg>