<svg width="28" height="18" viewBox="0 0 28 18" fill="none" xmlns="http://www.w3.org/2000/svg">
<path d="M20.1759 17.138C19.9473 16.849 19.833 16.4813 19.833 16.0348C19.833 15.5883 19.9473 15.2206 20.1759 14.9317L25.0385 8.78567L20.1759 2.63964C19.9473 2.35072 19.833 1.98301 19.833 1.53651C19.833 1.09 19.9473 0.722289 20.1759 0.433373C20.4045 0.144457 20.6954 0 21.0487 0C21.4019 0 21.6928 0.144457 21.9214 0.433373L27.6568 7.68254C27.7815 7.84013 27.87 8.01085 27.9224 8.1947C27.9747 8.37856 28.0005 8.57555 27.9997 8.78567C27.9997 8.99579 27.9735 9.19278 27.9211 9.37663C27.8687 9.56049 27.7806 9.73121 27.6568 9.8888L21.9214 17.138C21.6928 17.4269 21.4019 17.5713 21.0487 17.5713C20.6954 17.5713 20.4045 17.4269 20.1759 17.138Z" fill="#2BBF8D"/>
<path d="M7.82363 0.433329C8.05221 0.722244 8.16651 1.08995 8.16651 1.53646C8.16651 1.98297 8.05221 2.35068 7.82363 2.63959L2.96105 8.78562L7.82363 14.9316C8.05221 15.2206 8.1665 15.5883 8.1665 16.0348C8.1665 16.4813 8.05221 16.849 7.82363 17.1379C7.59505 17.4268 7.30412 17.5713 6.95086 17.5713C6.59759 17.5713 6.30667 17.4268 6.07809 17.1379L0.342733 9.88875C0.218051 9.73116 0.129527 9.56044 0.0771605 9.37658C0.0247942 9.19273 -0.000974028 8.99574 -0.000142408 8.78562C-0.000142392 8.5755 0.0260417 8.37851 0.078408 8.19466C0.130774 8.0108 0.218882 7.84008 0.342733 7.68249L6.07809 0.433328C6.30667 0.144413 6.5976 -4.78426e-05 6.95086 -4.78068e-05C7.30412 -4.77711e-05 7.59505 0.144413 7.82363 0.433329Z" fill="#2BBF8D"/>
<path fill-rule="evenodd" clip-rule="evenodd" d="M16.1223 0.852399C16.6502 1.01482 16.9465 1.5744 16.784 2.10226L12.7055 15.3574C12.5431 15.8852 11.9835 16.1815 11.4557 16.0191C10.9278 15.8566 10.6316 15.2971 10.794 14.7692L14.8725 1.51409C15.0349 0.98623 15.5945 0.689979 16.1223 0.852399Z" fill="#2BBF8D"/>
</svg>
