<svg width="24" height="22" viewBox="0 0 24 22" fill="none" xmlns="http://www.w3.org/2000/svg">
<path fill-rule="evenodd" clip-rule="evenodd" d="M6 11C6 8.29933 8.06705 6 10.75 6H10.7519C11.8 6.00197 12.8158 6.36313 13.6298 7.02328C14.0588 7.37113 14.1246 8.00087 13.7767 8.42984C13.4289 8.85882 12.7991 8.92458 12.3702 8.57672C11.9116 8.20486 11.3395 8.00133 10.7491 8C9.29041 8.00054 8 9.28103 8 11C8 12.7193 9.29095 14 10.75 14C11.3526 14 11.914 13.7885 12.375 13.4194C12.8061 13.0742 13.4354 13.1439 13.7806 13.575C14.1258 14.0061 14.0561 14.6354 13.625 14.9806C12.832 15.6155 11.8354 16 10.75 16C8.06705 16 6 13.7007 6 11Z" fill="black"/>
<path fill-rule="evenodd" clip-rule="evenodd" d="M10.5 2C15.1467 2 19 5.98048 19 11C19 16.0195 15.1467 20 10.5 20C5.85329 20 2 16.0195 2 11C2 5.98048 5.85329 2 10.5 2ZM21 11C21 4.97382 16.3467 0 10.5 0C4.6533 0 0 4.97382 0 11C0 17.0262 4.6533 22 10.5 22C16.3467 22 21 17.0262 21 11Z" fill="black"/>
<path fill-rule="evenodd" clip-rule="evenodd" d="M17.6722 3.51667C15.1784 2.2506 12.1218 2 10 2V0C12.2112 0 15.6546 0.249396 18.5776 1.73333C20.0544 2.48311 21.4222 3.56003 22.4175 5.0971C23.4156 6.63855 24 8.58267 24 11C24 13.4173 23.4156 15.3614 22.4175 16.9029C21.4222 18.44 20.0544 19.5169 18.5776 20.2667C15.6546 21.7506 12.2112 22 10 22V20C12.1218 20 15.1784 19.7494 17.6722 18.4833C18.9037 17.8581 19.9735 16.9975 20.7387 15.8158C21.501 14.6386 22 13.0827 22 11C22 8.91733 21.501 7.36145 20.7387 6.18415C19.9735 5.00247 18.9037 4.14189 17.6722 3.51667Z" fill="black"/>
</svg>
