<svg width="73" height="61" viewBox="0 0 73 61" fill="none" xmlns="http://www.w3.org/2000/svg">
<path d="M22.8125 0.083252C24.4259 0.083252 25.9732 0.724172 27.1141 1.86502C28.2549 3.00587 28.8958 4.55319 28.8958 6.16659C28.8958 7.77999 28.2549 9.32731 27.1141 10.4682C25.9732 11.609 24.4259 12.2499 22.8125 12.2499C21.1991 12.2499 19.6518 11.609 18.5109 10.4682C17.3701 9.32731 16.7292 7.77999 16.7292 6.16659C16.7292 4.55319 17.3701 3.00587 18.5109 1.86502C19.6518 0.724172 21.1991 0.083252 22.8125 0.083252ZM18.25 15.2916H27.375C28.9884 15.2916 30.5357 15.9325 31.6766 17.0734C32.8174 18.2142 33.4583 19.7615 33.4583 21.3749V38.1041H28.8958V60.9166H16.7292V38.1041H12.1667V21.3749C12.1667 19.7615 12.8076 18.2142 13.9484 17.0734C15.0893 15.9325 16.6366 15.2916 18.25 15.2916ZM50.1875 0.083252C51.8009 0.083252 53.3482 0.724172 54.4891 1.86502C55.6299 3.00587 56.2708 4.55319 56.2708 6.16659C56.2708 7.77999 55.6299 9.32731 54.4891 10.4682C53.3482 11.609 51.8009 12.2499 50.1875 12.2499C48.5741 12.2499 47.0268 11.609 45.8859 10.4682C44.7451 9.32731 44.1042 7.77999 44.1042 6.16659C44.1042 4.55319 44.7451 3.00587 45.8859 1.86502C47.0268 0.724172 48.5741 0.083252 50.1875 0.083252ZM45.625 15.2916H54.75C56.3634 15.2916 57.9107 15.9325 59.0516 17.0734C60.1924 18.2142 60.8333 19.7615 60.8333 21.3749V38.1041H56.2708V60.9166H44.1042V38.1041H39.5417V21.3749C39.5417 19.7615 40.1826 18.2142 41.3234 17.0734C42.4643 15.9325 44.0116 15.2916 45.625 15.2916Z" fill="#C19238"/>
</svg>
