<svg width="18" height="20" viewBox="0 0 18 20" fill="none" xmlns="http://www.w3.org/2000/svg">
<path d="M5.33333 11.8333C5.07361 11.8333 4.85575 11.7453 4.67975 11.5693C4.50436 11.394 4.41667 11.1764 4.41667 10.9167C4.41667 10.657 4.50436 10.4391 4.67975 10.2631C4.85575 10.0877 5.07361 10 5.33333 10C5.59306 10 5.81092 10.0877 5.98692 10.2631C6.16231 10.4391 6.25 10.657 6.25 10.9167C6.25 11.1764 6.16231 11.394 5.98692 11.5693C5.81092 11.7453 5.59306 11.8333 5.33333 11.8333ZM9 11.8333C8.74028 11.8333 8.52272 11.7453 8.34733 11.5693C8.17133 11.394 8.08333 11.1764 8.08333 10.9167C8.08333 10.657 8.17133 10.4391 8.34733 10.2631C8.52272 10.0877 8.74028 10 9 10C9.25972 10 9.47758 10.0877 9.65358 10.2631C9.82897 10.4391 9.91667 10.657 9.91667 10.9167C9.91667 11.1764 9.82897 11.394 9.65358 11.5693C9.47758 11.7453 9.25972 11.8333 9 11.8333ZM12.6667 11.8333C12.4069 11.8333 12.1894 11.7453 12.014 11.5693C11.838 11.394 11.75 11.1764 11.75 10.9167C11.75 10.657 11.838 10.4391 12.014 10.2631C12.1894 10.0877 12.4069 10 12.6667 10C12.9264 10 13.1439 10.0877 13.3193 10.2631C13.4953 10.4391 13.5833 10.657 13.5833 10.9167C13.5833 11.1764 13.4953 11.394 13.3193 11.5693C13.1439 11.7453 12.9264 11.8333 12.6667 11.8333ZM2.58333 19.1667C2.07917 19.1667 1.64742 18.9873 1.28808 18.6286C0.929361 18.2693 0.75 17.8375 0.75 17.3333V4.50001C0.75 3.99584 0.929361 3.5644 1.28808 3.20568C1.64742 2.84634 2.07917 2.66668 2.58333 2.66668H3.5V0.833344H5.33333V2.66668H12.6667V0.833344H14.5V2.66668H15.4167C15.9208 2.66668 16.3526 2.84634 16.7119 3.20568C17.0706 3.5644 17.25 3.99584 17.25 4.50001V17.3333C17.25 17.8375 17.0706 18.2693 16.7119 18.6286C16.3526 18.9873 15.9208 19.1667 15.4167 19.1667H2.58333ZM2.58333 17.3333H15.4167V8.16668H2.58333V17.3333ZM2.58333 6.33334H15.4167V4.50001H2.58333V6.33334ZM2.58333 6.33334V4.50001V6.33334Z" fill="white"/>
</svg>
