<svg width="23" height="23" viewBox="0 0 23 23" fill="none" xmlns="http://www.w3.org/2000/svg">
<path fill-rule="evenodd" clip-rule="evenodd" d="M12.0939 15.1334C12.0206 15.2191 11.9295 15.288 11.827 15.3352C11.7245 15.3824 11.613 15.4069 11.5002 15.4069C11.3873 15.4069 11.2758 15.3824 11.1733 15.3352C11.0708 15.288 10.9798 15.2191 10.9064 15.1334L7.782 11.4882C7.71525 11.4103 7.66391 11.3192 7.63208 11.2216C7.62544 11.2013 7.61966 11.1807 7.61472 11.16C7.596 11.0812 7.58959 10.9998 7.59587 10.9188C7.6038 10.8165 7.63181 10.7167 7.67831 10.6252C7.7248 10.5337 7.78886 10.4522 7.86683 10.3855C7.9448 10.3187 8.03516 10.268 8.13274 10.2361C8.14238 10.233 8.15207 10.23 8.16181 10.2273C8.2453 10.2036 8.33219 10.1939 8.41891 10.1988C8.42446 10.1991 8.43001 10.1995 8.43556 10.1999C8.5337 10.2075 8.62948 10.2336 8.71788 10.2767C8.72167 10.2786 8.72543 10.2804 8.72919 10.2824C8.82043 10.3287 8.90168 10.3925 8.96833 10.4702C8.96813 10.47 8.96852 10.4704 8.96833 10.4702L10.7189 12.5125V1.08337C10.7189 0.876174 10.8012 0.67746 10.9477 0.530947C11.0942 0.384434 11.293 0.302124 11.5002 0.302124C11.7074 0.302124 11.9061 0.384434 12.0526 0.530947C12.1991 0.67746 12.2814 0.876174 12.2814 1.08337V12.5136L14.0314 10.4709C14.0312 10.4711 14.0316 10.4706 14.0314 10.4709C14.0981 10.3932 14.1799 10.3287 14.2711 10.2824C14.2749 10.2804 14.2787 10.2786 14.2825 10.2767C14.3708 10.2336 14.4666 10.2075 14.5648 10.1999C14.5703 10.1995 14.5759 10.1991 14.5814 10.1988C14.6681 10.1939 14.755 10.2036 14.8385 10.2273C14.8483 10.23 14.8579 10.233 14.8676 10.2361C14.9652 10.268 15.0555 10.3187 15.1335 10.3855C15.2115 10.4522 15.2755 10.5337 15.322 10.6252C15.3685 10.7167 15.3965 10.8165 15.4045 10.9188C15.4107 10.9998 15.4043 11.0812 15.3856 11.16C15.3807 11.1807 15.3749 11.2013 15.3682 11.2216C15.3364 11.3192 15.2857 11.4096 15.2189 11.4875L12.0939 15.1334ZM6.29633 9.15837C6.29644 9.15837 6.29622 9.15837 6.29633 9.15837C6.44466 9.15752 6.58841 9.11451 6.71156 9.03606C6.76034 9.005 6.80588 8.96837 6.8472 8.92661C6.99293 8.77931 7.07418 8.58016 7.07308 8.37296C7.07276 8.31293 7.06553 8.25365 7.05185 8.19618C7.0183 8.05528 6.94593 7.92526 6.84131 7.82175C6.69402 7.67602 6.49486 7.59477 6.28766 7.59587C6.28758 7.59587 6.28774 7.59587 6.28766 7.59587C6.01838 7.59737 5.75962 7.60005 5.51162 7.60519C5.32677 7.60902 5.14778 7.61421 4.97452 7.62129C4.40763 7.64446 3.90225 7.68782 3.45488 7.76973C3.45469 7.76977 3.45506 7.7697 3.45488 7.76973C3.45399 7.76989 3.45256 7.77016 3.45168 7.77032C2.66324 7.91524 1.99226 8.19232 1.446 8.73754C0.819954 9.36462 0.549121 10.1542 0.424121 11.0917C0.424095 11.0919 0.424147 11.0915 0.424121 11.0917C0.424046 11.0923 0.423891 11.0934 0.423816 11.094C0.302246 11.9968 0.302246 13.145 0.302246 14.5677V15.724C0.302246 17.1473 0.302246 18.2959 0.423954 19.1988C0.42401 19.1992 0.424065 19.1996 0.424121 19.2C0.424141 19.2002 0.424101 19.1999 0.424121 19.2C0.549955 20.1356 0.818019 20.9243 1.44253 21.5507C1.44368 21.5519 1.44484 21.5531 1.446 21.5542C1.44684 21.555 1.44768 21.5559 1.44852 21.5567C2.07516 22.182 2.86383 22.4512 3.8 22.5771C4.70301 22.6978 5.85263 22.698 7.2762 22.698H15.7241C17.1481 22.698 18.297 22.698 19.2002 22.5771C20.1374 22.45 20.9274 22.1811 21.5543 21.5542C22.1813 20.9273 22.4501 20.1379 22.5772 19.2006C22.5772 19.2004 22.5771 19.2008 22.5772 19.2006C22.5772 19.2002 22.5773 19.1993 22.5774 19.1989C22.6981 18.296 22.6981 17.1484 22.6981 15.724V14.5677C22.6981 13.144 22.6981 11.9951 22.5773 11.0931C22.5773 11.093 22.5773 11.0932 22.5773 11.0931C22.5772 11.0925 22.5771 11.0915 22.577 11.0909C22.4499 10.1549 22.1814 9.36545 21.5558 8.74006C21.5553 8.73957 21.5548 8.73907 21.5543 8.73858C21.5534 8.73765 21.5525 8.73672 21.5515 8.73579C21.0058 8.19138 20.3357 7.91603 19.5486 7.77032C19.5478 7.77016 19.5469 7.77 19.546 7.76983C19.5458 7.7698 19.5462 7.76987 19.546 7.76983C19.0986 7.68792 18.5927 7.64446 18.0258 7.62129C17.8525 7.61421 17.6735 7.60902 17.4887 7.60519C17.3415 7.60214 17.1906 7.59996 17.0359 7.59837C16.93 7.59729 16.8224 7.59648 16.7129 7.59588C16.7128 7.59588 16.713 7.59588 16.7129 7.59588C16.6103 7.59533 16.5084 7.61499 16.4134 7.65375C16.3184 7.6925 16.2319 7.74959 16.159 7.82175C16.0861 7.89391 16.0281 7.97973 15.9883 8.0743C15.9717 8.11386 15.9584 8.15463 15.9485 8.19618C15.9347 8.25397 15.9276 8.31327 15.9272 8.37296C15.9267 8.47555 15.9464 8.57725 15.9851 8.67225C16.0239 8.76724 16.081 8.85367 16.1531 8.92661C16.1942 8.96813 16.2397 9.00482 16.2888 9.03606C16.3259 9.05968 16.365 9.08019 16.4057 9.09731C16.5001 9.13703 16.6015 9.15778 16.704 9.15837C16.7041 9.15837 16.7039 9.15837 16.704 9.15837C16.8151 9.15898 16.9234 9.15981 17.0283 9.16091C17.057 9.16122 17.0856 9.16154 17.1139 9.16188C17.2443 9.16347 17.37 9.16552 17.4911 9.16815C17.6686 9.17199 17.8364 9.17707 17.9953 9.18375C18.4979 9.20485 18.9117 9.24186 19.2623 9.30603C19.2627 9.30612 19.2632 9.3062 19.2637 9.30629C19.264 9.30634 19.2634 9.30624 19.2637 9.30629C19.8528 9.41568 20.1951 9.58974 20.4491 9.84275C20.4493 9.84292 20.4489 9.84258 20.4491 9.84275C20.4494 9.84306 20.4503 9.84389 20.4506 9.84419C20.7372 10.1326 20.9253 10.5378 21.0283 11.3C21.0283 11.3001 21.0283 11.3 21.0283 11.3C21.0284 11.3009 21.0285 11.3019 21.0286 11.3027C21.1322 12.0798 21.1355 13.1052 21.1356 14.5677C21.1356 14.5868 21.1356 14.6059 21.1356 14.625V15.6667C21.1356 15.6859 21.1356 15.705 21.1356 15.724C21.1355 17.1882 21.1322 18.2139 21.0285 18.9901C21.0284 18.9906 21.0284 18.9912 21.0283 18.9917C21.0282 18.9921 21.0282 18.9924 21.0281 18.9928C20.925 19.7567 20.7375 20.1606 20.4491 20.449C20.1607 20.7374 19.7568 20.9249 18.9929 21.028C18.9925 21.0281 18.9922 21.0281 18.9918 21.0282C18.9913 21.0282 18.9908 21.0283 18.9902 21.0284C18.213 21.1331 17.1873 21.1354 15.7241 21.1355C15.7051 21.1355 15.686 21.1355 15.6668 21.1355H7.3335C7.31432 21.1355 7.29523 21.1355 7.2762 21.1355C5.81197 21.1354 4.78488 21.1331 4.00954 21.0282C4.00917 21.0281 4.0088 21.0281 4.00843 21.028C4.0081 21.028 4.00876 21.0281 4.00843 21.028C3.24416 20.9248 2.83948 20.7373 2.5512 20.45C2.55103 20.4499 2.55138 20.4502 2.5512 20.45C2.26402 20.1605 2.07514 19.7559 1.97207 18.9919C1.86828 18.2156 1.86482 17.1889 1.86475 15.724C1.86475 15.705 1.86475 15.6859 1.86475 15.6667V14.625C1.86475 14.6059 1.86475 14.5868 1.86475 14.5677C1.86482 13.1035 1.86818 12.0775 1.97204 11.3011C1.97206 11.3009 1.97202 11.3012 1.97204 11.3011C1.97215 11.3003 1.97232 11.299 1.97243 11.2981C2.07552 10.5364 2.26258 10.1319 2.55015 9.8438C2.5505 9.84345 2.55085 9.8431 2.5512 9.84275C2.55151 9.84244 2.55182 9.84214 2.55212 9.84183C2.80504 9.58932 3.14743 9.4157 3.7358 9.30644C4.08666 9.24211 4.5017 9.20487 5.00499 9.18375C5.16391 9.17707 5.33171 9.17199 5.5092 9.16815C5.63035 9.16552 5.756 9.16347 5.88644 9.16188C6.01801 9.16028 6.15478 9.15915 6.29633 9.15837Z" fill="#2BBF8D"/>
</svg>
