<svg width="36" height="30" viewBox="0 0 36 30" fill="none" xmlns="http://www.w3.org/2000/svg">
<path d="M18 1.13861L34.6537 7.8001L17.9999 14.4616L4.75748 9.17177L4.0401 8.88521L4.07244 9.65703L4.87861 28.9001H2.32148L3.16356 8.88311L3.17846 8.52892L2.84915 8.39764L1.34826 7.79931L18 1.13861ZM27.8516 13.3945C28.8399 14.7898 29.5518 16.407 29.8775 18.1541C29.5283 18.1211 29.1687 18.1001 28.8 18.1001C24.312 18.1001 20.3548 20.3675 18.0007 23.81C16.8793 22.165 15.3948 20.7948 13.6579 19.8077C11.6895 18.6889 9.46424 18.1005 7.2001 18.1001H7.2C6.83131 18.1001 6.47169 18.1211 6.12249 18.1541C6.44823 16.407 7.16013 14.7898 8.14837 13.3945L17.8142 17.2643L18 17.3387L18.1858 17.2643L27.8516 13.3945ZM18 5.5001C17.4453 5.5001 16.9158 5.60995 16.5064 5.81327C16.1255 6.00237 15.7 6.35672 15.7 6.9001C15.7 7.44347 16.1255 7.79782 16.5064 7.98693C16.9158 8.19025 17.4453 8.3001 18 8.3001C18.5547 8.3001 19.0842 8.19025 19.4936 7.98693C19.8745 7.79782 20.3 7.44347 20.3 6.9001C20.3 6.35672 19.8745 6.00237 19.4936 5.81327C19.0842 5.60995 18.5547 5.5001 18 5.5001Z" stroke="#008AC5"/>
</svg>
