<svg width="38" height="34" viewBox="0 0 38 34" fill="none" xmlns="http://www.w3.org/2000/svg">
<path fill-rule="evenodd" clip-rule="evenodd" d="M27.4588 0.416504C33.1475 0.416504 37.4372 5.05805 37.4372 11.2132V22.946C37.4372 26.0962 36.3233 28.9422 34.299 30.9615C32.483 32.7706 30.1272 33.729 27.4861 33.729H10.6539C8.01797 33.729 5.66388 32.7723 3.84622 30.9615C1.82184 28.9422 0.708008 26.0962 0.708008 22.946V11.2132C0.708008 5.05805 4.99763 0.416504 10.6864 0.416504H27.4588ZM27.4588 2.979H10.6864C6.38992 2.979 3.27051 6.4418 3.27051 11.2132V22.946C3.27051 25.4111 4.11784 27.6132 5.65534 29.1455C6.98101 30.4695 8.71155 31.1665 10.659 31.1665H27.4588C27.4622 31.1631 27.4759 31.1665 27.4861 31.1665C29.4353 31.1665 31.1642 30.4695 32.4898 29.1455C34.029 27.6132 34.8747 25.4111 34.8747 22.946V11.2132C34.8747 6.4418 31.7553 2.979 27.4588 2.979ZM30.1511 10.8865C30.597 11.4349 30.5133 12.2412 29.9649 12.6888L22.3731 18.8593C21.413 19.6212 20.265 20.0022 19.1187 20.0022C17.9758 20.0022 16.8364 19.6247 15.8831 18.8696L8.22126 12.6922C7.66947 12.2481 7.58405 11.44 8.02651 10.89C8.47238 10.3416 9.27872 10.2545 9.8288 10.6969L17.4838 16.8674C18.4456 17.6293 19.8003 17.6293 20.769 16.8606L28.3471 10.7003C28.8972 10.251 29.7035 10.3365 30.1511 10.8865Z" fill="white"/>
</svg>
