<svg width="19" height="20" viewBox="0 0 19 20" fill="none" xmlns="http://www.w3.org/2000/svg">
<path fill-rule="evenodd" clip-rule="evenodd" d="M0.756641 0.840015C1.24111 0.355546 1.89819 0.083374 2.58333 0.083374H15.4167C16.1018 0.083374 16.7589 0.355546 17.2434 0.840015C17.7278 1.32448 18 1.98156 18 2.66671V13.6667C18 14.0809 17.6642 14.4167 17.25 14.4167C16.8358 14.4167 16.5 14.0809 16.5 13.6667V2.66671C16.5 2.37939 16.3859 2.10384 16.1827 1.90067C15.9795 1.69751 15.704 1.58337 15.4167 1.58337H2.58333C2.29602 1.58337 2.02047 1.69751 1.8173 1.90067C1.61414 2.10384 1.5 2.37939 1.5 2.66671V17.3334C1.5 17.6207 1.61414 17.8962 1.8173 18.0994C2.02047 18.3026 2.29602 18.4167 2.58333 18.4167H10.8333C11.2475 18.4167 11.5833 18.7525 11.5833 19.1667C11.5833 19.5809 11.2475 19.9167 10.8333 19.9167H2.58333C1.89819 19.9167 1.24111 19.6445 0.756641 19.1601C0.272172 18.6756 0 18.0185 0 17.3334V2.66671C0 1.98156 0.272172 1.32448 0.756641 0.840015Z" fill="black"/>
<path fill-rule="evenodd" clip-rule="evenodd" d="M8.08333 3.75004C8.49755 3.75004 8.83333 4.08583 8.83333 4.50004V6.33337C8.83333 6.74759 8.49755 7.08337 8.08333 7.08337H0.75C0.335786 7.08337 0 6.74759 0 6.33337C0 5.91916 0.335786 5.58337 0.75 5.58337H7.33333V4.50004C7.33333 4.08583 7.66912 3.75004 8.08333 3.75004ZM9.91667 3.75004C10.3309 3.75004 10.6667 4.08583 10.6667 4.50004V5.58337H17.25C17.6642 5.58337 18 5.91916 18 6.33337C18 6.74759 17.6642 7.08337 17.25 7.08337H9.91667C9.50245 7.08337 9.16667 6.74759 9.16667 6.33337V4.50004C9.16667 4.08583 9.50245 3.75004 9.91667 3.75004ZM18.697 14.9697C18.9899 15.2626 18.9899 15.7375 18.697 16.0304L15.0303 19.697C14.8897 19.8377 14.6989 19.9167 14.5 19.9167C14.3011 19.9167 14.1103 19.8377 13.9697 19.697L12.1363 17.8637C11.8434 17.5708 11.8434 17.0959 12.1363 16.803C12.4292 16.5101 12.9041 16.5101 13.197 16.803L14.5 18.106L17.6363 14.9697C17.9292 14.6768 18.4041 14.6768 18.697 14.9697Z" fill="black"/>
</svg>
