<svg width="50" height="32" viewBox="0 0 50 32" fill="none" xmlns="http://www.w3.org/2000/svg">
<path fill-rule="evenodd" clip-rule="evenodd" d="M12.1294 20.8794C13.3328 19.676 14.9649 19 16.6667 19C18.3685 19 20.0006 19.676 21.2039 20.8794C22.4073 22.0828 23.0833 23.7149 23.0833 25.4167C23.0833 27.1185 22.4073 28.7506 21.2039 29.9539C20.0006 31.1573 18.3685 31.8333 16.6667 31.8333C14.9649 31.8333 13.3328 31.1573 12.1294 29.9539C10.926 28.7506 10.25 27.1185 10.25 25.4167C10.25 23.7149 10.926 22.0828 12.1294 20.8794ZM16.6667 23.5C16.1583 23.5 15.6708 23.7019 15.3114 24.0614C14.9519 24.4208 14.75 24.9083 14.75 25.4167C14.75 25.925 14.9519 26.4125 15.3114 26.772C15.6708 27.1314 16.1583 27.3333 16.6667 27.3333C17.175 27.3333 17.6625 27.1314 18.022 26.772C18.3814 26.4125 18.5833 25.925 18.5833 25.4167C18.5833 24.9083 18.3814 24.4208 18.022 24.0614C17.6625 23.7019 17.175 23.5 16.6667 23.5ZM32.9627 20.8794C34.1661 19.676 35.7982 19 37.5 19C39.2018 19 40.8339 19.676 42.0373 20.8794C43.2406 22.0828 43.9167 23.7149 43.9167 25.4167C43.9167 27.1185 43.2406 28.7506 42.0373 29.9539C40.8339 31.1573 39.2018 31.8333 37.5 31.8333C35.7982 31.8333 34.1661 31.1573 32.9627 29.9539C31.7594 28.7506 31.0833 27.1185 31.0833 25.4167C31.0833 23.7149 31.7594 22.0828 32.9627 20.8794ZM37.5 23.5C36.9917 23.5 36.5042 23.7019 36.1447 24.0614C35.7853 24.4208 35.5833 24.9083 35.5833 25.4167C35.5833 25.925 35.7853 26.4125 36.1447 26.772C36.5042 27.1314 36.9917 27.3333 37.5 27.3333C38.0083 27.3333 38.4958 27.1314 38.8553 26.772C39.2147 26.4125 39.4167 25.925 39.4167 25.4167C39.4167 24.9083 39.2147 24.4208 38.8553 24.0614C38.4958 23.7019 38.0083 23.5 37.5 23.5Z" fill="#005952"/>
<path fill-rule="evenodd" clip-rule="evenodd" d="M-0.166656 2.5C-0.166656 1.25736 0.840703 0.25 2.08334 0.25H30C30.9283 0.25 31.8185 0.618747 32.4749 1.27513C33.1313 1.93151 33.5 2.82175 33.5 3.75V27.6667H20.9375C19.6949 27.6667 18.6875 26.6593 18.6875 25.4167C18.6875 24.174 19.6949 23.1667 20.9375 23.1667H29V4.75H2.08334C0.840703 4.75 -0.166656 3.74264 -0.166656 2.5ZM6.25001 11.7083C7.49265 11.7083 8.50001 12.7157 8.50001 13.9583V23.1667H11.7708C13.0135 23.1667 14.0208 24.174 14.0208 25.4167C14.0208 26.6593 13.0135 27.6667 11.7708 27.6667H7.50001C7.0404 27.6667 6.58527 27.5761 6.16062 27.4002C5.73597 27.2244 5.35014 26.9665 5.02514 26.6415C4.70013 26.3165 4.44232 25.9307 4.26643 25.5061C4.09054 25.0814 4.00001 24.6263 4.00001 24.1667V13.9583C4.00001 12.7157 5.00737 11.7083 6.25001 11.7083Z" fill="#005952"/>
<path fill-rule="evenodd" clip-rule="evenodd" d="M1.91669 8.75C1.91669 7.50736 2.92405 6.5 4.16669 6.5H12.5C13.7427 6.5 14.75 7.50736 14.75 8.75C14.75 9.99264 13.7427 11 12.5 11H4.16669C2.92405 11 1.91669 9.99264 1.91669 8.75Z" fill="#005952"/>
<path fill-rule="evenodd" clip-rule="evenodd" d="M29 8.75C29 7.50736 30.0074 6.5 31.25 6.5H42.9375C43.614 6.50016 44.2766 6.69641 44.8439 7.06496C45.4112 7.43351 45.8596 7.95859 46.1347 8.57667L49.8633 16.9671C49.8635 16.9675 49.8637 16.968 49.8639 16.9684C50.0625 17.4142 50.1656 17.8966 50.1667 18.3846L50.1667 18.3896L50.1667 24.1667C50.1667 24.6263 50.0761 25.0814 49.9002 25.5061C49.7244 25.9307 49.4665 26.3165 49.1415 26.6415C48.8165 26.9665 48.4307 27.2244 48.0061 27.4002C47.5814 27.5761 47.1263 27.6667 46.6667 27.6667H42.7083C41.4657 27.6667 40.4583 26.6593 40.4583 25.4167C40.4583 24.174 41.4657 23.1667 42.7083 23.1667H45.6667V18.6045L42.2873 11H31.25C30.0074 11 29 9.99264 29 8.75ZM29 25.4167C29 24.174 30.0074 23.1667 31.25 23.1667H33.3333C34.576 23.1667 35.5833 24.174 35.5833 25.4167C35.5833 26.6593 34.576 27.6667 33.3333 27.6667H31.25C30.0074 27.6667 29 26.6593 29 25.4167Z" fill="#005952"/>
</svg>
