<?xml version="1.0" encoding="utf-8"?>
<!-- Uploaded to: SVG Repo, www.svgrepo.com, Generator: SVG Repo Mixer Tools -->
<svg fill="#000000" version="1.1" id="Layer_1" xmlns="http://www.w3.org/2000/svg" xmlns:xlink="http://www.w3.org/1999/xlink" 
	 width="800px" height="800px" viewBox="0 0 248 260" enable-background="new 0 0 248 260" xml:space="preserve">
<polygon points="231.992,197.322 230.32,181.434 222.2,172.344 231.777,167.866 224.574,151.843 228.863,148.714 221.526,134.715 
	208.767,135.551 228.513,103.451 237.01,100.106 235.769,85.378 239.329,70.03 235.337,58.08 219.611,54.033 212.84,47.857 
	167.874,33.911 165.608,23.417 140.86,8.812 137.69,2 120.426,8.285 120.561,22.69 116.326,31.537 94.827,41.86 94.727,46.48 
	84.882,50.661 69.751,46.606 66.244,38.244 54.069,39.387 60.381,59.834 58.978,71.027 37.291,72.16 27.483,62.963 2.008,67.468 
	3.517,86.931 40.177,104.477 48.728,116.561 45.869,123.143 51.614,132.637 65.048,138.868 54.042,217.472 57.576,233.117 
	90.337,247.606 99.305,245.161 129.139,258 149.639,249.059 149.262,237.811 168.089,220.467 197.789,225.322 210.844,232.416 
	226.328,227.857 245.992,201.017 "/>
</svg>