<?xml version="1.0" encoding="utf-8"?>
<!-- Uploaded to: SVG Repo, www.svgrepo.com, Generator: SVG Repo Mixer Tools -->
<svg width="800px" height="800px" viewBox="0 0 24 24" xmlns="http://www.w3.org/2000/svg">
<defs>
<style>.cls-1,.cls-2{fill:none;stroke:#000000;stroke-linecap:round;stroke-linejoin:round;stroke-width:1.5px;}.cls-1{fill-rule:evenodd;}</style>
</defs>
<g id="ic-furniture-pouch">
<path class="cls-1" d="M14.28,18H9.72a6.63,6.63,0,0,1-6.55-7.63v0A9.25,9.25,0,0,1,9.07,3.1h0a8.33,8.33,0,0,1,5.86,0h0a9.25,9.25,0,0,1,5.89,7.25v0A6.63,6.63,0,0,1,14.28,18Z"/>
<line class="cls-2" x1="15.87" y1="17.81" x2="18" y2="21"/>
<line class="cls-2" x1="8.13" y1="17.81" x2="6" y2="21"/>
<path class="cls-2" d="M7,12l1.34.89A6.62,6.62,0,0,0,12,14h0a6.62,6.62,0,0,0,3.66-1.11L17,12"/>
</g>
</svg>