<svg width="17" height="18" viewBox="0 0 17 18" fill="none" xmlns="http://www.w3.org/2000/svg">
<path d="M8.954 8.6162L11.911 5.6592L2.36 0.291195C1.727 -0.0508051 1.134 -0.0988049 0.614 0.275195L8.954 8.6162ZM12.415 12.0782L15.489 10.3492C16.089 10.0132 16.418 9.5372 16.418 9.0092C16.418 8.48219 16.089 8.00519 15.49 7.66919L12.707 6.10619L9.574 9.2382L12.415 12.0782ZM0.0999999 1.00219C0.0359999 1.19919 0 1.41919 0 1.66019V16.3652C0 16.7462 0.0840001 17.0742 0.236 17.3352L8.333 9.2372L0.0999999 1.00219ZM8.954 9.8572L0.902 17.9102C1.056 17.9692 1.222 18.0002 1.397 18.0002C1.709 18.0002 2.034 17.9082 2.365 17.7242L11.62 12.5272L8.954 9.8572Z" fill="white"/>
</svg>
