<?xml version="1.0" ?><!-- Uploaded to: SVG Repo, www.svgrepo.com, Generator: SVG Repo Mixer Tools -->
<svg fill="#000000" width="42" height="42" viewBox="0 0 32 32" id="OBJECT" xmlns="http://www.w3.org/2000/svg"><title/><path d="M22.13,25l-.67.38a3,3,0,0,1-4-.95A1,1,0,0,0,16.6,24a1,1,0,0,0-1,.73A10.61,10.61,0,0,0,15.53,31L16,31a15,15,0,0,0,12.19-6.3A6.54,6.54,0,0,0,22.13,25Z"/><path d="M26.37,16.06s0,0,0-.06H17V9.67h2.33A7.68,7.68,0,0,0,27,2a1,1,0,0,0-1-1H22.67A7.67,7.67,0,0,0,16,4.89,7.67,7.67,0,0,0,9.33,1H6A1,1,0,0,0,5,2a7.68,7.68,0,0,0,7.67,7.67H15V16H11.21a8.55,8.55,0,0,1,1.45,7l-1.61,7.1a14.36,14.36,0,0,0,2.36.62A12.32,12.32,0,0,1,13.1,28a13,13,0,0,1,.6-3.86A3.06,3.06,0,0,1,16.6,22a2.9,2.9,0,0,1,2.49,1.35,1,1,0,0,0,1.37.32l.67-.39a8.54,8.54,0,0,1,8.13-.3,15,15,0,0,0,1.44-4h-.63A3.93,3.93,0,0,1,26.37,16.06Z"/><path d="M28.5,16a1.93,1.93,0,0,0,1.6.94H31c0-.32.05-.63.05-.95Z"/><path d="M9.14,16.59C9,16.4,8.83,16.2,8.69,16H1A15,15,0,0,0,9.18,29.34l1.53-6.75a6.63,6.63,0,0,0-1.36-5.75Z"/></svg>