<svg width="29" height="25" viewBox="0 0 29 25" fill="none" xmlns="http://www.w3.org/2000/svg">
<path fill-rule="evenodd" clip-rule="evenodd" d="M23.4292 1.22636C26.3099 2.90524 28.3366 6.31386 28.2472 10.2904C28.1359 15.2541 24.2735 19.6321 17.6886 23.5426C16.7124 24.1229 15.6839 24.875 14.5 24.875C13.3381 24.875 12.2656 24.1091 11.31 23.5412C4.72788 19.6321 0.864127 15.2527 0.752752 10.2904C0.663377 6.31386 2.69013 2.90661 5.57075 1.22636C8.26575 -0.342515 11.651 -0.35214 14.5 1.96474C17.349 -0.35214 20.7342 -0.343889 23.4292 1.22636ZM22.0446 3.60374C20.1279 2.48724 17.7326 2.52711 15.6591 4.62536C15.5073 4.77827 15.3267 4.89962 15.1278 4.98244C14.9288 5.06525 14.7155 5.10788 14.5 5.10788C14.2845 5.10788 14.0712 5.06525 13.8722 4.98244C13.6733 4.89962 13.4927 4.77827 13.3409 4.62536C11.2674 2.52711 8.87213 2.48724 6.95538 3.60374C4.96988 4.76149 3.43538 7.21724 3.50275 10.2312C3.57975 13.6839 6.30775 17.373 12.7153 21.179C13.2763 21.5131 13.862 21.9407 14.5 22.1181C15.138 21.9407 15.7238 21.5131 16.2848 21.179C22.6923 17.373 25.4202 13.6852 25.4972 10.2299C25.566 7.21861 24.0301 4.76149 22.0446 3.60374Z" fill="#FF0000"/>
</svg>
