<svg fill="#000000" height="800px" width="800px" version="1.1" id="Layer_1" xmlns="http://www.w3.org/2000/svg" xmlns:xlink="http://www.w3.org/1999/xlink" 
	 viewBox="0 0 512 512" xml:space="preserve">
<g>
	<g>
		<path d="M436.774,32.417c-0.35-4.634-4.389-8.108-9.024-7.757c-4.633,0.35-8.107,4.39-7.757,9.024
			c1.795,23.766-0.748,58.43-23.058,88.606c-22.341,30.219-54.028,40.732-71.052,46.381c-25.21,8.363-48.352,10.542-69.817,9.979
			c1.881-4.059,2.939-8.576,2.939-13.337c0-14.823-10.186-27.312-23.925-30.836v-10.971h44.928
			c17.013,0,30.853-13.841,30.853-30.853v-8.975c0-4.648-3.767-8.414-8.414-8.414h-40.949l16.837-54.309
			c1.537-4.958,0.653-10.199-2.427-14.377c-3.08-4.178-7.823-6.574-13.014-6.574h-44.643c-4.647,0-8.414,3.766-8.414,8.414
			c0,4.648,3.767,8.414,8.414,8.414h43.744l-18.115,58.433h-34.692l-24.79-69.67c-1.557-4.378-6.372-6.66-10.748-5.107
			c-4.379,1.558-6.664,6.371-5.107,10.749l22.783,64.026H151.55c-4.647,0-8.414,3.766-8.414,8.414v8.975
			c0,17.012,13.84,30.853,30.853,30.853h44.264v11.26c-13.218,3.868-22.905,16.095-22.905,30.548c0,2.343,0.261,4.625,0.745,6.825
			c-33.415-4.715-62.472-7.003-86.439,15.173c-6.523,6.037-21.919,22.699-23.986,46.974c-0.14,1.644-3.061,40.486,28.382,61.555
			c12.524,8.392,25.511,10.719,36.061,10.719c4.212,0,8.032-0.371,11.281-0.875c2.441,7.023,7.351,12.896,13.687,16.582
			c-31.123,17.28-52.237,50.487-52.237,88.538c0,18.833,5.246,37.127,14.972,52.956h-23.671c-21.723,0-39.396,17.674-39.396,39.396
			v0.432c0,4.648,3.767,8.414,8.414,8.414h287.676c4.647,0,8.414-3.766,8.414-8.414v-0.432c0-21.723-17.672-39.396-39.396-39.396
			H158.359c-12.076-14.965-18.689-33.624-18.689-52.956c0-46.521,37.848-84.369,84.369-84.369c46.521,0,84.37,37.848,84.37,84.369
			c0,8.859-1.364,17.581-4.056,25.923c-1.426,4.422,1.003,9.164,5.426,10.59c4.424,1.427,9.164-1.003,10.591-5.426
			c3.229-10.014,4.867-20.474,4.867-31.088c0-36.91-19.866-69.262-49.463-86.941c10.899-4.765,18.539-15.645,18.539-28.281
			c0-13.885-9.222-25.654-21.862-29.512c-2.152-13.881-10.537-25.722-22.192-32.585c5.115-5.65,8.235-13.137,8.235-21.34
			c0-6.15-1.758-11.895-4.792-16.768c23.5,0.765,49.414-1.422,77.478-10.732c17.455-5.791,53.774-17.842,79.285-52.348
			C437.19,96.149,438.42,54.202,436.774,32.417z M154.351,480.586c0.036,0,0.071,0.006,0.107,0.006c0.042,0,0.083-0.004,0.125-0.006
			h185.274c9.634,0,17.878,6.068,21.109,14.585H93.034c3.231-8.516,11.475-14.585,21.109-14.585H154.351z M173.988,106.677
			c-7.732,0-14.024-6.292-14.024-14.024v-0.561h43.287h46.83h43.952v0.561c0,7.733-6.291,14.024-14.024,14.024H173.988z
			 M225.083,150.474c0.514,0.098,1.042,0.154,1.584,0.154c0.682,0,1.342-0.09,1.978-0.243c7.584,0.74,13.533,7.15,13.533,14.927
			c0,4.954-2.426,9.342-6.139,12.075c-6.957-0.669-13.732-1.526-20.343-2.441c-2.192-2.608-3.519-5.968-3.519-9.634
			C212.176,157.752,217.802,151.498,225.083,150.474z M226.667,197.14c8.272,0,15.001,6.729,15.001,15.001
			c0,8.271-6.729,15-15.001,15c-8.271,0.001-15-6.729-15-15C211.667,203.87,218.396,197.14,226.667,197.14z M160.454,288.755
			c-8.067,1.47-23.181,2.386-37.036-6.898c-23.294-15.609-21.008-45.845-20.982-46.149c1.566-18.411,13.563-31.344,18.647-36.048
			c20.028-18.533,45.548-14.818,80.869-9.68c0.552,0.081,1.112,0.162,1.668,0.242c-5.436,5.713-8.782,13.43-8.782,21.919
			c0,8.326,3.217,15.911,8.467,21.588c-11.431,6.899-19.634,18.625-21.76,32.336C171.041,269.272,162.905,277.945,160.454,288.755z
			 M263.461,281.556c7.733,0,14.024,6.291,14.024,14.024s-6.291,14.024-14.024,14.024h-72.925c-7.733,0-14.024-6.291-14.024-14.024
			s6.291-14.024,14.024-14.024H263.461z M254.927,264.727h-55.855c3.62-11.996,14.768-20.756,27.927-20.756
			S251.305,252.733,254.927,264.727z"/>
	</g>
</g>
</svg>