<svg width="60" height="60" viewBox="0 0 60 60" fill="none" xmlns="http://www.w3.org/2000/svg">
<path fill-rule="evenodd" clip-rule="evenodd" d="M30.896 0.211933C30.6179 0.0725671 30.3111 0 30 0C29.6889 0 29.3821 0.0725671 29.104 0.211933L5.144 12.1919C4.80168 12.354 4.51243 12.61 4.30991 12.9301C4.10739 13.2502 3.99992 13.6212 4 13.9999V55.9999H0V59.9999H20V39.9999H40V59.9999H60V55.9999H56V13.9999C56.0001 13.6212 55.8926 13.2502 55.6901 12.9301C55.4876 12.61 55.1983 12.354 54.856 12.1919L30.896 0.211933ZM28 19.9999V11.9999H32V19.9999H40V23.9999H32V31.9999H28V23.9999H20V19.9999H28Z" fill="#C19238"/>
<path d="M36 60V44H24V60H36Z" fill="#C19238"/>
</svg>
