<svg width="66" height="52" viewBox="0 0 66 52" fill="none" xmlns="http://www.w3.org/2000/svg">
<path d="M41.9375 40.625H46.8125V35.75H49.25C50.1708 35.75 50.9433 35.438 51.5673 34.814C52.1913 34.19 52.5022 33.4187 52.5 32.5V19.5C52.5 18.5792 52.188 17.8068 51.564 17.1828C50.94 16.5588 50.1687 16.2478 49.25 16.25H39.5C38.5792 16.25 37.8068 16.562 37.1828 17.186C36.5588 17.81 36.2478 18.5813 36.25 19.5V32.5C36.25 33.4208 36.562 34.1933 37.186 34.8173C37.81 35.4413 38.5813 35.7522 39.5 35.75H41.9375V40.625ZM13.5 35.75H18.375V29.25H24.875V35.75H29.75V16.25H24.875V24.375H18.375V16.25H13.5V35.75ZM41.125 30.875V21.125H47.625V30.875H41.125ZM7.00001 52C5.21251 52 3.68176 51.363 2.40776 50.089C1.13376 48.815 0.497839 47.2853 0.500006 45.5V6.50001C0.500006 4.71251 1.13701 3.18176 2.41101 1.90776C3.68501 0.633755 5.21467 -0.00216115 7.00001 5.51783e-06H59C60.7875 5.51783e-06 62.3183 0.637005 63.5923 1.911C64.8663 3.185 65.5022 4.71467 65.5 6.50001V45.5C65.5 47.2875 64.863 48.8183 63.589 50.0923C62.315 51.3663 60.7853 52.0022 59 52H7.00001Z" fill="white"/>
</svg>
