<svg width="16" height="16" viewBox="0 0 16 16" fill="none" xmlns="http://www.w3.org/2000/svg">
<path d="M8.00009 5.39658C6.5665 5.39658 5.39658 6.5665 5.39658 8.00009C5.39658 9.43369 6.5665 10.6036 8.00009 10.6036C9.43369 10.6036 10.6036 9.43369 10.6036 8.00009C10.6036 6.5665 9.43369 5.39658 8.00009 5.39658ZM15.8087 8.00009C15.8087 6.92197 15.8185 5.85361 15.7579 4.77744C15.6974 3.52744 15.4122 2.41806 14.4981 1.504C13.5821 0.587983 12.4747 0.30478 11.2247 0.244233C10.1466 0.183686 9.07822 0.193452 8.00205 0.193452C6.92392 0.193452 5.85556 0.183686 4.77939 0.244233C3.52939 0.30478 2.42001 0.589936 1.50595 1.504C0.589936 2.42001 0.306733 3.52744 0.246186 4.77744C0.18564 5.85556 0.195405 6.92392 0.195405 8.00009C0.195405 9.07627 0.18564 10.1466 0.246186 11.2227C0.306733 12.4727 0.59189 13.5821 1.50595 14.4962C2.42197 15.4122 3.52939 15.6954 4.77939 15.756C5.85751 15.8165 6.92587 15.8067 8.00205 15.8067C9.08017 15.8067 10.1485 15.8165 11.2247 15.756C12.4747 15.6954 13.5841 15.4102 14.4981 14.4962C15.4142 13.5802 15.6974 12.4727 15.7579 11.2227C15.8204 10.1466 15.8087 9.07822 15.8087 8.00009ZM8.00009 12.006C5.7833 12.006 3.99423 10.2169 3.99423 8.00009C3.99423 5.7833 5.7833 3.99423 8.00009 3.99423C10.2169 3.99423 12.006 5.7833 12.006 8.00009C12.006 10.2169 10.2169 12.006 8.00009 12.006ZM12.17 4.76572C11.6524 4.76572 11.2345 4.34775 11.2345 3.83017C11.2345 3.31259 11.6524 2.89462 12.17 2.89462C12.6876 2.89462 13.1056 3.31259 13.1056 3.83017C13.1057 3.95307 13.0816 4.0748 13.0347 4.18837C12.9877 4.30195 12.9188 4.40514 12.8319 4.49205C12.745 4.57895 12.6418 4.64786 12.5282 4.69482C12.4146 4.74178 12.2929 4.76587 12.17 4.76572Z" fill="white"/>
</svg>
