<svg width="14" height="26" viewBox="0 0 14 26" fill="none" xmlns="http://www.w3.org/2000/svg">
<path d="M6.54296 0.8125V1.98758C6.6953 1.98352 6.84764 1.98047 6.99999 1.98047C7.15233 1.98047 7.30468 1.98352 7.45702 1.98758V0.8125H6.54296ZM6.99999 2.89453C5.02968 2.89453 3.24725 3.29164 1.9828 3.77813C1.35311 4.02137 0.850379 4.28898 0.525378 4.52156C0.241003 4.72824 0.164832 4.9141 0.149597 4.88414L0.499988 7.21094C1.78475 7.54609 2.95272 7.52578 4.09022 7.30742L4.26288 8.20117C3.13046 8.42461 1.93202 8.46523 0.647253 8.18594L1.79491 15.8387C2.4246 16.0926 3.25233 16.1434 3.96327 16.1586L3.94296 17.0727C3.36405 17.0625 2.64296 17.0422 1.94725 16.8543L2.09452 17.8445C2.33827 17.9512 2.80038 18.0883 3.25233 18.1645C3.83124 18.2559 4.46093 18.2762 4.60819 18.2559L4.74022 19.1598C4.32889 19.2207 3.74491 19.1699 3.10507 19.0633C2.81053 19.0176 2.52108 18.9668 2.25194 18.8906L2.56171 20.9473C2.66835 21.0945 3.18124 21.4094 3.9785 21.5922C4.81639 21.7852 5.90819 21.8867 6.99999 21.8867C8.09178 21.8867 9.18358 21.7852 10.0215 21.5922C10.8187 21.4094 11.3316 21.0945 11.4383 20.9473L11.616 19.7691C11.2758 19.8961 10.9152 19.9926 10.5547 20.0586C9.74218 20.2109 8.94999 20.2313 8.37108 20.1145L8.54374 19.2207C8.92968 19.2918 9.67616 19.2918 10.3871 19.1598C10.9101 19.0633 11.418 18.8855 11.7785 18.6723L12.6519 12.8629C10.2043 13.7414 8.44725 13.6398 6.76132 13.6043L6.78163 12.6902C8.60975 12.7309 10.2551 12.8527 12.8094 11.832L13.6371 6.30195C11.5551 7.33789 8.83319 7.3582 6.49725 7.15508L6.5785 6.24102C9.09725 6.46953 11.9969 6.3375 13.8098 5.14922L13.8504 4.88414C13.8351 4.9141 13.759 4.72824 13.4746 4.52156C13.1496 4.28898 12.6469 4.02137 12.0172 3.77813C10.7527 3.29164 8.9703 2.89453 6.99999 2.89453ZM3.13046 10.2578C3.43007 10.3289 4.27811 10.4 5.14139 10.4152C6.00467 10.4254 6.92889 10.3898 7.45194 10.3035L7.59413 11.2074C6.95429 11.309 6.02499 11.3395 5.13124 11.3293C4.23241 11.3141 3.41483 11.2684 2.91718 11.1516L3.13046 10.2578ZM10.5699 15.5543L10.7121 15.991L10.8543 16.4277C9.36639 16.9102 7.39608 17.0473 5.98944 16.768L6.07577 16.3211L6.1621 15.8742C7.3453 16.1027 9.27499 15.9758 10.5699 15.5543ZM6.54296 22.7957V25.1875H7.45702V22.7957C7.30468 22.8008 7.15233 22.8008 6.99999 22.8008C6.84764 22.8008 6.6953 22.8008 6.54296 22.7957Z" fill="#643303"/>
</svg>
