<svg width="45" height="45" viewBox="0 0 45 45" fill="none" xmlns="http://www.w3.org/2000/svg">
<path d="M12.4375 27.0313L22.5781 16.8906M17.9688 32.5625L22.5781 27.9531M2.13831 22.5804L22.4196 2.29919C23.1109 1.6076 24.0487 1.21896 25.0266 1.21875H40.0938C41.0717 1.21875 42.0097 1.60725 42.7012 2.29879C43.3927 2.99033 43.7813 3.92826 43.7813 4.90625V19.9734C43.781 20.9513 43.3924 21.8891 42.7008 22.5804L22.4196 42.8617C21.7281 43.553 20.7903 43.9413 19.8125 43.9413C18.8347 43.9413 17.8969 43.553 17.2054 42.8617L2.13831 27.7946C1.44701 27.1031 1.05866 26.1653 1.05866 25.1875C1.05866 24.2097 1.44701 23.2719 2.13831 22.5804Z" stroke="#06962E" stroke-linecap="round" stroke-linejoin="round"/>
</svg>
