<svg width="7" height="12" viewBox="0 0 7 12" fill="none" xmlns="http://www.w3.org/2000/svg">
<path d="M4.90002 11.2999L0.300024 6.69993C0.200024 6.59993 0.129357 6.49159 0.0880241 6.37493C0.0460241 6.25826 0.0250244 6.13326 0.0250244 5.99993C0.0250244 5.86659 0.0460241 5.74159 0.0880241 5.62493C0.129357 5.50826 0.200024 5.39993 0.300024 5.29993L4.90002 0.699926C5.08336 0.516593 5.31669 0.424927 5.60002 0.424927C5.88336 0.424927 6.11669 0.516593 6.30002 0.699926C6.48336 0.88326 6.57502 1.11659 6.57502 1.39993C6.57502 1.68326 6.48336 1.91659 6.30002 2.09993L2.40002 5.99993L6.30002 9.89993C6.48336 10.0833 6.57502 10.3166 6.57502 10.5999C6.57502 10.8833 6.48336 11.1166 6.30002 11.2999C6.11669 11.4833 5.88336 11.5749 5.60002 11.5749C5.31669 11.5749 5.08336 11.4833 4.90002 11.2999V11.2999Z" fill="white"/>
</svg>
