<svg width="134" height="134" viewBox="0 0 134 134" fill="none" xmlns="http://www.w3.org/2000/svg">
<path fill-rule="evenodd" clip-rule="evenodd" d="M23.341 60.7049C18.9527 61.295 16.7596 62.3571 15.2277 63.8907L15.2235 63.895C13.6899 65.4268 12.6277 67.62 12.0376 72.0082C11.4272 76.5471 11.416 82.583 11.416 91.3333C11.416 100.084 11.4272 106.12 12.0376 110.658C12.6277 115.047 13.6899 117.24 15.2235 118.772L15.2277 118.776C16.7596 120.309 18.9527 121.372 23.341 121.962C27.8798 122.572 33.9158 122.583 42.666 122.583H91.3327C100.083 122.583 106.119 122.572 110.658 121.962C115.046 121.372 117.239 120.309 118.771 118.776L118.775 118.772C120.309 117.24 121.371 115.047 121.961 110.658C122.572 106.12 122.583 100.084 122.583 91.3333C122.583 82.583 122.572 76.5471 121.961 72.0082C121.371 67.62 120.309 65.4268 118.775 63.895L118.771 63.8907C117.239 62.3571 115.046 61.295 110.658 60.7049C106.119 60.0944 100.083 60.0833 91.3327 60.0833H42.666C33.9158 60.0833 27.8798 60.0944 23.341 60.7049ZM42.2882 49.5833H91.7106C99.9911 49.5831 106.737 49.583 112.057 50.2985C117.608 51.0451 122.389 52.6561 126.198 56.4682C130.01 60.2772 131.621 65.0578 132.367 70.6087C133.083 75.9293 133.083 82.6748 133.083 90.9552V91.7114C133.083 99.9918 133.083 106.737 132.367 112.058C131.621 117.609 130.01 122.389 126.198 126.198C122.389 130.01 117.608 131.622 112.057 132.368C106.737 133.084 99.991 133.083 91.7105 133.083H42.2882C34.0077 133.083 27.2621 133.084 21.9415 132.368C16.3906 131.622 11.6099 130.01 7.80096 126.198C3.98885 122.389 2.37779 117.609 1.63127 112.058C0.915723 106.737 0.915857 99.9917 0.916021 91.7112V90.9554C0.915857 82.6749 0.915723 75.9294 1.63127 70.6087C2.37779 65.0578 3.98885 60.2772 7.80096 56.4682C11.6099 52.6561 16.3906 51.0451 21.9415 50.2985C27.2621 49.583 34.0077 49.5831 42.2882 49.5833Z" fill="white"/>
<path fill-rule="evenodd" clip-rule="evenodd" d="M66.9994 11.4166C58.7113 11.4166 50.7628 14.709 44.9023 20.5695C39.0418 26.4301 35.7494 34.3786 35.7494 42.6666V54.8333C35.7494 57.7328 33.3989 60.0833 30.4994 60.0833C27.5999 60.0833 25.2494 57.7328 25.2494 54.8333V42.6666C25.2494 31.5938 29.648 20.9746 37.4777 13.1449C45.3073 5.31527 55.9266 0.916626 66.9994 0.916626C78.0721 0.916626 88.6914 5.31527 96.5211 13.1449C104.351 20.9746 108.749 31.5938 108.749 42.6666V54.8333C108.749 57.7328 106.399 60.0833 103.499 60.0833C100.6 60.0833 98.2494 57.7328 98.2494 54.8333V42.6666C98.2494 34.3786 94.957 26.43 89.0965 20.5695C83.2359 14.709 75.2874 11.4166 66.9994 11.4166Z" fill="white"/>
</svg>
