<svg width="22" height="21" viewBox="0 0 22 21" fill="none" xmlns="http://www.w3.org/2000/svg">
<path d="M2 19H20V21H2V19ZM20 18H2L1.147 6.81C0.823133 6.65728 0.546204 6.42042 0.345128 6.12414C0.144052 5.82787 0.0262038 5.48304 0.00388837 5.12567C-0.0184271 4.7683 0.0556087 4.41149 0.218265 4.0925C0.380922 3.77351 0.626234 3.50404 0.928587 3.31222C1.23094 3.1204 1.57925 3.01327 1.93714 3.00201C2.29503 2.99076 2.64937 3.07579 2.96318 3.24823C3.27699 3.42068 3.53875 3.6742 3.72113 3.98234C3.90351 4.29048 3.99982 4.64193 4 5C3.99989 5.10047 3.99186 5.20079 3.976 5.3L6.713 7.489L9.275 3.003C9.09413 2.69977 8.99907 2.35308 9 2C9 1.46957 9.21071 0.960859 9.58579 0.585786C9.96086 0.210714 10.4696 0 11 0C11.5304 0 12.0391 0.210714 12.4142 0.585786C12.7893 0.960859 13 1.46957 13 2C13.0009 2.35352 12.9055 2.70062 12.724 3.004L15.282 7.489L18.023 5.299C18.0075 5.20009 17.9998 5.10012 18 5C18.0002 4.64193 18.0965 4.29048 18.2789 3.98234C18.4613 3.6742 18.723 3.42068 19.0368 3.24823C19.3506 3.07579 19.705 2.99076 20.0629 3.00201C20.4208 3.01327 20.7691 3.1204 21.0714 3.31222C21.3738 3.50404 21.6191 3.77351 21.7817 4.0925C21.9444 4.41149 22.0184 4.7683 21.9961 5.12567C21.9738 5.48304 21.8559 5.82787 21.6549 6.12414C21.4538 6.42042 21.1769 6.65728 20.853 6.81L20 18ZM3.92 16H18.08L18.81 7.23L14.704 10.511L11 4.017L7.29 10.511L3.19 7.231L3.92 16Z" fill="#515151"/>
</svg>
