<svg width="25" height="15" viewBox="0 0 25 15" fill="none" xmlns="http://www.w3.org/2000/svg">
<path d="M16.4062 7.5C16.4062 8.27258 16.1772 9.02782 15.7479 9.6702C15.3187 10.3126 14.7086 10.8132 13.9949 11.1089C13.2811 11.4046 12.4957 11.4819 11.7379 11.3312C10.9802 11.1805 10.2842 10.8084 9.73786 10.2621C9.19157 9.71584 8.81953 9.01981 8.66881 8.26207C8.51808 7.50433 8.59544 6.71892 8.8911 6.00514C9.18675 5.29137 9.68742 4.6813 10.3298 4.25207C10.9722 3.82285 11.7274 3.59375 12.5 3.59375C13.536 3.59375 14.5296 4.0053 15.2621 4.73786C15.9947 5.47043 16.4062 6.464 16.4062 7.5ZM24.2188 1.25V13.75C24.2188 13.9572 24.1364 14.1559 23.9899 14.3024C23.8434 14.4489 23.6447 14.5312 23.4375 14.5312H1.5625C1.3553 14.5312 1.15659 14.4489 1.01007 14.3024C0.86356 14.1559 0.78125 13.9572 0.78125 13.75V1.25C0.78125 1.0428 0.86356 0.844086 1.01007 0.697573C1.15659 0.55106 1.3553 0.46875 1.5625 0.46875H23.4375C23.6447 0.46875 23.8434 0.55106 23.9899 0.697573C24.1364 0.844086 24.2188 1.0428 24.2188 1.25ZM22.6562 5.77637C21.7691 5.51407 20.9618 5.03399 20.3076 4.37987C19.6535 3.72574 19.1734 2.91836 18.9111 2.03125H6.08887C5.82657 2.91836 5.34649 3.72574 4.69237 4.37987C4.03824 5.03399 3.23086 5.51407 2.34375 5.77637V9.22363C3.23086 9.48593 4.03824 9.96601 4.69237 10.6201C5.34649 11.2743 5.82657 12.0816 6.08887 12.9688H18.9111C19.1734 12.0816 19.6535 11.2743 20.3076 10.6201C20.9618 9.96601 21.7691 9.48593 22.6562 9.22363V5.77637Z" fill="#643303"/>
</svg>
