<svg width="21" height="21" viewBox="0 0 21 21" fill="none" xmlns="http://www.w3.org/2000/svg">
<path d="M10.5 20.625C7.66875 20.625 5.27325 19.6451 3.3135 17.6853C1.35375 15.7256 0.37425 13.3305 0.375 10.5C0.375 7.91245 1.21875 5.66695 2.90625 3.76345C4.59375 1.85995 6.75 0.749201 9.375 0.431201C9.84375 0.374951 10.2094 0.543701 10.4719 0.937451C10.7344 1.3312 10.725 1.7437 10.4438 2.17495C10.125 2.66245 9.88575 3.17808 9.726 3.72183C9.56625 4.26558 9.48675 4.83745 9.4875 5.43745C9.4875 7.12495 10.0781 8.55933 11.2594 9.74058C12.4406 10.9218 13.875 11.5125 15.5625 11.5125C16.1438 11.5125 16.7205 11.4281 17.2928 11.2593C17.865 11.0906 18.3758 10.8562 18.825 10.5562C19.2188 10.2937 19.6219 10.2798 20.0344 10.5146C20.4469 10.7493 20.625 11.1195 20.5688 11.625C20.3063 14.2125 19.2049 16.3593 17.2646 18.0656C15.3244 19.7718 13.0695 20.625 10.5 20.625Z" fill="white"/>
</svg>
