<svg width="34" height="28" viewBox="0 0 34 28" fill="none" xmlns="http://www.w3.org/2000/svg">
<path d="M4.84321 2.97258L4.74855 2.59381H4.35812H1.375C1.15122 2.59381 0.936613 2.50491 0.778379 2.34668C0.620145 2.18844 0.53125 1.97383 0.53125 1.75006C0.53125 1.52628 0.620145 1.31167 0.778379 1.15344C0.936613 0.995202 1.15122 0.906307 1.375 0.906307H4.35812V0.906317L4.36138 0.906296C4.84631 0.903135 5.31827 1.0628 5.70168 1.35971C6.08501 1.65655 6.35766 2.07342 6.47599 2.54358C6.47602 2.54369 6.47605 2.54379 6.47607 2.5439L10.0005 16.6525L10.0952 17.0313H10.4856H27.2422H27.6261L27.7252 16.6604L30.8591 4.93756H32.6349L29.3236 17.1121C29.3236 17.1121 29.3236 17.1122 29.3236 17.1123C29.0629 18.0688 28.226 18.7188 27.2435 18.7188H25.5625H13.4688H10.487C9.47954 18.7188 8.61195 18.0508 8.36913 17.0817L4.84321 2.97258ZM9.9375 23.2501C9.9375 21.3157 11.5344 19.7188 13.4688 19.7188C15.4031 19.7188 17 21.3157 17 23.2501C17 25.1844 15.4031 26.7813 13.4688 26.7813C11.5344 26.7813 9.9375 25.1844 9.9375 23.2501ZM22.0312 23.2501C22.0312 21.3157 23.6282 19.7188 25.5625 19.7188C27.4968 19.7188 29.0938 21.3157 29.0938 23.2501C29.0938 25.1844 27.4968 26.7813 25.5625 26.7813C23.6282 26.7813 22.0312 25.1844 22.0312 23.2501ZM17.5 7.62506H18V7.12506V0.906307H19.6875V7.12506V7.62506H20.1875H23.0116L18.8438 11.7929L14.6759 7.62506H17.5ZM15.3125 23.2501C15.3125 22.216 14.5028 21.4063 13.4688 21.4063C12.4347 21.4063 11.625 22.216 11.625 23.2501C11.625 24.2841 12.4347 25.0938 13.4688 25.0938C14.5028 25.0938 15.3125 24.2841 15.3125 23.2501ZM27.4062 23.2501C27.4062 22.216 26.5965 21.4063 25.5625 21.4063C24.5285 21.4063 23.7188 22.216 23.7188 23.2501C23.7188 24.2841 24.5285 25.0938 25.5625 25.0938C26.5965 25.0938 27.4062 24.2841 27.4062 23.2501Z" stroke="#008AC5"/>
</svg>
