<svg width="39" height="39" viewBox="0 0 39 39" fill="none" xmlns="http://www.w3.org/2000/svg">
<path d="M38.25 12C38.2682 11.8694 38.2682 11.7369 38.25 11.6062V11.4562C38.2178 11.3516 38.1737 11.2509 38.1188 11.1562C38.0944 11.1022 38.0629 11.0518 38.025 11.0062L37.8375 10.7625L37.6875 10.65L37.4625 10.4812L20.5875 1.10624C20.3025 0.941678 19.9791 0.855042 19.65 0.855042C19.3209 0.855042 18.9975 0.941678 18.7125 1.10624L1.8375 10.4812L1.66875 10.6125L1.4625 10.7625C1.40803 10.8238 1.36372 10.8934 1.33125 10.9687C1.27126 11.0226 1.22058 11.0859 1.18125 11.1562C1.13257 11.2385 1.09475 11.3268 1.06875 11.4187C1.05826 11.4808 1.05826 11.5442 1.06875 11.6062C0.939836 11.7174 0.83188 11.8508 0.75 12V27C0.752433 27.3341 0.844102 27.6615 1.01552 27.9483C1.18694 28.2351 1.43188 28.4709 1.725 28.6312L18.6 38.0062C18.6775 38.0514 18.7591 38.0891 18.8438 38.1187H19.0312C19.3393 38.1935 19.6607 38.1935 19.9688 38.1187H20.1562L20.4187 38.0062L37.2938 28.6312C37.5834 28.4684 37.8245 28.2316 37.9926 27.945C38.1606 27.6584 38.2494 27.3322 38.25 27V12ZM19.5 19.2562L6.4875 12L11.6625 9.14999L24.4688 16.4625L19.5 19.2562ZM19.5 4.78124L32.5125 12L28.3125 14.3437L15.5062 7.01249L19.5 4.78124ZM4.5 15.1875L17.625 22.5375V33.1875L4.5 25.8937V15.1875ZM21.375 33.1875V22.5375L27 19.3875V25.125L30.75 23.25V17.2875L34.5 15.2062V25.8937L21.375 33.1875Z" fill="#06962E"/>
</svg>
