<?xml version="1.0" encoding="utf-8"?><!-- Uploaded to: SVG Repo, www.svgrepo.com, Generator: SVG Repo Mixer Tools -->
<svg width="800px" height="800px" viewBox="0 0 24 24" fill="none" xmlns="http://www.w3.org/2000/svg">
<path fill-rule="evenodd" clip-rule="evenodd" d="M11 6C9.34315 6 8 7.34315 8 9V17C8 17.5523 8.44772 18 9 18C9.55229 18 10 17.5523 10 17V14L12.0045 14C12.2149 13.9987 12.426 13.974 12.6332 13.9395C12.9799 13.8817 13.4575 13.7642 13.9472 13.5194C14.4409 13.2725 14.9649 12.8866 15.3633 12.289C15.7659 11.6851 16 10.9249 16 9.99996C16 9.07499 15.7659 8.31478 15.3633 7.71092C14.9649 7.11332 14.4408 6.7274 13.9472 6.48058C13.4575 6.23573 12.9799 6.11828 12.6332 6.06049C12.4248 6.02575 12.2117 6.0001 12 6H11ZM10 12V9C10 8.44772 10.4477 8 11 8L12.0004 8.00018C12.3603 8.01218 12.7318 8.10893 13.0528 8.26944C13.3092 8.39762 13.5351 8.5742 13.6992 8.82033C13.8591 9.06021 14 9.42497 14 9.99996C14 10.575 13.8591 10.9397 13.6992 11.1796C13.5351 11.4258 13.3091 11.6023 13.0528 11.7305C12.7318 11.891 12.3603 11.9878 12.0003 11.9998L10 12Z" fill="#0F0F0F"/>
<path fill-rule="evenodd" clip-rule="evenodd" d="M20 1C21.6569 1 23 2.34315 23 4V20C23 21.6569 21.6569 23 20 23H4C2.34315 23 1 21.6569 1 20V4C1 2.34315 2.34315 1 4 1H20ZM20 3C20.5523 3 21 3.44772 21 4V20C21 20.5523 20.5523 21 20 21H4C3.44772 21 3 20.5523 3 20V4C3 3.44772 3.44772 3 4 3H20Z" fill="#0F0F0F"/>
</svg>