<svg width="28" height="28" viewBox="0 0 28 28" fill="none" xmlns="http://www.w3.org/2000/svg">
<path d="M14 14C12.075 14 10.4271 13.3146 9.05625 11.9437C7.68542 10.5729 7 8.925 7 7C7 5.075 7.68542 3.42708 9.05625 2.05625C10.4271 0.685417 12.075 0 14 0C15.925 0 17.5729 0.685417 18.9438 2.05625C20.3146 3.42708 21 5.075 21 7C21 8.925 20.3146 10.5729 18.9438 11.9437C17.5729 13.3146 15.925 14 14 14ZM0 28V23.1C0 22.1083 0.2555 21.1966 0.7665 20.3647C1.2775 19.5329 1.95533 18.8988 2.8 18.4625C4.60833 17.5583 6.44583 16.8799 8.3125 16.4272C10.1792 15.9746 12.075 15.7488 14 15.75C15.925 15.75 17.8208 15.9763 19.6875 16.429C21.5542 16.8817 23.3917 17.5595 25.2 18.4625C26.0458 18.9 26.7242 19.5347 27.2352 20.3665C27.7463 21.1983 28.0012 22.1095 28 23.1V28H0ZM3.5 24.5H24.5V23.1C24.5 22.7792 24.4195 22.4875 24.2585 22.225C24.0975 21.9625 23.8863 21.7583 23.625 21.6125C22.05 20.825 20.4604 20.2347 18.8562 19.8415C17.2521 19.4483 15.6333 19.2512 14 19.25C12.3667 19.25 10.7479 19.4472 9.14375 19.8415C7.53958 20.2358 5.95 20.8262 4.375 21.6125C4.1125 21.7583 3.90075 21.9625 3.73975 22.225C3.57875 22.4875 3.49883 22.7792 3.5 23.1V24.5ZM14 10.5C14.9625 10.5 15.7867 10.157 16.4727 9.471C17.1588 8.785 17.5012 7.96133 17.5 7C17.5 6.0375 17.157 5.21325 16.471 4.52725C15.785 3.84125 14.9613 3.49883 14 3.5C13.0375 3.5 12.2133 3.843 11.5273 4.529C10.8412 5.215 10.4988 6.03867 10.5 7C10.5 7.9625 10.843 8.78675 11.529 9.47275C12.215 10.1588 13.0387 10.5012 14 10.5Z" fill="#5F5F5F"/>
</svg>
