<svg width="21" height="20" viewBox="0 0 21 20" fill="none" xmlns="http://www.w3.org/2000/svg">
<path d="M10.5 19.95C10.1437 19.95 9.79686 19.8656 9.45936 19.6969C9.12186 19.5281 8.84061 19.275 8.61561 18.9375L0.515613 6.75938C0.159363 6.21563 0.0326124 5.62012 0.135362 4.97287C0.238112 4.32562 0.542987 3.834 1.04999 3.498C2.45624 2.541 3.95624 1.78125 5.54999 1.21875C7.14374 0.65625 8.79374 0.375 10.5 0.375C12.2062 0.375 13.8562 0.65175 15.45 1.20525C17.0437 1.75875 18.5437 2.52263 19.95 3.49688C20.4375 3.83438 20.7375 4.32675 20.85 4.974C20.9625 5.62125 20.8406 6.21638 20.4844 6.75938L12.3844 18.9375C12.1594 19.275 11.8781 19.5281 11.5406 19.6969C11.2031 19.8656 10.8562 19.95 10.5 19.95ZM7.68749 8.25C8.15624 8.25 8.55486 8.08575 8.88336 7.75725C9.21186 7.42875 9.37574 7.0305 9.37499 6.5625C9.37499 6.09375 9.21074 5.69512 8.88224 5.36662C8.55374 5.03812 8.15549 4.87425 7.68749 4.875C7.21874 4.875 6.82011 5.03925 6.49161 5.36775C6.16311 5.69625 5.99924 6.0945 5.99999 6.5625C5.99999 7.03125 6.16424 7.42987 6.49274 7.75837C6.82124 8.08687 7.21949 8.25075 7.68749 8.25ZM10.5 13.875C10.9687 13.875 11.3674 13.7108 11.6959 13.3822C12.0244 13.0538 12.1882 12.6555 12.1875 12.1875C12.1875 11.7188 12.0232 11.3201 11.6947 10.9916C11.3662 10.6631 10.968 10.4993 10.5 10.5C10.0312 10.5 9.63261 10.6642 9.30411 10.9928C8.97561 11.3212 8.81174 11.7195 8.81249 12.1875C8.81249 12.6562 8.97674 13.0549 9.30524 13.3834C9.63374 13.7119 10.032 13.8757 10.5 13.875Z" fill="#643303"/>
</svg>
