<svg width="20" height="20" viewBox="0 0 20 20" fill="none" xmlns="http://www.w3.org/2000/svg">
<path d="M5.83325 12.5H7.49992C7.49992 13.4 8.64159 14.1667 9.99992 14.1667C11.3583 14.1667 12.4999 13.4 12.4999 12.5C12.4999 11.5833 11.6333 11.25 9.79992 10.8083C8.03325 10.3667 5.83325 9.81667 5.83325 7.5C5.83325 6.00833 7.05825 4.74167 8.74992 4.31667V2.5H11.2499V4.31667C12.9416 4.74167 14.1666 6.00833 14.1666 7.5H12.4999C12.4999 6.6 11.3583 5.83333 9.99992 5.83333C8.64159 5.83333 7.49992 6.6 7.49992 7.5C7.49992 8.41667 8.36658 8.75 10.1999 9.19167C11.9666 9.63333 14.1666 10.1833 14.1666 12.5C14.1666 13.9917 12.9416 15.2583 11.2499 15.6833V17.5H8.74992V15.6833C7.05825 15.2583 5.83325 13.9917 5.83325 12.5Z" fill="black"/>
</svg>
