<svg width="41" height="41" viewBox="0 0 41 41" fill="none" xmlns="http://www.w3.org/2000/svg">
<path d="M11.9587 17.0834C11.6208 17.0834 11.2905 17.1836 11.0096 17.3713C10.7286 17.559 10.5097 17.8258 10.3804 18.138C10.2511 18.4502 10.2172 18.7936 10.2832 19.125C10.3491 19.4564 10.5118 19.7608 10.7507 19.9997C10.9896 20.2386 11.294 20.4013 11.6254 20.4673C11.9568 20.5332 12.3003 20.4993 12.6124 20.37C12.9246 20.2407 13.1914 20.0218 13.3791 19.7408C13.5668 19.4599 13.667 19.1296 13.667 18.7917C13.667 18.3387 13.487 17.9041 13.1666 17.5838C12.8463 17.2634 12.4117 17.0834 11.9587 17.0834ZM32.4587 10.2501H30.7503V5.12508C30.7503 4.672 30.5703 4.23748 30.25 3.91711C29.9296 3.59673 29.4951 3.41675 29.042 3.41675H11.9587C11.5056 3.41675 11.0711 3.59673 10.7507 3.91711C10.4303 4.23748 10.2503 4.672 10.2503 5.12508V10.2501H8.54199C7.18276 10.2501 5.87919 10.79 4.91807 11.7512C3.95695 12.7123 3.41699 14.0158 3.41699 15.3751V25.6251C3.41699 26.9843 3.95695 28.2879 4.91807 29.249C5.87919 30.2101 7.18276 30.7501 8.54199 30.7501H10.2503V35.8751C10.2503 36.3282 10.4303 36.7627 10.7507 37.0831C11.0711 37.4034 11.5056 37.5834 11.9587 37.5834H29.042C29.4951 37.5834 29.9296 37.4034 30.25 37.0831C30.5703 36.7627 30.7503 36.3282 30.7503 35.8751V30.7501H32.4587C33.8179 30.7501 35.1215 30.2101 36.0826 29.249C37.0437 28.2879 37.5837 26.9843 37.5837 25.6251V15.3751C37.5837 14.0158 37.0437 12.7123 36.0826 11.7512C35.1215 10.79 33.8179 10.2501 32.4587 10.2501ZM13.667 6.83341H27.3337V10.2501H13.667V6.83341ZM27.3337 34.1667H13.667V27.3334H27.3337V34.1667ZM34.167 25.6251C34.167 26.0782 33.987 26.5127 33.6666 26.8331C33.3463 27.1534 32.9117 27.3334 32.4587 27.3334H30.7503V25.6251C30.7503 25.172 30.5703 24.7375 30.25 24.4171C29.9296 24.0967 29.4951 23.9167 29.042 23.9167H11.9587C11.5056 23.9167 11.0711 24.0967 10.7507 24.4171C10.4303 24.7375 10.2503 25.172 10.2503 25.6251V27.3334H8.54199C8.08891 27.3334 7.65439 27.1534 7.33402 26.8331C7.01364 26.5127 6.83366 26.0782 6.83366 25.6251V15.3751C6.83366 14.922 7.01364 14.4875 7.33402 14.1671C7.65439 13.8467 8.08891 13.6667 8.54199 13.6667H32.4587C32.9117 13.6667 33.3463 13.8467 33.6666 14.1671C33.987 14.4875 34.167 14.922 34.167 15.3751V25.6251Z" fill="white"/>
</svg>
