<svg width="49" height="46" viewBox="0 0 49 46" fill="none" xmlns="http://www.w3.org/2000/svg">
<path d="M48.5625 45.5625H34.8125V0.875H48.5625V45.5625ZM38.25 42.125H45.125V4.3125H38.25V42.125ZM31.375 45.5625H17.625V14.625H31.375V45.5625ZM21.0625 42.125H27.9375V18.0625H21.0625V42.125ZM14.1875 45.5625H0.4375V24.9375H14.1875V45.5625ZM3.875 42.125H10.75V28.375H3.875V42.125Z" fill="#06962E"/>
<path fill-rule="evenodd" clip-rule="evenodd" d="M37.25 43.125V3.3125H46.125V43.125H37.25ZM20.0625 43.125V17.0625H28.9375V43.125H20.0625ZM2.875 43.125V27.375H11.75V43.125H2.875ZM35.8125 44.5625H47.5625V1.875H35.8125V44.5625ZM45.125 42.125H38.25V4.3125H45.125V42.125ZM18.625 44.5625H30.375V15.625H18.625V44.5625ZM27.9375 42.125H21.0625V18.0625H27.9375V42.125ZM1.4375 44.5625H13.1875V25.9375H1.4375V44.5625ZM10.75 42.125H3.875V28.375H10.75V42.125ZM48.5625 45.5625V0.875H34.8125V45.5625H48.5625ZM31.375 45.5625V14.625H17.625V45.5625H31.375ZM14.1875 45.5625V24.9375H0.4375V45.5625H14.1875Z" fill="white"/>
</svg>
