<svg width="20" height="20" viewBox="0 0 20 20" fill="none" xmlns="http://www.w3.org/2000/svg">
<path d="M14.0408 0.25H5.95917L0.25 5.95917V14.0408L5.95917 19.75H14.0408L19.75 14.0408V5.95917L14.0408 0.25ZM17.5833 13.1417L13.1417 17.5833H6.85833L2.41667 13.1417V6.85833L6.85833 2.41667H13.1417L17.5833 6.85833V13.1417Z" fill="#2BBF8D"/>
<path d="M9.99984 15.4167C10.5981 15.4167 11.0832 14.9316 11.0832 14.3333C11.0832 13.735 10.5981 13.25 9.99984 13.25C9.40153 13.25 8.9165 13.735 8.9165 14.3333C8.9165 14.9316 9.40153 15.4167 9.99984 15.4167Z" fill="#2BBF8D"/>
<path d="M8.9165 4.58337H11.0832V12.1667H8.9165V4.58337Z" fill="#2BBF8D"/>
</svg>
