<svg width="50" height="50" viewBox="0 0 50 50" fill="none" xmlns="http://www.w3.org/2000/svg">
<path d="M33.9996 32.6054L34.1448 32.7454H34.3465H36.4557L48.7439 45.0843L48.7447 45.0852C49.7518 46.0916 49.7518 47.7386 48.7447 48.7451C47.7375 49.7516 46.089 49.7516 45.0819 48.7451L32.7643 36.4347V34.3264V34.1245L32.6241 33.9792L31.8323 33.1585L31.5044 32.8187L31.1464 33.1267C29.073 34.9104 26.6307 36.214 23.9943 36.9442C21.3579 37.6745 18.5926 37.8133 15.8962 37.3508L15.895 37.3506C7.95951 36.0098 1.61754 29.3853 0.647215 21.3989L0.6469 21.3965C0.291258 18.5869 0.58342 15.7333 1.50103 13.054C2.41865 10.3746 3.9374 7.94056 5.9411 5.93803C7.9448 3.93551 10.3803 2.4176 13.0614 1.50049C15.7424 0.583377 18.5978 0.29137 21.4091 0.646827L21.4116 0.647129C29.4031 1.61695 36.0313 7.95544 37.3728 15.8858L37.373 15.887C37.8358 18.5817 37.6969 21.3453 36.9662 23.98C36.2356 26.6147 34.9312 29.0555 33.1465 31.1277L32.838 31.4859L33.1784 31.814L33.9996 32.6054ZM5.36969 19.0558C5.36969 26.6305 11.4886 32.7454 19.067 32.7454C26.6454 32.7454 32.7643 26.6305 32.7643 19.0558C32.7643 11.4812 26.6454 5.36625 19.067 5.36625C11.4886 5.36625 5.36969 11.4812 5.36969 19.0558Z" fill="white" stroke="#06962E"/>
</svg>
