<svg width="7" height="12" viewBox="0 0 7 12" fill="none" xmlns="http://www.w3.org/2000/svg">
<path d="M1.70001 0.699953L6.30001 5.29995C6.40001 5.39995 6.47068 5.50828 6.51201 5.62495C6.55401 5.74162 6.57501 5.86662 6.57501 5.99995C6.57501 6.13328 6.55401 6.25828 6.51201 6.37495C6.47068 6.49162 6.40001 6.59995 6.30001 6.69995L1.70001 11.3C1.51668 11.4833 1.28335 11.575 1.00001 11.575C0.716679 11.575 0.483346 11.4833 0.300013 11.3C0.116679 11.1166 0.025012 10.8833 0.0250119 10.6C0.0250119 10.3166 0.116679 10.0833 0.300012 9.89995L4.20001 5.99995L0.300012 2.09995C0.116678 1.91662 0.0250112 1.68328 0.0250111 1.39995C0.0250111 1.11662 0.116678 0.883286 0.300012 0.699953C0.483345 0.516619 0.716678 0.424951 1.00001 0.424951C1.28334 0.424951 1.51668 0.516619 1.70001 0.699953V0.699953Z" fill="white"/>
</svg>
