<?xml version="1.0" encoding="utf-8"?><!-- Uploaded to: SVG Repo, www.svgrepo.com, Generator: SVG Repo Mixer Tools -->
<svg version="1.1" id="Uploaded to svgrepo.com" xmlns="http://www.w3.org/2000/svg" xmlns:xlink="http://www.w3.org/1999/xlink" 
	 width="800px" height="800px" viewBox="0 0 32 32" xml:space="preserve">
<style type="text/css">
	.stone_een{fill:#0B1719;}
	.st0{fill:#0B1719;}
</style>
<path class="stone_een" d="M16.855,1.745c-0.047-0.043-0.115-0.103-0.192-0.172c-0.378-0.335-0.947-0.335-1.325,0
	c-0.077,0.068-0.145,0.129-0.192,0.171C12.582,4.07,5,11.577,5,18.996c0,4.048,5.011,6.721,7.998,7.953
	c0.458,0.189,1.789,0.93,2.502,1.334v2.213c0,0.276,0.224,0.5,0.5,0.5s0.5-0.224,0.5-0.5v-2.213
	c0.713-0.404,2.043-1.145,2.502-1.333C21.989,25.717,27,23.045,27,18.996C27,11.578,19.419,4.071,16.855,1.745z M25.428,16.923
	L16.5,22.279v4.356c0,0.276-0.224,0.5-0.5,0.5s-0.5-0.224-0.5-0.5v-4.356l-8.928-5.357c-0.188-0.113-0.281-0.335-0.228-0.548l0,0
	c0.08-0.327,0.454-0.482,0.743-0.309l8.413,5.048v-5.834l-6.508-3.904c-0.241-0.144-0.315-0.459-0.165-0.696v0
	c0.145-0.229,0.447-0.301,0.68-0.161l5.993,3.596V9.279l-3.426-2.056c-0.265-0.159-0.324-0.518-0.123-0.754
	c0.159-0.186,0.428-0.229,0.637-0.104L15.5,8.113V3.276c0-0.276,0.224-0.5,0.5-0.5h0c0.276,0,0.5,0.224,0.5,0.5v4.837l2.912-1.747
	c0.209-0.126,0.479-0.082,0.637,0.104c0.201,0.235,0.142,0.594-0.123,0.754L16.5,9.279v4.834l5.993-3.596
	c0.233-0.14,0.535-0.068,0.68,0.161c0.15,0.237,0.075,0.552-0.165,0.696L16.5,15.279v5.834l8.413-5.048
	c0.289-0.173,0.662-0.018,0.743,0.309v0C25.709,16.587,25.616,16.81,25.428,16.923z"/>
</svg>