<svg width="18" height="18" viewBox="0 0 18 18" fill="none" xmlns="http://www.w3.org/2000/svg">
<path d="M1 18C0.71667 18 0.479003 17.904 0.287003 17.712C0.0950034 17.52 -0.000663206 17.2827 3.46021e-06 17C3.46021e-06 16.7167 0.0960036 16.479 0.288004 16.287C0.480004 16.095 0.717337 15.9993 1 16H2V1C2 0.71667 2.096 0.479003 2.288 0.287003C2.48 0.0950034 2.71734 -0.000663206 3 3.46021e-06H11C11.2833 3.46021e-06 11.521 0.0960036 11.713 0.288004C11.905 0.480004 12.0007 0.717337 12 1H15C15.2833 1 15.521 1.096 15.713 1.288C15.905 1.48 16.0007 1.71734 16 2V16H17C17.2833 16 17.521 16.096 17.713 16.288C17.905 16.48 18.0007 16.7173 18 17C18 17.2833 17.904 17.521 17.712 17.713C17.52 17.905 17.2827 18.0007 17 18H15C14.7167 18 14.479 17.904 14.287 17.712C14.095 17.52 13.9993 17.2827 14 17V3H12V17C12 17.2833 11.904 17.521 11.712 17.713C11.52 17.905 11.2827 18.0007 11 18H1ZM9 9C9 8.71667 8.904 8.479 8.712 8.287C8.52 8.095 8.28267 7.99934 8 8C7.71667 8 7.479 8.096 7.287 8.288C7.095 8.48 6.99934 8.71734 7 9C7 9.28334 7.096 9.521 7.288 9.713C7.48 9.905 7.71734 10.0007 8 10C8.28334 10 8.521 9.904 8.713 9.712C8.905 9.52 9.00067 9.28267 9 9ZM4 16H10V2H4V16Z" fill="white"/>
</svg>
