<svg width="16" height="15" viewBox="0 0 16 15" fill="none" xmlns="http://www.w3.org/2000/svg">
<path fill-rule="evenodd" clip-rule="evenodd" d="M1 0.5C1.27614 0.5 1.5 0.723858 1.5 1V2.02941H14.5V1C14.5 0.723858 14.7239 0.5 15 0.5C15.2761 0.5 15.5 0.723858 15.5 1V4.05882C15.5 4.33497 15.2761 4.55882 15 4.55882C14.7239 4.55882 14.5 4.33497 14.5 4.05882V3.02941H1.5V4.05882C1.5 4.33497 1.27614 4.55882 1 4.55882C0.723858 4.55882 0.5 4.33497 0.5 4.05882V1C0.5 0.723858 0.723858 0.5 1 0.5ZM1.875 8.38235C1.66762 8.38235 1.5 8.55055 1.5 8.75641V13.2353C1.5 13.3027 1.52717 13.3692 1.57835 13.4195C1.62982 13.4701 1.7014 13.5 1.77778 13.5H14.125C14.3324 13.5 14.5 13.3318 14.5 13.1259V8.75641C14.5 8.55055 14.3324 8.38235 14.125 8.38235H13.1667V10.1765C13.1667 10.4526 12.9428 10.6765 12.6667 10.6765C12.3905 10.6765 12.1667 10.4526 12.1667 10.1765V8.38235H10.8333V9.41177C10.8333 9.68791 10.6095 9.91177 10.3333 9.91177C10.0572 9.91177 9.83333 9.68791 9.83333 9.41177V8.38235H8.5V10.1765C8.5 10.4526 8.27614 10.6765 8 10.6765C7.72386 10.6765 7.5 10.4526 7.5 10.1765V8.38235H6.16667V9.41177C6.16667 9.68791 5.94281 9.91177 5.66667 9.91177C5.39052 9.91177 5.16667 9.68791 5.16667 9.41177V8.38235H3.83333V10.1765C3.83333 10.4526 3.60948 10.6765 3.33333 10.6765C3.05719 10.6765 2.83333 10.4526 2.83333 10.1765V8.38235H1.875ZM1.875 7.38235C1.11638 7.38235 0.5 7.99721 0.5 8.75641V13.2353C0.5 13.5735 0.636718 13.8961 0.877261 14.1326C1.11752 14.3688 1.4416 14.5 1.77778 14.5H14.125C14.8836 14.5 15.5 13.8851 15.5 13.1259V8.75641C15.5 7.99721 14.8836 7.38235 14.125 7.38235H1.875Z" fill="white"/>
</svg>
