<svg width="24" height="24" viewBox="0 0 24 24" fill="none" xmlns="http://www.w3.org/2000/svg">
<path d="M10.8866 3.36667C12.3307 3.36535 13.7428 3.79236 14.9441 4.5937C16.1455 5.39503 17.0822 6.53467 17.6357 7.86846C18.1893 9.20224 18.3348 10.6702 18.0539 12.0867C17.7729 13.5032 17.0782 14.8046 16.0575 15.8262C15.0369 16.8478 13.7362 17.5437 12.3199 17.8259C10.9037 18.1081 9.43555 17.9639 8.10126 17.4116C6.76697 16.8593 5.62647 15.9236 4.82404 14.723C4.02161 13.5224 3.59331 12.1108 3.59331 10.6667C3.60206 8.73444 4.37307 6.88374 5.73875 5.51681C7.10443 4.14988 8.95442 3.37719 10.8866 3.36667ZM10.8866 2C9.17254 2 7.49693 2.50829 6.0717 3.4606C4.64647 4.4129 3.53565 5.76645 2.87969 7.35008C2.22373 8.9337 2.0521 10.6763 2.3865 12.3575C2.72091 14.0386 3.54633 15.5829 4.75838 16.7949C5.97044 18.007 7.51469 18.8324 9.19586 19.1668C10.877 19.5012 12.6196 19.3296 14.2032 18.6736C15.7869 18.0177 17.1404 16.9068 18.0927 15.4816C19.045 14.0564 19.5533 12.3808 19.5533 10.6667C19.5533 8.36812 18.6402 6.16372 17.0149 4.53841C15.3896 2.91309 13.1852 2 10.8866 2Z" fill="#353535"/>
<path d="M23.3334 22.1934L18.4201 17.2467L17.4734 18.1867L22.3867 23.1334C22.4484 23.1955 22.5218 23.2449 22.6026 23.2787C22.6834 23.3125 22.7701 23.3301 22.8577 23.3304C22.9453 23.3307 23.0321 23.3138 23.1131 23.2805C23.1942 23.2473 23.2679 23.1984 23.3301 23.1367C23.3922 23.075 23.4416 23.0016 23.4754 22.9208C23.5092 22.84 23.5268 22.7533 23.5271 22.6657C23.5274 22.5781 23.5105 22.4913 23.4772 22.4103C23.444 22.3292 23.3951 22.2555 23.3334 22.1934Z" fill="#353535"/>
</svg>
