<svg width="28" height="28" viewBox="0 0 28 28" fill="none" xmlns="http://www.w3.org/2000/svg">
<path d="M27.455 6.90511C27.5941 6.76634 27.7044 6.60151 27.7796 6.42005C27.8549 6.23859 27.8937 6.04406 27.8937 5.84761C27.8937 5.65116 27.8549 5.45663 27.7796 5.27518C27.7044 5.09372 27.5941 4.92888 27.455 4.79011L23.21 0.545111C23.0712 0.406056 22.9064 0.295735 22.7249 0.220462C22.5435 0.14519 22.349 0.106445 22.1525 0.106445C21.956 0.106445 21.7615 0.14519 21.5801 0.220462C21.3986 0.295735 21.2338 0.406056 21.095 0.545111L14.36 7.28011L8.525 1.44511C7.355 0.275112 5.45 0.275112 4.28 1.44511L1.43 4.29511C0.26 5.46511 0.26 7.37011 1.43 8.54011L7.265 14.3751L0.5 21.1401V27.5001H6.86L13.64 20.7201L19.475 26.5551C20.9 27.9801 22.82 27.4551 23.72 26.5551L26.57 23.7051C27.74 22.5351 27.74 20.6301 26.57 19.4601L20.735 13.6251L27.455 6.90511ZM3.56 6.41011L6.395 3.56011L8.3 5.46511L6.53 7.25011L8.645 9.36511L10.43 7.58011L12.23 9.38011L9.38 12.2301L3.56 6.41011ZM20.405 17.5701L18.62 19.3551L20.735 21.4701L22.52 19.6851L24.425 21.5901L21.575 24.4401L15.74 18.6051L18.59 15.7551L20.405 17.5701ZM5.615 24.5001H3.5V22.3851L17.915 7.97011L19.865 9.92011L20.03 10.0851L5.615 24.5001ZM20.03 5.84011L22.145 3.72511L24.26 5.84011L22.145 7.95511L20.03 5.84011Z" fill="#D4AF37"/>
</svg>
