<svg width="17" height="20" viewBox="0 0 17 20" fill="none" xmlns="http://www.w3.org/2000/svg">
<path d="M5.80042 11.2583L11.2075 14.575M11.1996 5.42496L5.80042 8.74163M15.625 4.16663C15.625 5.54734 14.5617 6.66663 13.25 6.66663C11.9383 6.66663 10.875 5.54734 10.875 4.16663C10.875 2.78591 11.9383 1.66663 13.25 1.66663C14.5617 1.66663 15.625 2.78591 15.625 4.16663ZM6.125 9.99996C6.125 11.3807 5.06168 12.5 3.75 12.5C2.43832 12.5 1.375 11.3807 1.375 9.99996C1.375 8.61925 2.43832 7.49996 3.75 7.49996C5.06168 7.49996 6.125 8.61925 6.125 9.99996ZM15.625 15.8333C15.625 17.214 14.5617 18.3333 13.25 18.3333C11.9383 18.3333 10.875 17.214 10.875 15.8333C10.875 14.4526 11.9383 13.3333 13.25 13.3333C14.5617 13.3333 15.625 14.4526 15.625 15.8333Z" stroke="#2BBF8D" stroke-width="2" stroke-linecap="round" stroke-linejoin="round"/>
</svg>
