<svg width="34" height="33" viewBox="0 0 34 33" fill="none" xmlns="http://www.w3.org/2000/svg">
<path fill-rule="evenodd" clip-rule="evenodd" d="M8.69503 13.1015C8.86902 12.8871 9.1839 12.8543 9.39833 13.0283L9.76877 13.3289V13.3289C9.7794 13.3375 9.79005 13.3462 9.80063 13.3547C10.7885 14.1561 11.5723 14.7918 12.1039 15.365C12.65 15.9537 12.9985 16.5473 12.9985 17.2708C12.9985 17.994 12.6506 18.5876 12.1046 19.1765C11.5713 19.7516 10.7841 20.3897 9.79077 21.1948L9.39833 21.5132C9.1839 21.6872 8.86902 21.6544 8.69503 21.44C8.52104 21.2255 8.55382 20.9106 8.76825 20.7367L9.13875 20.436C10.1664 19.6031 10.894 19.0113 11.3713 18.4966C11.8398 17.9912 11.9985 17.6313 11.9985 17.2708C11.9985 16.9104 11.8396 16.5505 11.3708 16.045C10.8932 15.5302 10.1657 14.9385 9.13881 14.1055L8.76825 13.8049C8.55382 13.6309 8.52104 13.316 8.69503 13.1015ZM16.5 21.1249C16.5 20.8488 16.7238 20.6249 17 20.6249H24.9166C25.1928 20.6249 25.4166 20.8488 25.4166 21.1249C25.4166 21.4011 25.1928 21.6249 24.9166 21.6249H17C16.7238 21.6249 16.5 21.4011 16.5 21.1249Z" fill="#008AC5"/>
<path fill-rule="evenodd" clip-rule="evenodd" d="M8.37868 1.86115C6.27618 2.13631 4.88516 2.67593 3.83338 3.69855C2.78512 4.72001 2.23342 6.06896 1.95168 8.11012C1.66774 10.1672 1.66663 12.8517 1.66663 16.4999C1.66663 20.1481 1.66774 22.833 1.95168 24.8901C2.23345 26.9314 2.78519 28.2798 3.83331 29.2997C4.88428 30.323 6.27531 30.8631 8.37812 31.1385C10.494 31.4156 13.2543 31.4166 17 31.4166C20.7457 31.4166 23.5063 31.4156 25.6222 31.1385C27.7251 30.8631 29.1154 30.3231 30.1647 29.3C31.2137 28.2794 31.7661 26.9305 32.0481 24.8895C32.3322 22.8326 32.3333 20.1481 32.3333 16.4999C32.3333 16.2238 32.5572 15.9999 32.8333 15.9999C33.1094 15.9999 33.3333 16.2238 33.3333 16.4999V16.5406C33.3333 20.1399 33.3333 22.8932 33.0386 25.0263C32.7407 27.1831 32.133 28.7799 30.8626 30.0162C29.5955 31.2516 27.9609 31.8408 25.752 32.13C23.5638 32.4166 20.7378 32.4166 17.0388 32.4166H16.9612C13.2621 32.4166 10.4366 32.4166 8.24828 32.13C6.03928 31.8408 4.40444 31.2515 3.13582 30.0163C1.86603 28.7807 1.2588 27.1838 0.961072 25.0268C0.666619 22.8936 0.666622 20.1399 0.666626 16.5407V16.4592C0.666622 12.8599 0.666619 10.1066 0.961072 7.97339C1.25881 5.81632 1.86607 4.2192 3.1357 2.98214C4.40505 1.74787 6.04011 1.15868 8.24891 0.869605C10.437 0.583246 13.2621 0.583248 16.9611 0.583252H17.0388C20.7379 0.583248 23.5633 0.583246 25.7514 0.869605C27.9601 1.15867 29.5946 1.7475 30.8625 2.98202C32.5511 4.62613 33.0706 6.91068 33.2455 10.3075C33.2598 10.5833 33.0477 10.8184 32.7719 10.8326C32.4962 10.8468 32.2611 10.6348 32.2469 10.359C32.0735 6.99408 31.5607 5.05754 30.1649 3.69849C29.1148 2.676 27.7243 2.13633 25.6216 1.86115C23.5059 1.58426 20.7456 1.58325 17 1.58325C13.2543 1.58325 10.4944 1.58426 8.37868 1.86115Z" fill="#008AC5"/>
</svg>
