<svg width="19" height="19" viewBox="0 0 19 19" fill="none" xmlns="http://www.w3.org/2000/svg">
<path d="M9.49999 13.4583C8.40486 13.4583 7.47122 13.0722 6.69908 12.3001C5.92694 11.5279 5.54113 10.5946 5.54166 9.49996C5.54166 8.40482 5.92773 7.47119 6.69987 6.69905C7.47201 5.92691 8.40538 5.5411 9.49999 5.54163C10.5951 5.54163 11.5288 5.9277 12.3009 6.69984C13.0731 7.47198 13.4589 8.40535 13.4583 9.49996C13.4583 10.5951 13.0723 11.5287 12.3001 12.3009C11.528 13.073 10.5946 13.4588 9.49999 13.4583ZM1.58333 10.2916C1.35902 10.2916 1.17087 10.2156 1.01887 10.0636C0.866868 9.91163 0.791131 9.72374 0.791659 9.49996C0.791659 9.27566 0.867659 9.08751 1.01966 8.9355C1.17166 8.7835 1.35955 8.70777 1.58333 8.7083H3.16666C3.39097 8.7083 3.57912 8.7843 3.73112 8.9363C3.88312 9.0883 3.95885 9.27619 3.95833 9.49996C3.95833 9.72427 3.88233 9.91242 3.73033 10.0644C3.57833 10.2164 3.39044 10.2922 3.16666 10.2916H1.58333ZM15.8333 10.2916C15.609 10.2916 15.4209 10.2156 15.2689 10.0636C15.1169 9.91163 15.0411 9.72374 15.0417 9.49996C15.0417 9.27566 15.1177 9.08751 15.2697 8.9355C15.4217 8.7835 15.6096 8.70777 15.8333 8.7083H17.4167C17.641 8.7083 17.8291 8.7843 17.9811 8.9363C18.1331 9.0883 18.2089 9.27619 18.2083 9.49996C18.2083 9.72427 18.1323 9.91242 17.9803 10.0644C17.8283 10.2164 17.6404 10.2922 17.4167 10.2916H15.8333ZM9.49999 3.9583C9.27569 3.9583 9.08754 3.8823 8.93554 3.7303C8.78354 3.5783 8.7078 3.39041 8.70833 3.16663V1.5833C8.70833 1.35899 8.78433 1.17084 8.93633 1.01884C9.08833 0.866837 9.27622 0.791101 9.49999 0.791629C9.7243 0.791629 9.91245 0.867629 10.0645 1.01963C10.2165 1.17163 10.2922 1.35952 10.2917 1.5833V3.16663C10.2917 3.39093 10.2157 3.57909 10.0637 3.73109C9.91166 3.88309 9.72377 3.95882 9.49999 3.9583ZM9.49999 18.2083C9.27569 18.2083 9.08754 18.1323 8.93554 17.9803C8.78354 17.8283 8.7078 17.6404 8.70833 17.4166V15.8333C8.70833 15.609 8.78433 15.4208 8.93633 15.2688C9.08833 15.1168 9.27622 15.0411 9.49999 15.0416C9.7243 15.0416 9.91245 15.1176 10.0645 15.2696C10.2165 15.4216 10.2922 15.6095 10.2917 15.8333V17.4166C10.2917 17.6409 10.2157 17.8291 10.0637 17.9811C9.91166 18.1331 9.72377 18.2088 9.49999 18.2083ZM4.47291 5.58121L3.62187 4.74996C3.46353 4.60482 3.38753 4.4201 3.39387 4.1958C3.4002 3.97149 3.4762 3.78017 3.62187 3.62184C3.7802 3.4635 3.97152 3.38434 4.19583 3.38434C4.42013 3.38434 4.60485 3.4635 4.74999 3.62184L5.58124 4.47288C5.72638 4.63121 5.79895 4.81593 5.79895 5.02705C5.79895 5.23816 5.72638 5.42288 5.58124 5.58121C5.4361 5.73955 5.25481 5.81555 5.03737 5.80921C4.81992 5.80288 4.63177 5.72688 4.47291 5.58121ZM14.25 15.3781L13.4187 14.527C13.2736 14.3687 13.201 14.1806 13.201 13.9626C13.201 13.7446 13.2736 13.5633 13.4187 13.4187C13.5639 13.2604 13.7454 13.1846 13.9634 13.1915C14.1814 13.1984 14.3693 13.2741 14.5271 13.4187L15.3781 14.25C15.5365 14.3951 15.6125 14.5798 15.6061 14.8041C15.5998 15.0284 15.5238 15.2198 15.3781 15.3781C15.2198 15.5364 15.0285 15.6156 14.8042 15.6156C14.5799 15.6156 14.3951 15.5364 14.25 15.3781ZM13.4187 5.58121C13.2604 5.43607 13.1844 5.25478 13.1907 5.03734C13.1971 4.81989 13.2731 4.63174 13.4187 4.47288L14.25 3.62184C14.3951 3.4635 14.5799 3.3875 14.8042 3.39384C15.0285 3.40017 15.2198 3.47617 15.3781 3.62184C15.5365 3.78017 15.6156 3.97149 15.6156 4.1958C15.6156 4.4201 15.5365 4.60482 15.3781 4.74996L14.5271 5.58121C14.3687 5.72635 14.184 5.79892 13.9729 5.79892C13.7618 5.79892 13.5771 5.72635 13.4187 5.58121ZM3.62187 15.3781C3.46353 15.2198 3.38437 15.0284 3.38437 14.8041C3.38437 14.5798 3.46353 14.3951 3.62187 14.25L4.47291 13.4187C4.63124 13.2736 4.81913 13.201 5.03658 13.201C5.25402 13.201 5.43558 13.2736 5.58124 13.4187C5.73958 13.5639 5.81558 13.7454 5.80924 13.9634C5.80291 14.1814 5.72691 14.3692 5.58124 14.527L4.74999 15.3781C4.60485 15.5364 4.42013 15.6124 4.19583 15.6061C3.97152 15.5998 3.7802 15.5238 3.62187 15.3781Z" fill="white"/>
</svg>
