<svg width="42" height="42" viewBox="0 0 42 42" fill="none" xmlns="http://www.w3.org/2000/svg">
<path d="M23.0833 0.270793V4.47913C31.3125 5.49996 37.6667 12.5 37.6667 21C37.6667 27.6875 33.6667 33.5 27.8333 36.1666L23.0833 31.4166V41.8333H33.5L30.9583 39.2916C37.4792 35.7291 41.8333 28.8333 41.8333 21C41.8333 10.2083 33.6042 1.31246 23.0833 0.270793ZM18.9167 0.166626C14.8542 0.583293 11 2.16663 7.83333 4.77079L10.7917 7.72913C13.1565 5.90617 15.958 4.73528 18.9167 4.33329V0.166626ZM4.75 7.83329C2.16666 11 0.583331 14.8541 0.166664 18.9166H4.33333C4.72916 15.9583 5.89583 13.1458 7.72917 10.7916L4.75 7.83329ZM8.5 12.6666V16.8333H14.75V18.9166H12.6667C10.375 18.9166 8.5 20.7916 8.5 23.0833V29.3333H18.9167V25.1666H12.6667V23.0833H14.75C17.0625 23.0833 18.9167 21.2291 18.9167 18.9166V16.8333C18.9167 15.7282 18.4777 14.6684 17.6963 13.887C16.9149 13.1056 15.8551 12.6666 14.75 12.6666H8.5ZM21 12.6666V23.0833H27.25V29.3333H31.4167V23.0833H33.5V18.9166H31.4167V12.6666H27.25V18.9166H25.1667V12.6666H21ZM0.166664 23.0833C0.583331 27.1458 2.1875 31 4.79166 34.1666L7.75 31.2083C5.92085 28.845 4.74285 26.0436 4.33333 23.0833H0.166664ZM10.8125 34.2708L7.83333 37.2291C10.9987 39.8136 14.8518 41.4142 18.9167 41.8333V37.6666C15.9618 37.2738 13.1647 36.1017 10.8125 34.2708Z" fill="#005952"/>
</svg>
