<?xml version="1.0" encoding="iso-8859-1"?>
<!-- Uploaded to: SVG Repo, www.svgrepo.com, Generator: SVG Repo Mixer Tools -->
<svg fill="#000000" height="800px" width="800px" version="1.1" id="Layer_1" xmlns="http://www.w3.org/2000/svg" xmlns:xlink="http://www.w3.org/1999/xlink" 
	 viewBox="0 0 511.994 511.994" xml:space="preserve">
<g>
	<g>
		<g>
			<path d="M315.871,174.051L280.534,42.168c-0.785-2.927-3.072-5.222-5.999-6.016c-2.918-0.802-6.05,0.017-8.209,2.125
				l-20.233,19.789c-54.485,53.274-134.178,74.632-208.026,55.74l-27.418-7.023c-2.918-0.751-6.042,0.111-8.183,2.27
				c-2.133,2.159-2.961,5.282-2.176,8.209l35.328,131.883c17.357,64.734,76.109,107.537,140.16,107.537
				c12.39,0,24.994-1.604,37.521-4.958C290.561,331.013,336.573,251.312,315.871,174.051z M177.17,181.176
				c3.337-21.99,14.293-35.627,32.58-40.525c18.253-4.907,34.577,1.425,48.461,18.807c2.944,3.678,2.347,9.054-1.34,11.998
				c-3.695,2.944-9.045,2.338-11.989-1.348c-9.66-12.083-19.174-16.068-30.72-12.979c-11.597,3.115-17.801,11.315-20.122,26.607
				c-0.64,4.224-4.275,7.253-8.422,7.253c-0.427,0-0.862-0.034-1.297-0.102C179.662,190.179,176.462,185.835,177.17,181.176z
				 M95.131,210.232c-0.631,4.233-4.275,7.262-8.422,7.262c-0.427,0-0.853-0.034-1.289-0.102c-4.659-0.7-7.868-5.052-7.159-9.711
				c3.328-21.99,14.276-35.627,32.572-40.525c18.287-4.915,34.594,1.425,48.478,18.807c2.935,3.678,2.338,9.045-1.348,11.989
				c-3.686,2.953-9.054,2.338-11.989-1.34c-9.66-12.075-19.123-16.068-30.729-12.979C103.647,186.748,97.443,194.949,95.131,210.232
				z M175.489,305.524c-20.685,0-40.849-6.886-57.694-20.079c-3.703-2.901-4.352-8.269-1.451-11.972
				c2.901-3.721,8.26-4.361,11.989-1.459c19.208,15.053,43.733,20.079,67.294,13.773c23.552-6.315,42.283-22.929,51.405-45.585
				c1.766-4.378,6.767-6.477,11.102-4.736c4.369,1.758,6.485,6.733,4.727,11.102c-11.136,27.682-34.031,47.983-62.814,55.697
				C191.899,304.449,183.647,305.524,175.489,305.524z"/>
			<path d="M509.527,228.516c-2.133-2.15-5.248-3.012-8.183-2.261l-17.331,4.437c-48.768,12.476-99.985,9.071-146.543-9.361
				c-1.084,17.801-5.18,35.089-11.776,51.285c0.213-0.265,0.435-0.478,0.657-0.751c2.935-3.678,8.294-4.275,11.989-1.348
				c3.686,2.944,4.284,8.311,1.34,11.998c-8.926,11.187-18.884,17.724-29.713,19.703c-21.06,31.309-53.018,55.467-92.254,65.988
				c-6.724,1.801-13.542,3.157-20.403,4.079c14.054,48.026,51.712,85.589,101.385,98.901c12.535,3.354,25.122,4.958,37.521,4.958
				c64.043,0,122.82-42.803,140.16-107.537l35.328-131.883C512.488,233.799,511.661,230.675,509.527,228.516z M385.504,430.825
				c-1.05,0.418-2.125,0.623-3.191,0.623c-3.371,0-6.571-2.022-7.91-5.35c-9.131-22.656-27.861-39.262-51.405-45.577
				c-23.569-6.289-48.102-1.28-67.311,13.773c-3.721,2.91-9.071,2.261-11.981-1.451c-2.91-3.712-2.261-9.071,1.451-11.981
				c23.475-18.406,53.47-24.542,82.261-16.828c28.774,7.714,51.661,28.006,62.814,55.689
				C391.989,424.092,389.873,429.058,385.504,430.825z M438.59,309.02c-10.846,13.585-23.177,20.42-36.77,20.42
				c-3.806,0-7.706-0.538-11.699-1.604c-18.278-4.898-29.235-18.534-32.572-40.525c-0.708-4.659,2.492-9.011,7.151-9.719
				c4.668-0.717,9.003,2.492,9.711,7.159c2.33,15.283,8.533,23.492,20.13,26.598c11.648,3.106,21.086-0.896,30.72-12.979
				c2.935-3.678,8.303-4.275,11.989-1.348C440.928,299.966,441.534,305.333,438.59,309.02z"/>
		</g>
	</g>
</g>
</svg>