<svg width="20" height="22" viewBox="0 0 20 22" fill="none" xmlns="http://www.w3.org/2000/svg">
<path fill-rule="evenodd" clip-rule="evenodd" d="M0.0470021 3.36854C0.0171683 3.25377 0 3.13081 0 3C0 2.53592 0.216105 2.17053 0.447222 1.91954C0.6734 1.67392 0.958904 1.48507 1.24216 1.33625C1.81073 1.03753 2.56777 0.798785 3.41911 0.609599C5.13801 0.227622 7.46419 0 10 0C12.5358 0 14.862 0.227622 16.5809 0.609599C17.4322 0.798785 18.1893 1.03753 18.7578 1.33625C19.0411 1.48507 19.3266 1.67392 19.5528 1.91954C19.7839 2.17053 20 2.53592 20 3C20 3.1308 19.9828 3.25376 19.953 3.36853L17.6839 17.2385C17.5345 18.1498 17.1357 19.0023 16.5316 19.7008C15.9274 20.3994 15.1417 20.917 14.2613 21.1962L13.9336 21.3001C11.3741 22.1127 8.62587 22.1127 6.06642 21.3001L5.73876 21.1962C4.85827 20.9169 4.07224 20.3991 3.46811 19.7003C2.86399 19.0015 2.46525 18.1491 2.31612 17.2375C2.31612 17.2375 2.31612 17.2375 2.31612 17.2375L0.0470021 3.36854ZM2.35871 5.11118L4.28988 16.9145C4.37935 17.4615 4.6186 17.973 4.98108 18.3923C5.34352 18.8115 5.81501 19.1222 6.34324 19.2898C6.34329 19.2898 6.3432 19.2898 6.34324 19.2898L6.67124 19.3938C8.83693 20.0813 11.1627 20.0814 13.3284 19.3939L13.6567 19.2898C13.6567 19.2898 13.6566 19.2898 13.6567 19.2898C14.1848 19.1223 14.6563 18.8117 15.0188 18.3926C15.3813 17.9735 15.6206 17.4621 15.7102 16.9153L17.6413 5.11118C17.3114 5.21443 16.9553 5.3072 16.5809 5.3904C14.862 5.77238 12.5358 6 10 6C7.46419 6 5.13801 5.77238 3.41911 5.3904C3.04474 5.30721 2.6886 5.21443 2.35871 5.11118ZM17.6016 3C17.2575 2.85244 16.7722 2.70091 16.147 2.56197C14.6086 2.22009 12.4348 2 10 2C7.56524 2 5.39143 2.22009 3.85297 2.56197C3.22776 2.70091 2.74251 2.85244 2.39844 3C2.74251 3.14755 3.22776 3.29909 3.85297 3.43803C5.39143 3.77991 7.56524 4 10 4C12.4348 4 14.6086 3.77991 16.147 3.43803C16.7722 3.29909 17.2575 3.14755 17.6016 3Z" fill="black"/>
</svg>
