<svg width="48" height="33" viewBox="0 0 48 33" fill="none" xmlns="http://www.w3.org/2000/svg">
<path d="M0 0V3H28.5V25.5H19.266C18.597 22.9215 16.278 21 13.5 21C10.722 21 8.403 22.9215 7.734 25.5H6V18H3V28.5H7.734C8.403 31.0785 10.722 33 13.5 33C16.278 33 18.597 31.0785 19.266 28.5H31.734C32.403 31.0785 34.722 33 37.5 33C40.278 33 42.597 31.0785 43.266 28.5H48V16.266L47.9055 16.0305L44.9055 7.0305L44.58 6H31.5V0H0ZM1.5 6V9H15V6H1.5ZM31.5 9H42.4215L45 16.6875V25.5H43.266C42.597 22.9215 40.278 21 37.5 21C34.722 21 32.403 22.9215 31.734 25.5H31.5V9ZM3 12V15H12V12H3ZM13.5 24C15.1755 24 16.5 25.3245 16.5 27C16.5 28.6755 15.1755 30 13.5 30C11.8245 30 10.5 28.6755 10.5 27C10.5 25.3245 11.8245 24 13.5 24ZM37.5 24C39.1755 24 40.5 25.3245 40.5 27C40.5 28.6755 39.1755 30 37.5 30C35.8245 30 34.5 28.6755 34.5 27C34.5 25.3245 35.8245 24 37.5 24Z" fill="#C6A060"/>
</svg>
