<svg width="10" height="15" viewBox="0 0 10 15" fill="none" xmlns="http://www.w3.org/2000/svg">
<path d="M8.24999 14.0833L4.16666 10V3.72918L2.58332 5.31251C2.43055 5.46529 2.23943 5.54168 2.00999 5.54168C1.78054 5.54168 1.58277 5.45835 1.41666 5.29168C1.24999 5.12501 1.16666 4.92696 1.16666 4.69751C1.16666 4.46807 1.24999 4.27029 1.41666 4.10418L4.41666 1.10418C4.49999 1.02085 4.59027 0.96168 4.68749 0.92668C4.78471 0.89168 4.88888 0.874457 4.99999 0.875013C5.1111 0.875013 5.21527 0.892235 5.31249 0.92668C5.40971 0.961124 5.49999 1.02029 5.58332 1.10418L8.58332 4.10418C8.7361 4.25696 8.8161 4.44779 8.82332 4.67668C8.83054 4.90557 8.75054 5.10362 8.58332 5.27085C8.41666 5.43751 8.2186 5.52085 7.98916 5.52085C7.75971 5.52085 7.56193 5.43751 7.39582 5.27085L5.83332 3.72918V9.33335L9.43749 12.9375C9.59027 13.0903 9.66666 13.2778 9.66666 13.5C9.66666 13.7222 9.58332 13.9167 9.41666 14.0833C9.26388 14.2361 9.06943 14.3125 8.83332 14.3125C8.59721 14.3125 8.40277 14.2361 8.24999 14.0833ZM0.604156 14.1042C0.43749 13.9375 0.354156 13.7395 0.354156 13.51C0.354156 13.2806 0.430545 13.0897 0.583323 12.9375L2.66666 10.8542L3.83332 12.0417L1.77082 14.1042C1.60416 14.2708 1.4061 14.3508 1.17666 14.3442C0.947212 14.3375 0.756378 14.2575 0.604156 14.1042Z" fill="white"/>
</svg>
