<svg width="23" height="23" viewBox="0 0 23 23" fill="none" xmlns="http://www.w3.org/2000/svg">
<path fill-rule="evenodd" clip-rule="evenodd" d="M2.17173 11.1616C2.17173 16.235 5.85006 19.6916 9.98173 20.4066C10.0941 20.4261 10.2016 20.4675 10.2979 20.5285C10.3943 20.5896 10.4777 20.6689 10.5434 20.7622C10.6091 20.8554 10.6558 20.9607 10.6808 21.072C10.7059 21.1833 10.7087 21.2984 10.6892 21.4108C10.6697 21.5232 10.6283 21.6306 10.5673 21.727C10.5063 21.8234 10.4269 21.9068 10.3337 21.9725C10.2404 22.0382 10.1352 22.0849 10.0239 22.1099C9.91257 22.1349 9.79745 22.1378 9.68506 22.1183C4.83339 21.2783 0.435059 17.1883 0.435059 11.1616C0.435059 8.59997 1.60006 6.58664 2.96006 5.05664C3.93506 3.95997 5.05006 3.0683 5.94673 2.38664H3.22006C2.99904 2.38664 2.78708 2.29884 2.6308 2.14256C2.47452 1.98628 2.38673 1.77432 2.38673 1.5533C2.38673 1.33229 2.47452 1.12033 2.6308 0.964049C2.78708 0.807768 2.99904 0.719971 3.22006 0.719971H8.22006C8.44107 0.719971 8.65303 0.807768 8.80931 0.964049C8.9656 1.12033 9.05339 1.33229 9.05339 1.5533V6.5533C9.05339 6.77432 8.9656 6.98628 8.80931 7.14256C8.65303 7.29884 8.44107 7.38664 8.22006 7.38664C7.99905 7.38664 7.78708 7.29884 7.6308 7.14256C7.47452 6.98628 7.38673 6.77432 7.38673 6.5533V3.47664L7.38506 3.47997C6.43173 4.19664 5.26839 5.07497 4.26006 6.20997C3.06839 7.54997 2.17173 9.17164 2.17173 11.1616ZM20.6851 11.8383C20.6851 6.8183 17.0851 3.3833 13.0067 2.61664C12.8931 2.59735 12.7844 2.55562 12.687 2.49388C12.5896 2.43214 12.5055 2.35163 12.4396 2.25705C12.3737 2.16246 12.3273 2.05569 12.303 1.94297C12.2788 1.83025 12.2773 1.71383 12.2985 1.60052C12.3198 1.4872 12.3634 1.37924 12.4268 1.28296C12.4902 1.18667 12.5721 1.10397 12.6679 1.03969C12.7636 0.975409 12.8711 0.930833 12.9842 0.908562C13.0974 0.88629 13.2138 0.886769 13.3267 0.909971C18.1167 1.80997 22.4217 5.87664 22.4217 11.8383C22.4217 14.4 21.2567 16.4116 19.8967 17.9433C18.9217 19.04 17.8067 19.9316 16.9101 20.6133H19.6367C19.8577 20.6133 20.0697 20.7011 20.226 20.8574C20.3823 21.0137 20.4701 21.2256 20.4701 21.4466C20.4701 21.6677 20.3823 21.8796 20.226 22.0359C20.0697 22.1922 19.8577 22.28 19.6367 22.28H14.6367C14.4157 22.28 14.2037 22.1922 14.0475 22.0359C13.8912 21.8796 13.8034 21.6677 13.8034 21.4466V16.4466C13.8034 16.2256 13.8912 16.0137 14.0475 15.8574C14.2037 15.7011 14.4157 15.6133 14.6367 15.6133C14.8577 15.6133 15.0697 15.7011 15.226 15.8574C15.3823 16.0137 15.4701 16.2256 15.4701 16.4466V19.5216H15.4734C16.4251 18.8016 17.5901 17.925 18.5967 16.7883C19.7884 15.45 20.6851 13.83 20.6851 11.8383Z" fill="#515151"/>
</svg>
