<svg width="21" height="20" viewBox="0 0 21 20" fill="none" xmlns="http://www.w3.org/2000/svg">
<path d="M20.5508 18.7031C19.0634 16.1318 16.7715 14.2881 14.0967 13.414C15.4197 12.6264 16.4477 11.4262 17.0226 9.99782C17.5976 8.56942 17.6878 6.99177 17.2793 5.50716C16.8709 4.02254 15.9864 2.71305 14.7617 1.77978C13.537 0.84651 12.0398 0.341064 10.5 0.341064C8.9602 0.341064 7.46299 0.84651 6.23828 1.77978C5.01357 2.71305 4.12907 4.02254 3.72062 5.50716C3.31217 6.99177 3.40235 8.56942 3.97731 9.99782C4.55227 11.4262 5.58022 12.6264 6.90329 13.414C4.22849 14.2871 1.9365 16.1308 0.449193 18.7031C0.394651 18.792 0.358474 18.891 0.342796 18.9941C0.327117 19.0973 0.332256 19.2025 0.357908 19.3036C0.383561 19.4048 0.429207 19.4997 0.492154 19.5829C0.555101 19.6661 0.634074 19.7359 0.724413 19.788C0.814752 19.8402 0.914627 19.8738 1.01815 19.8867C1.12167 19.8997 1.22673 19.8918 1.32714 19.8635C1.42756 19.8352 1.52128 19.787 1.60279 19.7219C1.6843 19.6568 1.75195 19.576 1.80173 19.4843C3.64158 16.3047 6.89353 14.4062 10.5 14.4062C14.1064 14.4062 17.3584 16.3047 19.1982 19.4843C19.248 19.576 19.3156 19.6568 19.3972 19.7219C19.4787 19.787 19.5724 19.8352 19.6728 19.8635C19.7732 19.8918 19.8783 19.8997 19.9818 19.8867C20.0853 19.8738 20.1852 19.8402 20.2755 19.788C20.3659 19.7359 20.4448 19.6661 20.5078 19.5829C20.5707 19.4997 20.6164 19.4048 20.642 19.3036C20.6677 19.2025 20.6728 19.0973 20.6572 18.9941C20.6415 18.891 20.6053 18.792 20.5508 18.7031ZM5.03122 7.37497C5.03122 6.29335 5.35196 5.23603 5.95287 4.3367C6.55379 3.43737 7.40789 2.73642 8.40717 2.3225C9.40646 1.90859 10.506 1.80029 11.5669 2.0113C12.6277 2.22231 13.6021 2.74316 14.367 3.50798C15.1318 4.2728 15.6526 5.24724 15.8636 6.30807C16.0747 7.36891 15.9664 8.46849 15.5524 9.46777C15.1385 10.4671 14.4376 11.3212 13.5382 11.9221C12.6389 12.523 11.5816 12.8437 10.5 12.8437C9.05005 12.8422 7.65995 12.2655 6.6347 11.2402C5.60944 10.215 5.03278 8.8249 5.03122 7.37497Z" fill="#4D4D4D"/>
</svg>
