<svg width="24" height="24" viewBox="0 0 24 24" fill="none" xmlns="http://www.w3.org/2000/svg">
<path d="M22.4651 5.33029L10.431 8.78854C10.2898 8.86904 10.1276 8.91625 9.95996 8.92569L5.82627 10.1114H23.0186C23.2789 10.1114 23.5285 10.2029 23.7126 10.3657C23.8966 10.5285 24 10.7492 24 10.9795V19.6598C24 20.8109 23.483 21.9149 22.5628 22.7288C21.6425 23.5427 20.3944 24 19.093 24H5.35323C4.0518 24 2.80367 23.5427 1.88342 22.7288C0.963172 21.9149 0.446182 20.8109 0.446182 19.6598V10.9795C0.446182 10.7954 0.510954 10.6236 0.622835 10.4812L0.240086 9.4361C-0.161976 8.34141 -0.0559511 7.1503 0.534838 6.12475C1.12563 5.0992 2.1528 4.32322 3.39041 3.96747L16.4569 0.212351C17.6945 -0.143264 19.0412 -0.0494877 20.2007 0.473053C21.3602 0.995594 22.2376 1.9041 22.6398 2.99875L23.0951 4.23656C23.1756 4.4555 23.1543 4.69372 23.0362 4.89883C22.918 5.10394 22.7126 5.25914 22.4651 5.33029ZM15.1163 5.61674L17.6385 1.75225C17.4431 1.77229 17.2505 1.80951 17.0634 1.86335L14.6197 2.56473L12.0523 6.49693L15.1143 5.61674H15.1163ZM19.621 2.18106C19.6089 2.20293 19.5958 2.22436 19.5817 2.24529L17.9054 4.81468L20.9243 3.94664L20.7731 3.53519C20.5713 2.98244 20.1656 2.50559 19.621 2.18106ZM11.8286 3.36679L8.76657 4.24698L6.19724 8.17918L9.25923 7.29899L11.8305 3.36679H11.8286ZM2.25786 9.31284L3.41004 8.98298L5.97544 5.04905L3.99692 5.61848C3.25435 5.83192 2.63805 6.29752 2.28358 6.91284C1.9291 7.52817 1.86549 8.24284 2.10673 8.89965L2.25786 9.31284ZM2.409 11.8475V19.6598C2.409 20.3505 2.71919 21.0128 3.27134 21.5012C3.82349 21.9896 4.57237 22.2639 5.35323 22.2639H19.093C19.8738 22.2639 20.6227 21.9896 21.1748 21.5012C21.727 21.0128 22.0372 20.3505 22.0372 19.6598V11.8475H2.409Z" fill="black"/>
</svg>
