<svg width="42" height="42" viewBox="0 0 42 42" fill="none" xmlns="http://www.w3.org/2000/svg">
<path d="M18.5255 3.67488C19.145 3.05621 19.9738 2.69218 20.8485 2.6546C21.7232 2.61702 22.5802 2.90862 23.2505 3.47188L23.4745 3.67663L26.7995 6.99988H31.5C32.3827 7.00004 33.2328 7.33373 33.8798 7.9341C34.5269 8.53446 34.9233 9.35716 34.9895 10.2374L35 10.4999V15.2004L38.325 18.5254C38.9442 19.145 39.3085 19.9742 39.3461 20.8493C39.3837 21.7244 39.0918 22.5818 38.528 23.2521L38.3232 23.4744L34.9982 26.7994V31.4999C34.9985 32.3829 34.665 33.2334 34.0646 33.8808C33.4642 34.5283 32.6413 34.9249 31.7608 34.9911L31.5 34.9999H26.8013L23.4763 38.3249C22.8567 38.944 22.0275 39.3084 21.1524 39.346C20.2773 39.3836 19.4199 39.0916 18.7495 38.5279L18.5273 38.3249L15.2023 34.9999H10.5C9.61699 35.0002 8.76651 34.6667 8.11904 34.0663C7.47157 33.4659 7.07498 32.6429 7.00875 31.7624L7 31.4999V26.7994L3.675 23.4744C3.05584 22.8548 2.6915 22.0256 2.65391 21.1505C2.61633 20.2754 2.90824 19.418 3.472 18.7476L3.675 18.5254L7 15.2004V10.4999C7.00016 9.61718 7.33385 8.76713 7.93422 8.12003C8.53458 7.47293 9.35728 7.07658 10.2375 7.01038L10.5 6.99988H15.2005L18.5255 3.67488ZM21 6.15288L17.675 9.47788C17.0937 10.0583 16.3268 10.4157 15.5085 10.4876L15.2005 10.4999H10.5V15.2004C10.5002 16.0227 10.2109 16.8188 9.68275 17.4491L9.4745 17.6766L6.1495 21.0016L9.4745 24.3249C10.0555 24.9059 10.4136 25.6729 10.486 26.4914L10.5 26.7994V31.4999H15.2005C16.0228 31.4997 16.8189 31.789 17.4493 32.3171L17.6768 32.5254L21 35.8504L24.325 32.5254C24.906 31.9444 25.673 31.5863 26.4915 31.5139L26.7995 31.4999H31.5V26.7994C31.4998 25.9771 31.7891 25.1809 32.3172 24.5506L32.5255 24.3231L35.8505 20.9999L32.5255 17.6749C31.9445 17.0938 31.5864 16.3269 31.514 15.5084L31.5 15.2004V10.4999H26.7995C25.9772 10.5001 25.1811 10.2108 24.5508 9.68263L24.3233 9.47438L20.9983 6.14938L21 6.15288Z" fill="#D4AF37"/>
<path d="M27.5719 15.2125C27.1275 15.2261 26.7049 15.4083 26.39 15.7221H26.3882L18.9612 23.1491L15.8672 20.0551L15.7027 19.9099C15.3511 19.6347 14.9076 19.5044 14.4631 19.5455C14.0185 19.5867 13.6065 19.7961 13.3113 20.1311C13.0161 20.4661 12.8601 20.9012 12.8753 21.3474C12.8904 21.7936 13.0755 22.2172 13.3927 22.5314L17.5997 26.7384L17.7677 26.8871C18.138 27.1795 18.6028 27.3257 19.0739 27.298C19.5449 27.2703 19.9893 27.0705 20.3227 26.7366L24.5927 22.4666L28.8627 18.1966L29.0097 18.0321C29.2817 17.6804 29.4096 17.2383 29.3674 16.7957C29.3253 16.3531 29.1162 15.9431 28.7827 15.6491C28.4492 15.355 28.0163 15.1989 27.5719 15.2125Z" fill="#D4AF37"/>
</svg>
