<svg width="36" height="37" viewBox="0 0 36 37" fill="none" xmlns="http://www.w3.org/2000/svg">
<path d="M17.7758 16.822C16.8049 24.4348 11.8459 25.789 11.8459 31.0818C11.8459 34.3489 14.6636 37 18 37C21.3364 37 24.1522 34.3471 24.1522 31.0818C24.1522 25.789 19.1932 24.4348 18.2223 16.822C18.1919 16.5945 17.8062 16.5945 17.7758 16.822V16.822ZM6.37765 0.172036C5.40675 7.78479 0.447754 9.13714 0.447754 14.4318C0.447754 17.6971 3.26355 20.35 6.59995 20.35C9.93635 20.35 12.7522 17.6971 12.7522 14.4318C12.7522 9.13899 7.79315 7.78479 6.82225 0.172036C6.79375 -0.0555142 6.40615 -0.0555142 6.37765 0.172036V0.172036ZM29.1777 0.172036C28.2068 7.78479 23.2478 9.13899 23.2478 14.4318C23.2478 17.6971 26.0636 20.35 29.4 20.35C32.7364 20.35 35.5522 17.6971 35.5522 14.4318C35.5522 9.13899 30.5932 7.78479 29.6223 0.172036C29.5919 -0.0555142 29.2062 -0.0555142 29.1777 0.172036V0.172036Z" fill="#C6A060"/>
</svg>
