<svg width="24" height="24" viewBox="0 0 24 24" fill="none" xmlns="http://www.w3.org/2000/svg">
<path d="M20.46 3.49201C19.3598 2.38072 18.0494 1.49961 16.6052 0.900072C15.1609 0.300532 13.6117 -0.00543717 12.048 1.04484e-05C5.496 1.04484e-05 0.155998 5.34001 0.155998 11.892C0.155998 13.992 0.707998 16.032 1.74 17.832L0.0599976 24L6.36 22.344C8.1 23.292 10.056 23.796 12.048 23.796C18.6 23.796 23.94 18.456 23.94 11.904C23.94 8.72401 22.704 5.73601 20.46 3.49201V3.49201ZM12.048 21.78C10.272 21.78 8.532 21.3 7.008 20.4L6.648 20.184L2.904 21.168L3.9 17.52L3.66 17.148C2.67329 15.5724 2.14937 13.7511 2.148 11.892C2.148 6.44401 6.588 2.00401 12.036 2.00401C14.676 2.00401 17.16 3.03601 19.02 4.90801C19.941 5.82477 20.6708 6.9152 21.1673 8.11612C21.6637 9.31704 21.9168 10.6045 21.912 11.904C21.936 17.352 17.496 21.78 12.048 21.78V21.78ZM17.472 14.388C17.172 14.244 15.708 13.524 15.444 13.416C15.168 13.32 14.976 13.272 14.772 13.56C14.568 13.86 14.004 14.532 13.836 14.724C13.668 14.928 13.488 14.952 13.188 14.796C12.888 14.652 11.928 14.328 10.8 13.32C9.912 12.528 9.324 11.556 9.144 11.256C8.976 10.956 9.12 10.8 9.276 10.644C9.408 10.512 9.576 10.296 9.72 10.128C9.864 9.96001 9.924 9.82801 10.02 9.63601C10.116 9.43201 10.068 9.26401 9.996 9.12001C9.924 8.97601 9.324 7.51201 9.084 6.91201C8.844 6.33601 8.592 6.40801 8.412 6.39601H7.836C7.632 6.39601 7.32 6.46801 7.044 6.76801C6.78 7.06801 6.012 7.78801 6.012 9.25201C6.012 10.716 7.08 12.132 7.224 12.324C7.368 12.528 9.324 15.528 12.3 16.812C13.008 17.124 13.56 17.304 13.992 17.436C14.7 17.664 15.348 17.628 15.864 17.556C16.44 17.472 17.628 16.836 17.868 16.14C18.12 15.444 18.12 14.856 18.036 14.724C17.952 14.592 17.772 14.532 17.472 14.388V14.388Z" fill="white"/>
</svg>
