<svg width="9" height="9" viewBox="0 0 9 9" fill="none" xmlns="http://www.w3.org/2000/svg">
<path d="M8.49208 7.84125L6.93375 6.2875C7.43654 5.64696 7.70935 4.85597 7.70833 4.04167C7.70833 3.31647 7.49329 2.60756 7.09039 2.00458C6.68749 1.4016 6.11484 0.931631 5.44484 0.65411C4.77485 0.376589 4.0376 0.303976 3.32634 0.445456C2.61507 0.586935 1.96174 0.936151 1.44894 1.44894C0.936151 1.96174 0.586935 2.61507 0.445456 3.32634C0.303976 4.0376 0.376589 4.77485 0.65411 5.44484C0.931631 6.11484 1.4016 6.68749 2.00458 7.09039C2.60756 7.49329 3.31647 7.70833 4.04167 7.70833C4.85597 7.70935 5.64696 7.43654 6.2875 6.93375L7.84125 8.49208C7.88386 8.53504 7.93455 8.56914 7.9904 8.59241C8.04626 8.61568 8.10616 8.62766 8.16667 8.62766C8.22717 8.62766 8.28708 8.61568 8.34293 8.59241C8.39878 8.56914 8.44948 8.53504 8.49208 8.49208C8.53504 8.44948 8.56914 8.39878 8.59241 8.34293C8.61568 8.28708 8.62766 8.22717 8.62766 8.16667C8.62766 8.10616 8.61568 8.04626 8.59241 7.9904C8.56914 7.93455 8.53504 7.88386 8.49208 7.84125ZM1.29167 4.04167C1.29167 3.49777 1.45295 2.96609 1.75513 2.51385C2.0573 2.06162 2.48679 1.70914 2.98929 1.501C3.49179 1.29286 4.04472 1.2384 4.57817 1.34451C5.11161 1.45062 5.60162 1.71253 5.98621 2.09712C6.37081 2.48172 6.63272 2.97172 6.73883 3.50517C6.84494 4.03862 6.79048 4.59155 6.58234 5.09405C6.3742 5.59654 6.02172 6.02604 5.56949 6.32821C5.11725 6.63038 4.58557 6.79167 4.04167 6.79167C3.31232 6.79167 2.61285 6.50194 2.09712 5.98621C1.5814 5.47049 1.29167 4.77101 1.29167 4.04167Z" fill="black"/>
</svg>
