<svg width="38" height="38" viewBox="0 0 38 38" fill="none" xmlns="http://www.w3.org/2000/svg">
<path d="M32.0881 13.0857L32.0857 13.0881C31.9796 13.1945 31.8629 13.25 31.6667 13.25H22.1667C21.9705 13.25 21.8537 13.1945 21.7477 13.0881L21.7452 13.0857C21.6388 12.9796 21.5833 12.8629 21.5833 12.6667V6.33333C21.5833 6.13709 21.6389 6.01909 21.7464 5.91152C21.8522 5.80573 21.9694 5.75 22.1667 5.75H31.6667C31.864 5.75 31.9811 5.80573 32.0869 5.91152L32.7907 5.20768L32.0869 5.91152C32.1945 6.01909 32.25 6.13708 32.25 6.33333V12.6667C32.25 12.8629 32.1945 12.9796 32.0881 13.0857ZM5.91434 19.4215L5.91188 19.419C5.80546 19.313 5.75 19.1962 5.75 19V6.33333C5.75 6.13709 5.80554 6.01909 5.91311 5.91152C6.0189 5.80573 6.13602 5.75 6.33333 5.75H15.8333C16.0299 5.75 16.1482 5.80538 16.2552 5.91154C16.3613 6.01853 16.4167 6.13676 16.4167 6.33333V19C16.4167 19.1973 16.3609 19.3144 16.2551 19.4202C16.1476 19.5278 16.0296 19.5833 15.8333 19.5833H6.33333C6.13712 19.5833 6.02038 19.5279 5.91434 19.4215ZM32.0881 32.0857L32.0857 32.0881C31.9796 32.1945 31.8629 32.25 31.6667 32.25H22.1667C21.9705 32.25 21.8537 32.1945 21.7477 32.0881L21.7452 32.0857C21.6388 31.9796 21.5833 31.8629 21.5833 31.6667V19C21.5833 18.8038 21.6389 18.6858 21.7464 18.5782C21.8522 18.4724 21.9694 18.4167 22.1667 18.4167H31.6667C31.864 18.4167 31.9811 18.4724 32.0869 18.5782C32.1945 18.6858 32.25 18.8038 32.25 19V31.6667C32.25 31.8629 32.1945 31.9796 32.0881 32.0857ZM5.91434 32.0881L5.91188 32.0857C5.80546 31.9796 5.75 31.8629 5.75 31.6667V25.3333C5.75 25.1371 5.80554 25.0191 5.91311 24.9115C6.0189 24.8057 6.13602 24.75 6.33333 24.75H15.8333C16.0299 24.75 16.1481 24.8054 16.2551 24.9115C16.3613 25.0185 16.4167 25.1367 16.4167 25.3333V31.6667C16.4167 31.864 16.3609 31.9811 16.2551 32.0869C16.1476 32.1945 16.0296 32.25 15.8333 32.25H6.33333C6.13712 32.25 6.02038 32.1945 5.91434 32.0881Z" stroke="#4E4E4E" stroke-width="2"/>
</svg>
