<svg width="383" height="280" viewBox="0 0 383 280" fill="none" xmlns="http://www.w3.org/2000/svg">
<g clip-path="url(#clip0_73_2623)">
<path d="M145.539 53.1493L142.534 54.069L140.516 49.4084L135.956 50.2126L133.875 46.9722L132.23 48.0224L135.015 52.3579L139.335 51.5964L141.436 56.4453L145.958 55.0593L145.539 53.1493Z" fill="#50BFA5"/>
<path d="M338.252 220.776L335.249 221.696L333.229 217.035L328.669 217.84L326.588 214.599L324.943 215.649L327.728 219.985L332.048 219.223L334.149 224.072L338.67 222.686L338.252 220.776Z" fill="#50BFA5"/>
<path d="M127.023 275.953C127.023 275.953 110.987 221.728 109.7 209.765C108.414 197.805 117.38 201.511 117.38 201.511C117.38 201.511 109.836 178.719 115.292 173.31C120.746 167.901 125.666 177.983 125.666 177.983C125.666 177.983 127.316 150.315 133.133 150.304C143.966 150.285 143.751 180.48 143.751 180.48C143.751 180.48 146.517 168.658 152.316 171.898C161.063 176.786 148.519 200.476 148.519 200.476C148.519 200.476 159.665 200.485 163.58 206.091C170.605 216.15 127.021 275.953 127.021 275.953H127.023Z" fill="#50BFA5"/>
<path d="M132.267 268.777C132.267 268.777 86.039 261.064 75.9844 252.892C65.9298 244.719 75.8815 241.034 75.8815 241.034C75.8815 241.034 52.6594 229.156 52.9274 221.08C53.1953 213.003 64.7335 217.11 64.7335 217.11C64.7335 217.11 45.1666 194.849 49.7995 190.622C58.4285 182.747 81.0482 205.887 81.0482 205.887C81.0482 205.887 74.3315 194.883 81.4062 193.142C92.074 190.515 99.9483 217.651 99.9483 217.651C99.9483 217.651 97.9481 206.935 105.304 208.362C118.501 210.922 132.269 268.775 132.269 268.775L132.267 268.777Z" fill="#50BFA5"/>
<path d="M105.301 208.362C97.9262 207.032 99.9457 217.651 99.9457 217.651C99.9457 217.651 92.0713 190.515 81.4036 193.142C74.3289 194.883 81.0456 205.887 81.0456 205.887C81.0456 205.887 58.4237 182.747 49.7969 190.622L132.11 268.79C130.646 261.323 117.665 210.593 105.301 208.364V208.362Z" fill="#3C8F7C"/>
<path d="M145.418 275.138C145.418 275.138 121.072 250.438 108.814 247.865C96.5532 245.292 98.7592 253.995 98.7592 253.995C98.7592 253.995 74.4352 232.773 68.799 237.915C63.1628 243.057 69.2599 248.021 69.2599 248.021C69.2599 248.021 48.9985 244.439 46.0978 251.074C41.6408 261.268 74.9626 266.814 74.9626 266.814C74.9626 266.814 60.9997 267.778 64.2369 274.169C69.1206 283.807 145.418 275.136 145.418 275.136V275.138Z" fill="#355389"/>
<path d="M46.0977 251.074C48.9983 244.441 69.2598 248.021 69.2598 248.021C69.2598 248.021 63.1627 243.057 68.7988 237.915C74.435 232.773 98.0044 251.11 98.0044 251.11C98.0044 251.11 92.4476 240.514 104.708 243.085C116.969 245.658 145.422 275.138 145.422 275.138L46.0998 251.074H46.0977Z" fill="#466EB6"/>
<path d="M184.174 20.3879C175.981 21.7333 173.545 32.4641 180.358 37.2638C181.582 38.1257 182.429 39.4219 182.789 40.8721L184.031 45.8642C184.372 47.2396 185.716 48.1229 187.118 47.8919L190.222 47.3829C191.624 47.1519 192.613 45.8878 192.495 44.474C192.064 39.3214 191.532 37.452 193.211 35.1527C198.122 28.4302 192.372 19.0404 184.177 20.3879H184.174Z" fill="#F7CC7F"/>
<path d="M185.011 42.2045C184.478 37.7899 183.729 33.1292 183.474 31.8074C178.777 32.0662 180.563 27.1254 182.73 29.1338C183.348 29.707 183.639 30.4834 183.832 31.3326C185.393 31.1914 186.917 30.7486 188.307 30.0321C188.232 28.9434 188.124 28.1178 188.429 27.4205C188.89 26.3682 190.225 26.0816 190.77 27.1061C190.974 27.4911 191.01 27.9831 190.862 28.3916C190.547 29.2621 189.599 29.8375 188.772 30.2888C189.018 33.7987 189.361 37.3364 189.792 40.8185L189.348 40.8741C188.924 37.4476 188.585 33.9677 188.339 30.5134C186.958 31.1978 185.457 31.6256 183.92 31.771C184.242 33.4607 184.951 38.0038 185.453 42.1489L185.009 42.2024L185.011 42.2045ZM181.243 30.7657C181.661 31.2149 182.36 31.4117 183.38 31.3646C183.204 30.6139 182.943 29.9401 182.426 29.461C181.26 28.3787 180.544 30.0129 181.245 30.7657H181.243ZM188.838 27.6002C188.581 28.1862 188.68 28.937 188.737 29.799C189.409 29.4182 190.189 28.9413 190.44 28.244C190.618 27.7542 190.418 27.0633 189.919 26.935C189.865 26.9222 189.016 27.1917 188.838 27.6023V27.6002Z" fill="#FAE0B2"/>
<path d="M182.754 40.7501C182.765 40.7907 182.78 40.8313 182.79 40.8741L184.032 45.8663C184.373 47.2416 185.717 48.125 187.119 47.894L190.223 47.3849C191.625 47.1539 192.613 45.8898 192.496 44.476C192.305 42.1831 192.092 40.5426 192.065 39.2229L182.756 40.7501H182.754Z" fill="#96D9C9"/>
<path d="M178.102 16.6619L175.652 12.2001C175.414 11.7681 175.572 11.2269 176.005 10.9895C176.438 10.7521 176.981 10.9104 177.219 11.3424L179.669 15.8042C179.907 16.2362 179.749 16.7774 179.315 17.0148C178.88 17.2522 178.338 17.0918 178.102 16.6619Z" fill="#FAE0B2"/>
<path d="M172.744 27.457L167.404 26.9907C166.913 26.9479 166.548 26.5158 166.591 26.0239C166.634 25.5341 167.067 25.1705 167.56 25.2133L172.901 25.6795C173.392 25.7223 173.756 26.1544 173.713 26.6463C173.67 27.1361 173.237 27.4997 172.744 27.457Z" fill="#FAE0B2"/>
<path d="M167.449 43.7938C167.102 43.443 167.106 42.8783 167.458 42.5318C168.77 41.2378 170.215 40.0614 171.75 39.039C172.159 38.7652 172.715 38.8765 172.989 39.285C173.263 39.6935 173.152 40.2475 172.742 40.5213C171.302 41.4816 169.947 42.5853 168.714 43.8002C168.365 44.1445 167.799 44.1445 167.449 43.7916V43.7938Z" fill="#FAE0B2"/>
<path d="M191.298 16.4202C190.82 16.294 190.537 15.8042 190.666 15.3294C191.27 13.0707 191.641 10.7415 191.768 8.40581C191.793 7.91386 192.216 7.53528 192.709 7.56308C193.202 7.58875 193.579 8.01011 193.554 8.50206C193.421 10.9596 193.03 13.4129 192.394 15.7914C192.265 16.2705 191.772 16.5486 191.3 16.4224L191.298 16.4202Z" fill="#FAE0B2"/>
<path d="M196.8 23.2712C196.658 22.7985 196.924 22.3022 197.398 22.1589L202.95 20.4885C203.424 20.3473 203.922 20.6125 204.065 21.0852C204.207 21.5558 203.941 22.0541 203.467 22.1953L197.915 23.8658C197.443 24.0069 196.943 23.7417 196.802 23.269L196.8 23.2712Z" fill="#FAE0B2"/>
<path d="M205.919 38.0123C205.84 38.0123 205.759 38.0016 205.677 37.9781C203.754 37.4391 201.883 36.6905 200.116 35.7536C199.681 35.5226 199.516 34.9836 199.747 34.5473C199.979 34.1131 200.521 33.9463 200.956 34.1773C202.609 35.0542 204.361 35.7536 206.162 36.2584C206.638 36.391 206.914 36.883 206.779 37.3578C206.668 37.7514 206.31 38.008 205.919 38.008V38.0123Z" fill="#FAE0B2"/>
<path d="M287.256 77.43L284.454 70.8208L277.407 69.3771C276.605 69.2124 276.34 68.2007 276.959 67.6659L282.394 62.9647L281.594 55.8336C281.502 55.0208 282.385 54.4583 283.086 54.8797L289.245 58.5842L295.797 55.6219C296.543 55.2839 297.354 55.947 297.169 56.7426L295.542 63.7325L300.391 69.0327C300.944 69.6359 300.563 70.6091 299.746 70.6796L292.579 71.2956L289.025 77.5348C288.62 78.2449 287.573 78.185 287.254 77.4321L287.256 77.43Z" fill="#F7CC7F"/>
<path d="M331.855 54.7513L330.703 59.3799L323.037 58.3532L320.516 64.9111L314.652 65.08L314.738 68.0403L322.58 67.8157L324.969 61.6001L332.944 62.6695L334.678 55.7053L331.855 54.7513Z" fill="#47E6B0"/>
<path d="M263.547 276.561H128.775C123.627 276.561 119.453 272.242 119.453 266.916V261.182C119.453 255.854 123.627 251.538 128.775 251.538H263.547C257.382 258.511 257.277 269.169 263.299 276.272L263.547 276.563V276.561Z" fill="#B75742"/>
<path d="M261.466 254.402H186.714C181.567 254.402 177.393 258.72 177.393 264.048C177.393 269.374 181.564 273.692 186.714 273.692H261.472C257.98 267.776 257.986 260.303 261.466 254.402Z" fill="#FAE0B2"/>
<path d="M216.198 234.155C216.393 233.789 216.095 233.364 215.643 233.364H144.33C138.741 233.364 134.209 237.432 134.209 242.452C134.209 247.47 138.741 251.54 144.33 251.54H215.662C216.117 251.54 216.417 251.112 216.217 250.744C213.394 245.491 213.4 239.385 216.196 234.155H216.198Z" fill="#86B1F2"/>
<path d="M215.748 235.055H180.404C173.844 235.055 168.525 238.465 168.525 242.67C168.525 246.875 173.844 250.284 180.404 250.284H215.979C213.548 245.438 213.48 239.921 215.748 235.053V235.055Z" fill="#F7CC7F"/>
<path d="M206.622 238.666H202.019C201.028 238.666 200.227 238.997 200.227 239.406V239.472H206.622V238.666Z" fill="#B75742"/>
<path d="M210.547 240.522C210.547 239.496 209.345 238.666 207.863 238.666H201.957C203.083 238.666 203.994 239.297 203.994 240.075L203.966 259.986L207.229 257.426L210.556 259.986L210.55 240.525L210.547 240.522Z" fill="#2BBF8D"/>
<path d="M203.087 232.709H161.593C157.914 232.709 154.93 229.178 154.93 224.821C154.93 220.464 157.912 216.933 161.593 216.933H203.087C199.916 221.307 199.792 227.721 202.791 232.262L203.087 232.711V232.709Z" fill="#FAE0B2"/>
<path d="M154.936 224.819C154.936 220.462 157.989 216.931 161.756 216.931H203.878C204.075 216.931 204.234 216.744 204.232 216.518C204.232 216.293 204.073 216.114 203.878 216.114H137.054C132.897 216.114 129.527 220.011 129.527 224.821C129.527 229.629 132.897 233.528 137.054 233.528H203.876C204.069 233.528 204.227 233.347 204.23 233.124C204.23 232.897 204.073 232.711 203.876 232.711H161.754C157.987 232.711 154.934 229.18 154.934 224.823L154.936 224.819Z" fill="#466EB6"/>
<path d="M195.842 220.806H191.24C190.249 220.806 189.447 221.131 189.447 221.534V221.598H195.842V220.806Z" fill="#184655"/>
<path d="M199.768 222.629C199.768 221.623 198.565 220.806 197.084 220.806H191.178C192.303 220.806 193.214 221.424 193.214 222.188L193.187 241.714L196.449 239.203L199.777 241.714L199.77 222.629H199.768Z" fill="#3C8F7C"/>
<path d="M269.201 100.201L275.326 98.5923L271.173 153.84L263.824 154.084L267.531 102.207C267.6 101.251 268.271 100.445 269.199 100.201H269.201Z" fill="#184655"/>
<path d="M271.723 155.414C271.586 155.427 271.446 155.425 271.303 155.408C270.087 155.264 269.185 154.058 269.292 152.71L273.369 100.761C273.474 99.4157 274.546 98.4404 275.764 98.5837C276.982 98.727 277.882 99.9333 277.775 101.281L273.697 153.23C273.603 154.419 272.756 155.318 271.723 155.414Z" fill="#F7CC7F"/>
<path d="M215.346 158.182C215.348 158.22 215.35 158.259 215.354 158.297C215.547 160.411 217.187 161.991 219.02 161.829L270.751 157.209C272.584 157.046 273.913 155.198 273.723 153.085C273.714 152.995 273.703 152.907 273.69 152.82L215.348 158.182H215.346Z" fill="#F7CC7F"/>
<path d="M251.367 213.981C247.98 215.855 237.625 212.569 237.625 212.272C237.477 215.095 226.031 242.73 226.031 242.73L226.04 251.232C226.04 251.232 249.624 252.353 249.286 250.274C248.947 248.195 247.678 249.547 242.974 245.62C242.556 245.271 235.951 243.742 237.739 239.84C241.338 231.984 248.985 218.886 251.369 213.981H251.367Z" fill="#F7A491"/>
<path d="M225.266 251.536L251.083 251.542C252.015 251.448 252.232 250.691 251.904 250.231C251.226 249.283 246.278 247.053 242.953 245.57C237.16 246.246 226.977 244.024 226.045 242.704C223.592 245.981 224.748 251.427 225.269 251.534L225.266 251.536Z" fill="#3C8F7C"/>
<path d="M219.602 194.141C219.253 193.095 241.83 183.536 242.839 184.629C244.627 186.561 230.624 222.823 230.624 222.823L246.711 227.728C246.711 227.728 263.435 185.833 262.739 178.17C262.04 170.506 253.662 161.799 235.508 167.373C217.353 172.944 219.6 194.141 219.6 194.141H219.602Z" fill="#355389"/>
<path d="M266.347 218.747C262.536 218.054 257.596 217.857 253.643 217.788C254.108 221.3 256.372 239.314 255.958 240.42C254.282 244.903 250.564 247.001 250.564 247.001C250.564 247.001 268.095 262.782 269.154 260.96C270.213 259.137 268.371 259.381 267.226 253.369C267.126 252.834 264.589 244.443 264.433 239.915C264.133 231.283 266.217 223.54 266.347 218.747Z" fill="#F7A491"/>
<path d="M260.722 159.82C258.276 158.518 251.928 158.473 244.945 158.924C231.334 159.803 217.901 162.477 204.952 166.754L196.289 169.618L196.316 160.757C196.316 160.757 168.755 156.156 167.797 162.971C166.352 173.233 168.144 194.07 177.328 198.72C205.852 213.166 245.824 175.708 245.968 180.608C246.163 187.189 251.724 211.682 253.145 222.404C257.101 222.472 263.895 222.47 266.84 221.794C267.413 200.788 267.683 163.525 260.722 159.82Z" fill="#466EB6"/>
<path d="M250.031 247.373L269.737 263.079C270.517 263.595 271.167 263.148 271.203 262.585C271.281 261.424 268.871 256.568 267.239 253.322C262.33 250.182 255.853 241.99 255.969 240.381C253.892 242.131 249.694 246.965 250.029 247.376L250.031 247.373Z" fill="#3C8F7C"/>
<path d="M205.425 74.1597C204.763 68.1216 204.066 62.0621 199.049 57.6367C194.989 54.0562 189.829 53.4488 184.724 55.3652C170.264 60.7937 177.714 73.6057 159.277 86.5246C153.546 90.5393 147.233 93.2856 142.919 98.6906C136.882 106.256 139.161 115.357 144.664 121.433C170.993 150.505 200.389 111.244 202.499 101.818C204.068 94.8064 205.85 78.0439 205.425 74.1575V74.1597Z" fill="#13375B"/>
<path d="M200.079 108.108C197.929 104.153 195.712 101.013 195.712 101.013C193.481 97.0565 187.718 95.0566 187.718 95.0566C187.718 95.0566 185.791 95.0951 183.576 95.2042C183.439 95.57 183.3 95.8331 183.158 95.9379C182.326 96.5603 177.558 95.7561 174.48 97.8436C164.157 106.671 167.013 149.459 167.825 162.973L199.261 163.27C199.261 163.27 195.297 134.192 201.685 126.721C206.134 121.519 203.272 113.979 200.079 108.11V108.108Z" fill="#50BFA5"/>
<path d="M185.909 80.5806C185.909 80.5806 184.181 92.892 182.974 95.8843C181.767 98.8766 189.609 105.274 196.135 107.216C202.661 109.158 194.141 100.607 194.411 97.4093C194.681 94.2117 195.867 79.0684 195.867 79.0684L185.906 80.5806H185.909Z" fill="#F7A491"/>
<path d="M195.539 83.4103C195.729 80.9057 195.869 79.0684 195.869 79.0684L185.908 80.5805C185.908 80.5805 185.658 82.0264 185.379 84.0734C189.416 86.4112 193.047 85.6733 195.536 83.4124L195.539 83.4103Z" fill="#2BBF8D"/>
<path d="M189.031 58.0923C189.031 58.0923 185.105 58.9757 182.681 62.6653C180.256 66.3549 178.595 77.2204 186.576 82.2917C194.56 87.363 200.768 80.1892 200.871 73.1929C200.974 66.1966 199.471 56.8582 189.029 58.0923H189.031Z" fill="#F7A491"/>
<path d="M202.701 71.0027C202.019 72.6902 200.669 73.7383 199.682 73.3426C198.696 72.9469 198.45 71.2572 199.132 69.5696C199.813 67.882 201.164 66.834 202.15 67.2297C203.136 67.6253 203.383 69.3151 202.701 71.0027Z" fill="#F7A491"/>
<path d="M190.21 57.8614C190.21 57.8614 185.206 69.0606 180.809 70.0616C176.412 71.0626 176.477 76.6964 176.477 76.6964C176.477 76.6964 176.575 63.6834 180.696 60.6975C184.816 57.7116 190.212 57.8614 190.212 57.8614H190.21Z" fill="#13375B"/>
<path d="M182.555 72.3908C183.134 74.2088 182.605 76.0012 181.372 76.3905C180.139 76.7798 178.671 75.6226 178.092 73.8046C177.513 71.9865 178.043 70.1941 179.275 69.8049C180.508 69.4156 181.977 70.5727 182.555 72.3908Z" fill="#F7A491"/>
<path d="M238.783 153.245C236.897 152.565 234.09 152.479 234.138 152.231C234.326 151.226 242.659 154.451 241.534 152.984C240.908 152.167 234.671 149.273 233.156 149.752C231.685 150.216 222.027 152.92 222.027 152.92L195.634 146.749C195.634 146.749 188.973 131.647 188.321 118.67C182.814 119.412 179.067 120.77 174.279 123.42C176.588 135.83 182.197 155.944 188.399 159.717C191.008 161.304 222.156 157.818 222.156 157.818C222.156 157.818 229.02 157.335 230.141 156.905C230.993 156.577 233.181 155.348 234.373 155.012C237.081 154.246 241.907 156.167 241.922 155.639C241.933 155.253 240.708 153.945 238.781 153.249L238.783 153.245Z" fill="#F7A491"/>
<path d="M238.783 153.245C236.897 152.565 234.09 152.479 234.138 152.231C234.326 151.226 242.659 154.451 241.534 152.984C240.908 152.167 234.671 149.273 233.156 149.752C231.685 150.216 222.027 152.92 222.027 152.92L195.634 146.749C195.634 146.749 188.973 131.647 188.321 118.67C182.814 119.412 179.067 120.77 174.279 123.42C176.588 135.83 182.197 155.944 188.399 159.717C191.008 161.304 222.156 157.818 222.156 157.818C222.156 157.818 229.02 157.335 230.141 156.905C230.993 156.577 233.181 155.348 234.373 155.012C237.081 154.246 241.907 156.167 241.922 155.639C241.933 155.253 240.708 153.945 238.781 153.249L238.783 153.245Z" fill="#F7A491"/>
<path d="M188.483 104.804C188.23 100.81 186.715 96.9559 182.455 95.7132C179.816 94.9432 176.855 95.679 174.746 97.3987C172.237 99.4435 171.536 102.722 171.547 105.826C171.573 112.874 172.055 120.182 173.346 127.121C178.131 124.471 183.718 122.877 189.225 122.135C189.223 122.094 188.818 110.078 188.481 104.801L188.483 104.804Z" fill="#96D9C9"/>
<path d="M106.709 112.339L65.7916 104.737C64.9705 104.585 64.4281 103.796 64.5803 102.977L69.7062 75.5157C69.8584 74.6965 70.6495 74.1554 71.4706 74.3073L112.388 81.9089C113.209 82.0608 113.752 82.85 113.599 83.6692L108.473 111.13C108.321 111.95 107.53 112.491 106.709 112.339Z" fill="#F7CC7F"/>
<path d="M87.2317 80.9421L74.7759 78.6278C73.9548 78.4759 73.4124 77.6867 73.5647 76.8675L74.345 72.6881C74.4972 71.8689 75.2883 71.3278 76.1094 71.4796L88.5651 73.7939C89.3862 73.9458 89.9286 74.735 89.7764 75.5542L88.9961 79.7336C88.8438 80.5528 88.0528 81.0939 87.2317 80.9421Z" fill="#F7CC7F"/>
<path d="M108.572 111.289C108.36 112.039 107.607 112.506 106.838 112.362L65.6545 104.712C64.8891 104.568 64.3553 103.871 64.4239 103.095L66.5785 78.4781C66.6149 78.0546 66.8314 77.6653 67.1702 77.4065C67.511 77.1498 67.9441 77.0471 68.3621 77.1241L114.114 85.6241C114.532 85.7011 114.899 85.9513 115.124 86.3128C115.349 86.6743 115.411 87.1106 115.295 87.5191L108.572 111.286V111.289Z" fill="#FAE0B2"/>
<path d="M296.246 21.3397L289.24 23.2476L287.73 14.7776L290.024 14.3712L291.086 20.3366L295.633 19.0982L296.246 21.3397Z" fill="#50BFA5"/>
<path d="M73.0236 137.678C74.7773 137.535 77.4721 138.307 78.6791 139.124C78.8613 139.293 80.2505 139.845 81.6933 142.232L81.3675 142.456C79.8432 140.865 78.8184 140.508 77.5986 140.144C75.5877 139.629 73.5596 140.014 73.3924 140.104L73.0215 137.68L73.0236 137.678Z" fill="#355389"/>
<path d="M81.5296 142.345C81.5296 142.345 70.8383 144.125 71.8352 152.458C72.832 160.791 84.1108 167.272 94.1762 162.119C107.717 155.187 102.37 137.561 92.7312 136.198C83.0925 134.836 81.5296 142.345 81.5296 142.345Z" fill="#2BBF8D"/>
<path d="M86.0667 138.675C86.0667 138.675 88.8558 135.817 94.9679 138.418C101.08 141.017 101.522 153.138 96.0698 152.434C90.6202 151.731 81.7082 140.427 86.0667 138.677V138.675Z" fill="#47E6B0"/>
<path d="M159.614 27.9788L115.644 43.627C114.227 44.1317 112.669 43.3938 112.163 41.98L104.046 19.28C103.54 17.8662 104.28 16.3112 105.697 15.8064L149.667 0.158282C151.084 -0.346497 152.643 0.39142 153.149 1.80523L161.265 24.5031C161.771 25.9169 161.032 27.4719 159.614 27.9767V27.9788Z" fill="#86B1F2"/>
<path d="M130.469 22.1439C132.086 26.6655 129.723 31.6406 125.189 33.2533C120.657 34.866 115.67 32.509 114.054 27.9852C112.437 23.4636 114.8 18.4885 119.334 16.8758C123.866 15.2631 128.853 17.6201 130.469 22.1439Z" fill="white"/>
<path d="M123.511 20.9269C123.987 22.2594 123.29 23.7267 121.954 24.2037C120.619 24.6785 119.148 23.9834 118.67 22.6508C118.192 21.3183 118.891 19.851 120.226 19.3741C121.562 18.8992 123.033 19.5944 123.511 20.9269Z" fill="#86B1F2"/>
<path d="M121.5 26.0845L123.499 25.3732C125.082 24.8098 126.825 25.6341 127.389 27.2135L127.699 28.0798L119.965 30.8318L119.656 29.9656C119.091 28.3861 119.917 26.6479 121.5 26.0845Z" fill="#86B1F2"/>
<path d="M131.554 17.3977C131.085 17.3977 130.664 17.1026 130.508 16.662C130.302 16.0866 130.604 15.4513 131.181 15.246L150.403 8.40584C150.523 8.36306 150.649 8.34167 150.776 8.34167C151.245 8.34167 151.666 8.63684 151.822 9.07745C152.028 9.65281 151.726 10.2881 151.149 10.4934L131.927 17.3336C131.807 17.3763 131.681 17.3977 131.554 17.3977Z" fill="white"/>
<path d="M136.742 22.1781C136.272 22.1781 135.852 21.8829 135.695 21.4423C135.49 20.867 135.792 20.2317 136.369 20.0264L151.382 14.6834C151.502 14.6407 151.629 14.6193 151.755 14.6193C152.225 14.6193 152.645 14.9144 152.801 15.355C152.9 15.6331 152.885 15.9347 152.758 16.202C152.632 16.4694 152.407 16.6726 152.128 16.771L137.115 22.1139C136.995 22.1567 136.868 22.1781 136.742 22.1781Z" fill="white"/>
<path d="M227.933 199.193H121.762C118.464 199.193 115.791 201.86 115.791 205.15V210.159C115.791 213.448 118.464 216.116 121.762 216.116H227.933L227.878 216.058C223.335 211.342 223.361 203.881 227.933 199.195V199.193Z" fill="#2BBF8D"/>
<path d="M226.053 201.697H169.295C165.998 201.697 163.324 204.365 163.324 207.654C163.324 210.944 165.998 213.611 169.295 213.611H226.051C223.965 209.924 223.967 205.385 226.051 201.7L226.053 201.697Z" fill="#FAE0B2"/>
<path d="M314.828 199.68L306.78 179.536C306.375 178.522 306.87 177.374 307.886 176.97L336.848 165.454C337.864 165.05 339.015 165.544 339.42 166.558L347.468 186.702C347.873 187.715 347.378 188.864 346.362 189.268L317.403 200.784C316.387 201.188 315.235 200.694 314.83 199.68H314.828Z" fill="#FAE0B2"/>
<path d="M342.147 188.032L334.915 169.93C334.8 169.64 334.941 169.31 335.233 169.195C335.524 169.079 335.854 169.22 335.97 169.511L343.201 187.613C343.317 187.904 343.176 188.233 342.884 188.348C342.593 188.464 342.262 188.323 342.147 188.032Z" fill="#466EB6"/>
<path d="M338.701 185.647L332.763 170.784C332.647 170.493 332.789 170.164 333.08 170.048C333.372 169.933 333.702 170.074 333.818 170.365L339.756 185.228C339.872 185.519 339.731 185.848 339.439 185.964C339.147 186.079 338.817 185.938 338.701 185.647Z" fill="#466EB6"/>
<path d="M337.844 189.743L330.613 171.642C330.497 171.351 330.638 171.021 330.93 170.906C331.222 170.79 331.552 170.932 331.667 171.222L338.899 189.324C339.014 189.615 338.873 189.944 338.581 190.06C338.29 190.175 337.96 190.034 337.844 189.743Z" fill="#466EB6"/>
<path d="M334.043 186.468L328.46 172.497C328.345 172.206 328.486 171.877 328.778 171.761C329.069 171.646 329.399 171.787 329.515 172.078L335.098 186.049C335.213 186.34 335.072 186.67 334.78 186.785C334.489 186.901 334.159 186.759 334.043 186.468Z" fill="#466EB6"/>
<path d="M341.953 167.999L341.807 167.635C341.753 167.501 341.608 167.432 341.481 167.484L338.733 168.577C338.606 168.626 338.546 168.776 338.6 168.91L338.745 169.274C338.799 169.409 338.945 169.477 339.071 169.426L341.82 168.333C341.946 168.284 342.006 168.134 341.953 167.999Z" fill="#355389"/>
<path d="M342.576 169.558L342.43 169.195C342.376 169.06 342.231 168.991 342.104 169.043L339.356 170.136C339.229 170.185 339.169 170.335 339.223 170.469L339.369 170.833C339.422 170.968 339.568 171.036 339.694 170.985L342.443 169.892C342.569 169.841 342.627 169.693 342.576 169.558Z" fill="#355389"/>
<path d="M343.199 171.118L343.053 170.754C342.999 170.619 342.854 170.551 342.727 170.602L339.979 171.695C339.852 171.744 339.792 171.894 339.846 172.029L339.992 172.392C340.045 172.527 340.191 172.596 340.317 172.544L343.066 171.451C343.192 171.402 343.252 171.252 343.199 171.118Z" fill="#355389"/>
<path d="M343.822 172.677L343.676 172.313C343.622 172.178 343.477 172.11 343.35 172.161L340.602 173.254C340.475 173.306 340.415 173.453 340.469 173.588L340.615 173.952C340.668 174.086 340.814 174.155 340.94 174.103L343.689 173.011C343.815 172.959 343.875 172.812 343.822 172.677Z" fill="#355389"/>
<path d="M344.447 174.236L344.301 173.873C344.247 173.738 344.102 173.669 343.975 173.721L341.227 174.814C341.1 174.865 341.04 175.015 341.094 175.147L341.24 175.511C341.293 175.646 341.439 175.714 341.565 175.663L344.314 174.57C344.44 174.518 344.5 174.371 344.447 174.236Z" fill="#355389"/>
<path d="M345.068 175.795L344.922 175.432C344.869 175.297 344.723 175.229 344.596 175.28L341.848 176.373C341.721 176.424 341.661 176.572 341.715 176.707L341.861 177.07C341.914 177.205 342.06 177.273 342.187 177.222L344.935 176.129C345.061 176.078 345.121 175.93 345.068 175.795Z" fill="#355389"/>
<path d="M345.691 177.355L345.545 176.991C345.492 176.856 345.346 176.788 345.219 176.839L342.471 177.932C342.344 177.983 342.284 178.131 342.338 178.266L342.484 178.629C342.537 178.764 342.683 178.833 342.81 178.781L345.558 177.688C345.685 177.637 345.745 177.489 345.691 177.355Z" fill="#355389"/>
<path d="M346.314 178.914L346.168 178.55C346.115 178.416 345.969 178.347 345.842 178.398L343.094 179.491C342.967 179.543 342.907 179.69 342.961 179.825L343.107 180.189C343.16 180.323 343.306 180.392 343.433 180.341L346.181 179.248C346.308 179.196 346.368 179.049 346.314 178.914Z" fill="#355389"/>
<path d="M346.937 180.473L346.791 180.109C346.738 179.975 346.592 179.906 346.465 179.958L343.717 181.051C343.591 181.102 343.53 181.25 343.584 181.384L343.73 181.748C343.783 181.883 343.929 181.951 344.056 181.9L346.804 180.807C346.931 180.755 346.991 180.608 346.937 180.473Z" fill="#355389"/>
<path d="M347.558 182.032L347.412 181.669C347.359 181.534 347.213 181.466 347.086 181.517L344.338 182.61C344.212 182.661 344.152 182.809 344.205 182.944L344.351 183.307C344.405 183.442 344.55 183.51 344.677 183.459L347.425 182.366C347.552 182.315 347.612 182.165 347.558 182.032Z" fill="#355389"/>
<path d="M348.183 183.592L348.037 183.226C347.984 183.091 347.838 183.023 347.712 183.074L344.963 184.167C344.837 184.218 344.777 184.366 344.83 184.501L344.976 184.864C345.03 184.999 345.175 185.067 345.302 185.016L348.05 183.923C348.177 183.872 348.237 183.724 348.183 183.589V183.592Z" fill="#355389"/>
<path d="M348.804 185.151L348.658 184.787C348.605 184.652 348.459 184.584 348.333 184.635L345.584 185.728C345.458 185.778 345.398 185.927 345.451 186.062L345.597 186.426C345.651 186.56 345.796 186.629 345.923 186.577L348.671 185.484C348.798 185.433 348.858 185.286 348.804 185.151Z" fill="#355389"/>
<path d="M356.398 183.545L344.905 199.873C344.879 199.909 344.86 199.95 344.845 199.993L343.674 203.58C343.537 203.997 344.022 204.341 344.373 204.078L347.45 201.764C347.488 201.736 347.52 201.702 347.548 201.663L359.071 185.292C359.219 185.082 359.161 184.794 358.945 184.655L357.011 183.423C356.807 183.292 356.539 183.346 356.4 183.542L356.398 183.545Z" fill="#B75742"/>
<path d="M347.534 201.682L347.506 201.723L344.537 203.956L343.727 203.415L344.837 200.014C345.707 200.489 346.749 200.977 347.532 201.682H347.534Z" fill="#F7CC7F"/>
<path d="M239.955 6.77393C241.61 8.09148 244.487 12.3308 248.159 15.306C250.308 17.047 251.963 16.6043 254.705 16.9337C267.713 18.5015 264.189 21.1558 265.75 21.4168C265.306 22.4349 261.254 31.0289 260.497 32.7679C259.798 34.3699 258.591 35.0886 256.842 34.8469C254.151 34.4768 251.437 34.1988 248.788 33.6277C241.998 32.1583 238.221 28.7703 233.354 24.655C232.063 23.5642 231.746 22.2017 232.415 20.6596C235.53 13.4793 239.62 7.43484 239.957 6.77393H239.955Z" fill="#466EB6"/>
<path d="M267.159 31.7583C267.101 34.5859 267.317 35.1549 266.1 34.7249C265.366 34.4661 264.657 34.1303 263.964 33.7731C263.475 33.5208 263.456 33.1892 263.853 32.7914C264.429 32.2118 265.023 31.6492 265.602 31.0867C265.18 29.9766 265.664 28.6869 266.704 28.0794C266.916 27.9554 266.762 28.2184 268.574 24.0583C262.582 23.3204 258.356 22.8263 251.045 21.9301C249.09 21.6905 247.354 20.9334 245.842 19.6714C240.622 15.3124 235.402 10.9555 230.184 6.59212C229.476 5.99965 229.386 5.1334 229.948 4.46606C230.377 3.95487 230.947 3.93134 231.56 4.00834C233.228 4.21795 249.583 6.24348 251.245 6.43812C253.427 6.69265 255.348 7.51184 257.035 8.92137C262.163 13.2056 267.307 17.4769 272.441 21.7526C273.146 22.3386 273.337 22.8776 273.088 23.53C272.816 24.2465 272.222 24.5887 271.324 24.3962C270.677 24.2572 270.389 24.4519 270.166 25.0507C269.159 27.7564 268.456 28.3553 268.7 29.3435C268.889 30.1049 267.98 31.4268 267.159 31.7562V31.7583Z" fill="#86B1F2"/>
<path d="M294.293 223.901L297.273 226.737C304.324 233.447 310.074 241.395 314.233 250.184L314.69 251.149C314.69 251.149 322.495 251.837 323.585 244.796C316.737 237.081 311.099 228.846 306.447 219.686L305.036 216.394L294.291 223.901H294.293Z" fill="#466EB6"/>
<path d="M305.031 216.383C305.415 216.931 303.32 219.048 300.355 221.112C297.39 223.176 294.661 224.43 294.278 223.882C293.894 223.334 296.001 221.191 298.968 219.127C301.933 217.063 304.649 215.835 305.031 216.383Z" fill="#86B1F2"/>
<path d="M305.044 216.404L305.036 216.394C305.036 216.394 299.095 221.412 296.645 221.923L297.401 222.949C298.295 222.466 299.311 221.839 300.358 221.112C303.288 219.072 305.368 216.98 305.046 216.402L305.044 216.404Z" fill="#355389"/>
<path d="M312.981 230.972C312.992 231.837 312.659 235.571 306.434 237.128C306.843 237.684 307.246 238.247 307.641 238.814C311.581 237.652 313.354 235.633 314.149 234.095C314.276 233.851 314.428 233.526 314.529 233.274C314.004 232.512 313.487 231.745 312.979 230.972H312.981Z" fill="#B75742"/>
<path d="M306.993 236.025L297.83 235.697L300.002 237.537L298.705 239.885L307.377 237.68L306.993 236.025Z" fill="#B75742"/>
<path d="M307.829 238.151L304.572 243.808L306.862 242.937L307.743 244.734L309.274 238.784L307.829 238.151Z" fill="#B75742"/>
<path d="M309.071 239.684C307.463 239.798 306.063 238.548 305.945 236.895C305.828 235.242 307.037 233.809 308.647 233.695C310.255 233.582 311.655 234.831 311.772 236.484C311.89 238.138 310.681 239.571 309.071 239.684Z" fill="#2BBF8D"/>
<path d="M328.519 111.314L309.224 94.1369C307.97 93.0203 308.493 90.7232 310.223 89.7457L325.623 81.0468C326.609 80.4907 327.719 80.5421 328.433 81.1773L347.728 98.3547C348.982 99.4712 348.459 101.768 346.729 102.746L331.33 111.445C330.343 112.001 329.233 111.95 328.519 111.314Z" fill="#9BC1F9"/>
<path d="M327.605 97.6489L325.997 84.452C325.935 83.9472 326.304 83.4061 326.82 83.2456C327.337 83.0852 327.806 83.3654 327.866 83.8702L329.348 96.0148L343.98 99.544C344.456 99.6595 344.676 100.173 344.471 100.69C344.265 101.208 343.71 101.535 343.231 101.42L327.605 97.6489Z" fill="white"/>
<path d="M75.6457 37.1974L77.6395 41.1329L82.1458 40.9896L84.0689 45.5583L88.8196 43.9263L91.2229 48.9998L95.7828 48.0351L98.8957 52.5396L97.187 53.7139L94.861 50.3473L90.048 51.3633L87.737 46.4887L82.9069 48.1464L80.7845 43.1029L76.3853 43.2462L74.5373 39.5972L71.6667 40.2945L71.1758 38.2818L75.6457 37.1974Z" fill="#F7CC7F"/>
<path d="M316.945 137.892L321.042 139.552L324.344 136.489L328.801 138.675L331.309 134.331L336.461 136.581L339.265 132.866L344.577 134.222L344.063 136.226L340.09 135.212L337.132 139.135L332.179 136.972L329.63 141.389L324.71 138.977L321.486 141.967L317.689 140.429L315.985 142.835L314.289 141.639L316.945 137.892Z" fill="#50BFA5"/>
</g>
<defs>
<clipPath id="clip0_73_2623">
<rect width="383" height="280" fill="white"/>
</clipPath>
</defs>
</svg>
