<svg width="65" height="65" viewBox="0 0 65 65" fill="none" xmlns="http://www.w3.org/2000/svg">
<path d="M21.3281 14.2188V6.09375C21.3281 5.82439 21.4351 5.56606 21.6256 5.37559C21.8161 5.18513 22.0744 5.07812 22.3438 5.07813C22.6131 5.07812 22.8714 5.18513 23.0619 5.37559C23.2524 5.56606 23.3594 5.82439 23.3594 6.09375V14.2188C23.3594 14.4881 23.2524 14.7464 23.0619 14.9369C22.8714 15.1274 22.6131 15.2344 22.3438 15.2344C22.0744 15.2344 21.8161 15.1274 21.6256 14.9369C21.4351 14.7464 21.3281 14.4881 21.3281 14.2188ZM30.4688 15.2344C30.7381 15.2344 30.9964 15.1274 31.1869 14.9369C31.3774 14.7464 31.4844 14.4881 31.4844 14.2188V6.09375C31.4844 5.82439 31.3774 5.56606 31.1869 5.37559C30.9964 5.18513 30.7381 5.07813 30.4688 5.07813C30.1994 5.07813 29.9411 5.18513 29.7506 5.37559C29.5601 5.56606 29.4531 5.82439 29.4531 6.09375V14.2188C29.4531 14.4881 29.5601 14.7464 29.7506 14.9369C29.9411 15.1274 30.1994 15.2344 30.4688 15.2344ZM38.5938 15.2344C38.8631 15.2344 39.1214 15.1274 39.3119 14.9369C39.5024 14.7464 39.6094 14.4881 39.6094 14.2188V6.09375C39.6094 5.82439 39.5024 5.56606 39.3119 5.37559C39.1214 5.18513 38.8631 5.07813 38.5938 5.07813C38.3244 5.07813 38.0661 5.18513 37.8756 5.37559C37.6851 5.56606 37.5781 5.82439 37.5781 6.09375V14.2188C37.5781 14.4881 37.6851 14.7464 37.8756 14.9369C38.0661 15.1274 38.3244 15.2344 38.5938 15.2344ZM61.9531 30.4688V32.5C61.9531 34.9242 60.9901 37.2492 59.2759 38.9634C57.5617 40.6776 55.2367 41.6406 52.8125 41.6406H52.7084C51.1157 46.5969 47.922 50.8838 43.6287 53.8281H52.8125C53.0819 53.8281 53.3402 53.9351 53.5307 54.1256C53.7211 54.3161 53.8281 54.5744 53.8281 54.8438C53.8281 55.1131 53.7211 55.3714 53.5307 55.5619C53.3402 55.7524 53.0819 55.8594 52.8125 55.8594H8.125C7.85564 55.8594 7.59731 55.7524 7.40684 55.5619C7.21638 55.3714 7.10938 55.1131 7.10938 54.8438C7.10938 54.5744 7.21638 54.3161 7.40684 54.1256C7.59731 53.9351 7.85564 53.8281 8.125 53.8281H17.3088C14.1714 51.6798 11.6035 48.8007 9.82664 45.4389C8.04978 42.0772 7.11722 38.3337 7.10938 34.5312V22.3438C7.10938 22.0744 7.21638 21.8161 7.40684 21.6256C7.59731 21.4351 7.85564 21.3281 8.125 21.3281H52.8125C55.2367 21.3281 57.5617 22.2912 59.2759 24.0054C60.9901 25.7196 61.9531 28.0445 61.9531 30.4688ZM51.7969 34.5312V23.3594H9.14062V34.5312C9.14885 38.5757 10.3031 42.5351 12.4696 45.9504C14.6361 49.3657 17.7261 52.0972 21.3814 53.8281H39.5561C43.2114 52.0972 46.3014 49.3657 48.4679 45.9504C50.6344 42.5351 51.7886 38.5757 51.7969 34.5312ZM59.9219 30.4688C59.9217 28.7593 59.3056 27.1072 58.1864 25.815C57.0673 24.5229 55.52 23.6772 53.8281 23.433V34.5312C53.8275 36.2342 53.6402 37.932 53.2695 39.5941C55.0721 39.478 56.7629 38.6801 57.9985 37.3625C59.234 36.0449 59.9217 34.3063 59.9219 32.5V30.4688Z" fill="white"/>
</svg>
