<svg width="46" height="46" viewBox="0 0 46 46" fill="none" xmlns="http://www.w3.org/2000/svg">
<path d="M21.1317 40.25V36.1292C19.4386 35.7458 17.9775 35.0111 16.7483 33.925C15.5178 32.8389 14.615 31.3056 14.04 29.325L17.5859 27.8875C18.065 29.4208 18.7761 30.5868 19.7191 31.3854C20.6608 32.184 21.8984 32.5833 23.4317 32.5833C24.7414 32.5833 25.8518 32.2882 26.7629 31.6978C27.6727 31.1062 28.1275 30.1875 28.1275 28.9417C28.1275 27.8236 27.7762 26.9368 27.0734 26.2813C26.3706 25.6271 24.7414 24.8847 22.1859 24.0542C19.4387 23.1917 17.5539 22.1618 16.5317 20.9645C15.5095 19.7659 14.9984 18.3042 14.9984 16.5792C14.9984 14.5028 15.6692 12.8896 17.0109 11.7396C18.3525 10.5896 19.7261 9.93472 21.1317 9.775V5.75H24.965V9.775C26.5623 10.0306 27.8803 10.6132 28.9191 11.523C29.9567 12.4341 30.715 13.5444 31.1942 14.8542L27.6484 16.3875C27.265 15.3653 26.722 14.5986 26.0192 14.0875C25.3164 13.5764 24.3581 13.3208 23.1442 13.3208C21.7386 13.3208 20.6685 13.6326 19.9338 14.2562C19.1991 14.8784 18.8317 15.6528 18.8317 16.5792C18.8317 17.6333 19.3109 18.4639 20.2692 19.0708C21.2275 19.6778 22.8887 20.3167 25.2525 20.9875C27.4567 21.6264 29.1261 22.6403 30.2608 24.0292C31.3942 25.4195 31.9609 27.025 31.9609 28.8458C31.9609 31.1139 31.29 32.8389 29.9484 34.0208C28.6067 35.2028 26.9456 35.9375 24.965 36.225V40.25H21.1317Z" fill="#4E4E4E"/>
</svg>
