<svg width="55" height="55" viewBox="0 0 55 55" fill="none" xmlns="http://www.w3.org/2000/svg">
<path d="M12.7083 42.2917H33.4167V36.375H12.7083V42.2917ZM12.7083 30.4583H42.2917V24.5417H12.7083V30.4583ZM12.7083 18.625H42.2917V12.7083H12.7083V18.625ZM6.79167 54.125C5.16459 54.125 3.77121 53.5452 2.61155 52.3855C1.45188 51.2258 0.873033 49.8335 0.875005 48.2083V6.79167C0.875005 5.16459 1.45484 3.77121 2.61451 2.61155C3.77417 1.45188 5.16656 0.873033 6.79167 0.875005H48.2083C49.8354 0.875005 51.2288 1.45484 52.3885 2.61451C53.5481 3.77417 54.127 5.16656 54.125 6.79167V48.2083C54.125 49.8354 53.5452 51.2288 52.3855 52.3885C51.2258 53.5481 49.8335 54.127 48.2083 54.125H6.79167Z" fill="#3F3F3F"/>
</svg>
