<svg width="86" height="46" viewBox="0 0 86 46" fill="none" xmlns="http://www.w3.org/2000/svg">
<path d="M44.3857 13.7285C46.5973 13.7285 48.6689 14.1436 50.6006 14.9736C52.5322 15.8037 54.2399 16.9382 55.7236 18.377C57.2074 19.8158 58.3551 21.4897 59.167 23.3989C59.9788 25.3081 60.3988 27.3695 60.4268 29.583C60.4268 31.7689 60.0068 33.8164 59.167 35.7256C58.3271 37.6348 57.1794 39.3226 55.7236 40.7891C54.2679 42.2555 52.5742 43.39 50.6426 44.1924C48.7109 44.9948 46.6253 45.4098 44.3857 45.4375C42.902 45.4375 41.4603 45.2438 40.0605 44.8564C38.6608 44.4691 37.3591 43.9157 36.1553 43.1963C34.9515 42.4769 33.8317 41.5915 32.7959 40.54C31.7601 39.4886 30.9062 38.3127 30.2344 37.0122C29.5345 38.3127 28.6807 39.4748 27.6729 40.4985C26.665 41.5223 25.5452 42.4077 24.3135 43.1548C23.0817 43.9019 21.766 44.4691 20.3662 44.8564C18.9665 45.2438 17.5247 45.4375 16.041 45.4375C13.8854 45.4375 11.8418 45.0363 9.91016 44.2339C7.97852 43.4315 6.27083 42.3109 4.78711 40.8721C3.30339 39.4333 2.1416 37.7869 1.30176 35.9331C0.461914 34.0793 0.0279948 32.0456 0 29.832V3.51855C0 2.66081 0.32194 1.92757 0.96582 1.31885C1.6097 0.710124 2.35156 0.405762 3.19141 0.405762C4.03125 0.405762 4.77311 0.710124 5.41699 1.31885C6.06087 1.92757 6.39681 2.66081 6.4248 3.51855V16.8828C7.82454 15.859 9.33626 15.0843 10.96 14.5586C12.5837 14.0329 14.2773 13.7562 16.041 13.7285C17.5247 13.7285 18.9665 13.9222 20.3662 14.3096C21.766 14.6969 23.0817 15.2503 24.3135 15.9697C25.5452 16.6891 26.665 17.5745 27.6729 18.626C28.6807 19.6774 29.5345 20.8534 30.2344 22.1538C30.9342 20.8534 31.7881 19.6912 32.7959 18.6675C33.8037 17.6437 34.9095 16.7583 36.1133 16.0112C37.3171 15.2642 38.6328 14.6969 40.0605 14.3096C41.4883 13.9222 42.93 13.7285 44.3857 13.7285ZM16.041 39.0874C17.3568 39.0874 18.6025 38.8384 19.7783 38.3403C20.9541 37.8423 21.9759 37.1644 22.8438 36.3066C23.7116 35.4489 24.3975 34.439 24.9014 33.2769C25.4053 32.1147 25.6572 30.8835 25.6572 29.583C25.6572 28.2549 25.4053 27.0236 24.9014 25.8892C24.3975 24.7547 23.7116 23.7448 22.8438 22.8594C21.9759 21.974 20.9681 21.2961 19.8203 20.8257C18.6725 20.3553 17.4128 20.1063 16.041 20.0786C14.6973 20.0786 13.4515 20.3276 12.3037 20.8257C11.1559 21.3237 10.1341 22.0016 9.23828 22.8594C8.34245 23.7171 7.65658 24.7132 7.18066 25.8477C6.70475 26.9821 6.4528 28.2272 6.4248 29.583C6.4248 30.8835 6.67676 32.1147 7.18066 33.2769C7.68457 34.439 8.37044 35.4489 9.23828 36.3066C10.1061 37.1644 11.1279 37.8423 12.3037 38.3403C13.4795 38.8384 14.7253 39.0874 16.041 39.0874ZM44.3857 39.0874C45.7015 39.0874 46.9473 38.8384 48.123 38.3403C49.2988 37.8423 50.3206 37.1644 51.1885 36.3066C52.0563 35.4489 52.7422 34.439 53.2461 33.2769C53.75 32.1147 54.002 30.8835 54.002 29.583C54.002 28.2549 53.75 27.0236 53.2461 25.8892C52.7422 24.7547 52.0563 23.7448 51.1885 22.8594C50.3206 21.974 49.3128 21.2961 48.165 20.8257C47.0173 20.3553 45.7575 20.1063 44.3857 20.0786C43.07 20.0786 41.8242 20.3276 40.6484 20.8257C39.4727 21.3237 38.4508 22.0016 37.583 22.8594C36.7152 23.7171 36.0293 24.7271 35.5254 25.8892C35.0215 27.0513 34.7695 28.2826 34.7695 29.583C34.7695 30.8835 35.0215 32.1147 35.5254 33.2769C36.0293 34.439 36.7152 35.4489 37.583 36.3066C38.4508 37.1644 39.4727 37.8423 40.6484 38.3403C41.8242 38.8384 43.07 39.0874 44.3857 39.0874ZM85.3281 40.125C85.776 40.6507 86 41.2733 86 41.9927C86 42.9334 85.6501 43.6943 84.9502 44.2754C84.2503 44.8564 83.4245 45.147 82.4727 45.147C81.9688 45.147 81.4788 45.0501 81.0029 44.8564C80.527 44.6628 80.1071 44.3584 79.7432 43.9434L72.2686 34.854L64.752 43.9434C64.416 44.3307 64.0101 44.6213 63.5342 44.8149C63.0583 45.0086 62.5544 45.1193 62.0225 45.147C61.0986 45.147 60.2868 44.8564 59.5869 44.2754C58.887 43.6943 58.5231 42.9334 58.4951 41.9927C58.4951 41.3286 58.7191 40.7061 59.167 40.125L67.8594 29.5415L59.167 18.958C58.7191 18.377 58.4951 17.7544 58.4951 17.0903C58.4951 16.62 58.5931 16.1911 58.7891 15.8037C58.985 15.4163 59.237 15.0843 59.5449 14.8076C59.8529 14.5309 60.2308 14.3234 60.6787 14.1851C61.1266 14.0467 61.5605 13.9637 61.9805 13.936C62.4844 13.936 62.9883 14.0329 63.4922 14.2266C63.9961 14.4202 64.416 14.7246 64.752 15.1396L72.2686 24.2705L79.7432 15.1396C80.0511 14.7523 80.471 14.4618 81.0029 14.2681C81.5348 14.0744 82.0527 13.9637 82.5566 13.936C83.0046 13.936 83.4245 14.0052 83.8164 14.1436C84.2083 14.2819 84.5723 14.5033 84.9082 14.8076C85.2441 15.112 85.5101 15.4578 85.7061 15.8452C85.902 16.2326 86 16.6476 86 17.0903C86 17.7544 85.776 18.377 85.3281 18.958L76.5938 29.5415L85.3281 40.125Z" fill="#3F3F3F"/>
</svg>
