<svg width="91" height="68" viewBox="0 0 91 68" fill="none" xmlns="http://www.w3.org/2000/svg">
<path d="M91.0003 38.1536C91.0003 30.5817 86.1607 24.1861 79.3412 21.8336C78.0946 13.6001 70.9818 7.35146 62.4758 7.35146C58.956 7.35146 55.7296 8.38065 53.0165 10.2185C49.79 6.24875 44.9504 3.67578 39.5241 3.67578C31.0181 3.67578 23.9053 9.92443 22.5854 18.0844C22.512 18.0844 22.4387 18.0844 22.3654 18.0844C12.8327 18.0844 5.1333 25.8033 5.1333 35.2866C5.1333 44.7698 12.8327 52.4888 22.292 52.4888H22.3654C23.2453 61.1633 30.5781 68.0001 39.4508 68.0001C43.8505 68.0001 47.8835 66.3093 50.89 63.5893C53.8964 66.3093 57.9294 68.0001 62.3291 68.0001C70.5418 68.0001 77.4347 62.1925 79.1212 54.4736C86.0874 52.1947 91.0003 45.7255 91.0003 38.1536Z" fill="#688DED"/>
<path d="M66.2887 6.91021C64.0155 5.80751 61.4491 5.14589 58.8093 5.14589C55.2895 5.14589 52.0631 6.17508 49.35 8.01292C46.1235 4.04319 41.2839 1.47021 35.8576 1.47021C27.3516 1.47021 20.2388 7.71886 18.9189 15.8789C18.8455 15.8789 18.7722 15.8789 18.6989 15.8789C9.16623 15.8789 1.4668 23.5978 1.4668 33.081C1.4668 42.5643 9.16623 50.2832 18.6255 50.2832H18.6989C19.5788 58.9578 26.9116 65.7945 35.7843 65.7945C40.184 65.7945 44.217 64.1037 47.2234 61.3837C50.2299 64.1037 54.2629 65.7945 58.6626 65.7945C66.8753 65.7945 73.7682 59.987 75.4547 52.2681C82.2742 49.9891 87.2605 43.5199 87.2605 35.9481M85.8673 28.8908C83.9607 24.5535 80.221 21.1718 75.748 19.5545C75.2347 16.467 73.9148 13.5999 72.0083 11.321L85.8673 28.8908Z" stroke="white" stroke-width="4" stroke-miterlimit="10" stroke-linecap="round" stroke-linejoin="round"/>
<path d="M18.6255 15.8789C28.0848 15.8789 35.7842 23.5978 35.7842 33.0811" stroke="white" stroke-width="4" stroke-miterlimit="10" stroke-linecap="round" stroke-linejoin="round"/>
<path d="M53.0162 48.5923C53.0162 58.0755 45.3167 65.7944 35.8574 65.7944" stroke="white" stroke-width="4" stroke-miterlimit="10" stroke-linecap="round" stroke-linejoin="round"/>
<path d="M66.2886 33.0811C72.0082 35.8746 75.8945 41.7556 75.8945 48.5924C75.8945 49.7686 75.7479 50.9448 75.5279 52.0475" stroke="white" stroke-width="4" stroke-miterlimit="10" stroke-linecap="round" stroke-linejoin="round"/>
<path d="M48.7632 22.9365C52.3563 24.7008 54.8494 28.45 54.8494 32.7138C54.8494 33.449 54.7761 34.1841 54.6294 34.9192" stroke="#2960ED" stroke-width="4" stroke-miterlimit="10" stroke-linecap="round" stroke-linejoin="round"/>
<path d="M53.7495 26.612C54.6294 24.186 56.9026 22.3482 59.6891 22.0542C60.2024 21.9806 60.6423 21.9806 61.0823 22.0542" stroke="#2960ED" stroke-width="4" stroke-miterlimit="10" stroke-linecap="round" stroke-linejoin="round"/>
<path d="M14.8125 37.4921C18.8455 37.4186 22.7319 39.5505 24.7851 43.3732C25.1517 44.0348 25.3717 44.6964 25.5917 45.4315" stroke="#2960ED" stroke-width="4" stroke-miterlimit="10" stroke-linecap="round" stroke-linejoin="round"/>
<path d="M22.0721 38.9623C21.8521 36.9774 22.6587 34.9926 24.4186 33.8164C24.7119 33.5958 25.0785 33.4488 25.3718 33.3018" stroke="#2960ED" stroke-width="4" stroke-miterlimit="10" stroke-linecap="round" stroke-linejoin="round"/>
<path d="M43.7769 13.9673C45.0968 11.5413 47.0033 9.55648 49.2765 8.0127" stroke="white" stroke-width="4" stroke-miterlimit="10" stroke-linecap="round" stroke-linejoin="round"/>
</svg>
