<svg width="48" height="48" viewBox="0 0 48 48" fill="none" xmlns="http://www.w3.org/2000/svg">
<g opacity="0.4">
<g opacity="0.4">
<path opacity="0.4" d="M28.8365 10.98C27.8844 10.8041 27.01 11.4117 26.8288 12.3411C26.6475 13.2704 27.257 14.1778 28.1832 14.3597C30.9717 14.9033 33.1249 17.0618 33.6706 19.8599V19.8619C33.826 20.6674 34.5351 21.2529 35.3517 21.2529C35.4613 21.2529 35.5708 21.243 35.6824 21.223C36.6085 21.0371 37.218 20.1317 37.0368 19.2004C36.2221 15.0212 33.0054 11.7934 28.8365 10.98Z" fill="#36395A"/>
<path opacity="0.4" d="M28.7117 4.01586C28.2655 3.9519 27.8174 4.08381 27.4608 4.36762C27.0944 4.65542 26.8653 5.07113 26.8155 5.53682C26.7099 6.47817 27.3891 7.32958 28.3293 7.43551C34.8126 8.15901 39.8519 13.2095 40.5809 19.7131C40.6785 20.5845 41.4094 21.242 42.2819 21.242C42.3476 21.242 42.4113 21.238 42.4771 21.23C42.9332 21.1801 43.3395 20.9542 43.6263 20.5945C43.9112 20.2347 44.0406 19.787 43.9888 19.3293C43.0806 11.2149 36.8004 4.91724 28.7117 4.01586Z" fill="#36395A"/>
</g>
</g>
<path fill-rule="evenodd" clip-rule="evenodd" d="M22.0635 25.9448C30.0416 33.9207 31.8515 24.6934 36.9313 29.7696C41.8286 34.6655 44.6432 35.6464 38.4385 41.8494C37.6613 42.474 32.7232 49.9885 15.3692 32.6393C-1.98696 15.288 5.52317 10.3449 6.14794 9.5679C12.3677 3.34769 13.3317 6.17877 18.229 11.0747C23.3087 16.153 14.0853 17.9688 22.0635 25.9448Z" fill="#36395A"/>
</svg>
