<svg width="41" height="48" viewBox="0 0 41 48" fill="none" xmlns="http://www.w3.org/2000/svg">
<path d="M38.4882 27.4342C38.4882 27.8561 38.4765 28.2838 38.4472 28.7057C38.4355 28.9107 38.4179 29.11 38.4003 29.315C38.3828 29.5201 38.3886 29.7603 38.3242 29.9596C38.4179 29.649 38.3242 29.9537 38.3124 30.0475C38.3007 30.1412 38.2831 30.235 38.2656 30.3228C38.2304 30.5338 38.1894 30.7447 38.1484 30.9498C38.0663 31.3482 37.9726 31.7525 37.8671 32.1451C37.6562 32.9302 37.3925 33.692 37.0878 34.442C37.0058 34.6354 37.1113 34.3951 37.1171 34.3776C37.1113 34.4127 37.0703 34.4948 37.0527 34.5182C37.0175 34.6002 36.9824 34.6822 36.9413 34.7643C36.8535 34.9518 36.7656 35.1393 36.6777 35.3268C36.5019 35.6842 36.3144 36.0358 36.1152 36.3815C35.7167 37.0729 35.2773 37.735 34.8027 38.3678C34.7792 38.3971 34.7441 38.4616 34.7089 38.4908C34.7265 38.4791 34.8788 38.2741 34.7499 38.4381C34.6913 38.5084 34.6386 38.5787 34.58 38.6491C34.4453 38.819 34.3046 38.983 34.164 39.1471C33.9121 39.4342 33.6542 39.7213 33.3847 39.9908C32.8339 40.5592 32.2421 41.0924 31.6269 41.5846C31.5859 41.6139 31.5449 41.6491 31.5039 41.6783C31.3457 41.8073 31.5449 41.6549 31.5566 41.6373C31.5039 41.7018 31.4101 41.7487 31.3398 41.8014C31.1641 41.9303 30.9883 42.0592 30.8125 42.1823C30.4961 42.399 30.1738 42.61 29.8457 42.8092C29.1601 43.2252 28.457 43.5944 27.7246 43.9225C27.6425 43.9577 27.5254 44.0397 27.4375 44.0456C27.4609 44.0456 27.6953 43.9401 27.5019 44.0163C27.455 44.0339 27.4082 44.0573 27.3554 44.0749C27.1621 44.151 26.9687 44.2272 26.7754 44.2975C26.4062 44.4323 26.0371 44.5553 25.662 44.6667C24.8769 44.901 24.0742 45.0827 23.2656 45.2116C23.1601 45.2292 23.0546 45.2409 22.9492 45.2585C22.8613 45.2702 22.7792 45.3229 23.0195 45.2467C22.9726 45.2585 22.9023 45.2643 22.8613 45.2643C22.6445 45.2878 22.4335 45.3112 22.2167 45.3346C21.8124 45.3698 21.4023 45.3932 20.9921 45.4049C20.1308 45.4284 19.2695 45.3932 18.4198 45.2995C18.3261 45.2878 18.2323 45.276 18.1386 45.2643C18.0858 45.2585 18.0331 45.2467 17.9804 45.2467C18.0096 45.2467 18.2616 45.2878 18.0507 45.2585C17.8397 45.2292 17.6288 45.194 17.4179 45.1588C17.0136 45.0885 16.6093 45.0006 16.2108 44.901C15.4256 44.7077 14.6463 44.4616 13.8905 44.1686C13.8085 44.1335 13.7206 44.1042 13.6385 44.069C13.5917 44.0514 13.5448 44.028 13.4921 44.0104C13.3866 43.9694 13.3866 44.0221 13.5565 44.0397C13.3807 44.0221 13.1522 43.8639 12.9881 43.7878C12.6249 43.6178 12.2674 43.4362 11.9159 43.2487C11.2186 42.8678 10.5448 42.4401 9.90029 41.9772C9.75966 41.8776 9.54287 41.7663 9.4374 41.6315C9.4374 41.6315 9.6249 41.778 9.52529 41.696C9.48428 41.6667 9.44326 41.6315 9.40225 41.6022C9.31436 41.5319 9.22061 41.4557 9.13272 41.3854C8.82803 41.1335 8.52921 40.8698 8.24209 40.6003C7.66201 40.0612 7.11709 39.4812 6.6132 38.8776C6.49016 38.7312 6.37297 38.5788 6.24992 38.4323C6.12102 38.2683 6.37883 38.6081 6.22063 38.3972C6.15031 38.3034 6.08 38.2155 6.01554 38.1218C5.78117 37.7995 5.55851 37.4714 5.34171 37.1374C4.91397 36.4636 4.52725 35.7663 4.18157 35.0457C4.09954 34.8699 4.01751 34.6941 3.94133 34.5183C3.92375 34.4832 3.88274 34.4128 3.87688 34.3777C3.87688 34.3718 3.97063 34.6003 3.91789 34.4773C3.87688 34.366 3.83 34.2605 3.78899 34.155C3.6425 33.78 3.50188 33.3992 3.37884 33.0125C3.12688 32.2332 2.92767 31.4422 2.78118 30.6395C2.74603 30.4402 2.71087 30.2469 2.68157 30.0477C2.67571 29.9891 2.62298 29.7078 2.65814 29.8836C2.69329 30.0594 2.65814 29.8836 2.65228 29.8426C2.64642 29.7781 2.6347 29.7078 2.62884 29.6434C2.58196 29.2274 2.54681 28.8055 2.52923 28.3895C2.48235 27.4285 2.50579 26.4676 2.6054 25.5067C2.61712 25.3954 2.62884 25.2782 2.64056 25.1669C2.64642 25.1024 2.65228 25.038 2.66399 24.9735C2.62298 25.2255 2.65228 25.0497 2.66399 24.9969C2.70501 24.7391 2.74602 24.4813 2.7929 24.2293C2.88665 23.7372 2.99212 23.2508 3.12688 22.7704C3.25579 22.2958 3.40227 21.8212 3.56634 21.3582C3.64837 21.1356 3.7304 20.9129 3.8183 20.6903C3.85931 20.5848 3.90033 20.4852 3.94134 20.3856C3.83587 20.6434 4.00579 20.245 4.02923 20.1864C4.42767 19.3016 4.89056 18.4461 5.4238 17.6316C5.68747 17.2273 5.96872 16.8348 6.25583 16.448C6.28513 16.407 6.39646 16.2781 6.24411 16.4656C6.28513 16.4187 6.32029 16.366 6.36131 16.3191C6.42576 16.243 6.49021 16.1609 6.54881 16.0847C6.62498 15.991 6.70115 15.8972 6.78318 15.8094C7.12889 15.3992 7.49217 15.0066 7.86125 14.6141C8.7636 13.659 9.70111 12.7332 10.6503 11.825C12.7245 9.83282 14.8631 7.89921 17.0136 5.98907C18.373 4.782 19.744 3.58671 21.1269 2.40311C21.1914 2.34451 21.2617 2.28591 21.3262 2.23319H19.6679C20.3417 2.80741 21.0156 3.38744 21.6835 3.9734C23.2421 5.32694 24.7889 6.69805 26.3183 8.08083C28.0585 9.65701 29.787 11.2567 31.4569 12.9031C32.1659 13.6062 32.8691 14.3153 33.5487 15.0535C33.8299 15.364 34.1112 15.6746 34.3749 15.9968C34.4628 16.1023 34.5506 16.2078 34.6385 16.3132C34.6971 16.3894 34.8085 16.53 34.6854 16.3718C34.7499 16.4597 34.8202 16.5476 34.8846 16.6296C35.119 16.9402 35.3417 17.2625 35.5526 17.5906C35.9803 18.2468 36.3671 18.9266 36.7069 19.6296C36.7889 19.7995 36.8709 19.9695 36.9471 20.1394C36.9881 20.2273 37.0233 20.3093 37.0643 20.3972C37.076 20.4148 37.1346 20.5613 37.0819 20.4323C37.0233 20.2976 37.1053 20.4851 37.1112 20.5085C37.2635 20.8718 37.3983 21.2468 37.5272 21.6218C37.7908 22.3953 38.0018 23.1863 38.16 23.9832C38.1951 24.1707 38.2303 24.364 38.2654 24.5574C38.283 24.6511 38.2947 24.7507 38.3123 24.8445C38.324 24.9324 38.3826 25.2019 38.3299 24.9675C38.4119 25.3601 38.4237 25.7937 38.4471 26.1922C38.4764 26.6023 38.4881 27.0184 38.4881 27.4344C38.4881 28.0496 39.0272 28.6356 39.66 28.6063C40.2929 28.5771 40.832 28.0907 40.832 27.4344C40.8261 24.0184 39.9648 20.6375 38.3242 17.6434C37.1522 15.5047 35.5527 13.6824 33.8476 11.9598C32.2071 10.2957 30.4961 8.70197 28.7676 7.12579C27.1562 5.65504 25.5274 4.20197 23.8809 2.76636C23.0489 2.0398 22.2169 1.3015 21.3672 0.592536C21.3555 0.580817 21.3438 0.574958 21.3321 0.563239C20.8223 0.129642 20.1895 0.123781 19.6738 0.563239C18.6426 1.44214 17.623 2.33281 16.6035 3.22338C14.4532 5.11006 12.3262 7.01442 10.2402 8.97138C8.36519 10.7292 6.44326 12.5046 4.82026 14.5026C2.11908 17.819 0.501868 21.8621 0.214832 26.1394C-0.0254033 29.743 0.736317 33.3874 2.3594 36.6102C3.88865 39.6571 6.21483 42.2644 9.00976 44.2039C11.875 46.1902 15.2442 47.3622 18.7071 47.6844C22.2461 48.0125 25.8262 47.3562 29.0547 45.8855C32.1601 44.4676 34.8321 42.2234 36.8711 39.493C38.9512 36.7097 40.2285 33.3992 40.6738 29.9597C40.7793 29.1218 40.8379 28.2839 40.8379 27.4401C40.8379 26.8249 40.2988 26.239 39.6659 26.2682C39.0214 26.2916 38.4882 26.778 38.4882 27.4342V27.4342Z" fill="#36395A"/>
<path d="M21.6723 46.6169V45.4099V42.1227V37.2594V31.3239V24.82V18.2575V12.1345V6.9372V3.21644C21.6723 2.6305 21.684 2.04452 21.6723 1.45277V1.37659C21.6723 0.761357 21.1332 0.175414 20.5004 0.204664C19.8676 0.233961 19.3285 0.720289 19.3285 1.37659V2.58366V5.87081V10.7341V16.6696V23.1735V29.736V35.859V41.0563V44.7771C19.3285 45.363 19.3167 45.949 19.3285 46.5408V46.6169C19.3285 47.2322 19.8675 47.8181 20.5004 47.7889C21.1332 47.7596 21.6723 47.2732 21.6723 46.6169V46.6169Z" fill="#36395A"/>
<path d="M21.0915 18.7673C22.2927 17.9997 23.4997 17.238 24.7009 16.4703C26.6169 15.2516 28.533 14.0328 30.4489 12.82C30.8884 12.5446 31.322 12.2633 31.7614 11.988C32.277 11.6598 32.5349 10.9274 32.1833 10.3825C31.8493 9.86691 31.1345 9.60909 30.5779 9.96066C29.3767 10.7282 28.1696 11.4899 26.9684 12.2576C25.0524 13.4763 23.1364 14.6951 21.2204 15.9079C20.781 16.1833 20.3474 16.4646 19.9079 16.74C19.3923 17.0681 19.1345 17.8005 19.4861 18.3454C19.82 18.861 20.5349 19.1188 21.0915 18.7673Z" fill="#36395A"/>
<path d="M36.5959 17.0036C34.715 18.1989 32.8284 19.3942 30.9475 20.5954C27.9475 22.4996 24.9534 24.404 21.9534 26.3082C21.2678 26.7418 20.5882 27.1754 19.9026 27.6091C19.3869 27.9372 19.1291 28.6696 19.4807 29.2145C19.8147 29.7301 20.5295 29.9879 21.0861 29.6364C22.967 28.4411 24.8537 27.2458 26.7346 26.0446C29.7346 24.1404 32.7287 22.236 35.7287 20.3318C36.4142 19.8982 37.0939 19.4646 37.7795 19.0309C38.2951 18.7028 38.5529 17.9704 38.2014 17.4255C37.8674 16.9099 37.1525 16.6521 36.5959 17.0036V17.0036Z" fill="#36395A"/>
<path d="M21.0915 40.7517C21.7243 40.3474 22.3571 39.9431 22.9957 39.5446C24.5192 38.5778 26.0427 37.611 27.566 36.6384C29.4175 35.4606 31.2691 34.2829 33.1207 33.1051C34.7145 32.0914 36.3082 31.0778 37.902 30.07C38.6754 29.5778 39.4606 29.1032 40.2223 28.5934C40.234 28.5876 40.2457 28.5817 40.2574 28.57C40.773 28.2419 41.0308 27.5095 40.6793 26.9646C40.3453 26.4489 39.6304 26.1911 39.0739 26.5427C38.441 26.947 37.8083 27.3513 37.1696 27.7498C35.6461 28.7166 34.1227 29.6834 32.5993 30.656C30.7478 31.8337 28.8963 33.0114 27.0446 34.1893C25.4509 35.2029 23.8571 36.2166 22.2634 37.2244C21.4899 37.7166 20.7048 38.1912 19.9431 38.7009C19.9314 38.7068 19.9196 38.7127 19.9079 38.7244C19.3923 39.0525 19.1345 39.7849 19.486 40.3298C19.82 40.8513 20.5349 41.1033 21.0915 40.7517V40.7517Z" fill="#36395A"/>
</svg>
