<svg width="57" height="60" viewBox="0 0 57 60" fill="none" xmlns="http://www.w3.org/2000/svg">
<path d="M7.35417 0.583374H39.4583C41.3093 0.583374 43.0845 1.31868 44.3933 2.62752C45.7022 3.93637 46.4375 5.71155 46.4375 7.56254V26.5822C43.2564 25.5515 39.8523 25.4199 36.6011 26.2018C33.3499 26.9838 30.378 28.649 28.0135 31.0135C25.6489 33.378 23.9838 36.3499 23.2018 39.6011C22.4198 42.8523 22.5514 46.2564 23.5821 49.4375H4.5625C4.5625 50.1779 4.85662 50.888 5.38016 51.4116C5.9037 51.9351 6.61377 52.2292 7.35417 52.2292H24.7518C25.5511 53.7608 26.5644 55.1708 27.7612 56.4167H7.35417C5.50318 56.4167 3.728 55.6814 2.41915 54.3726C1.1103 53.0637 0.375 51.2885 0.375 49.4375V7.56254C0.375 5.71155 1.1103 3.93637 2.41915 2.62752C3.728 1.31868 5.50318 0.583374 7.35417 0.583374ZM11.5417 8.95837C10.8013 8.95837 10.0912 9.2525 9.56766 9.77604C9.04412 10.2996 8.75 11.0096 8.75 11.75V14.5417C8.75 15.2821 9.04412 15.9922 9.56766 16.5157C10.0912 17.0393 10.8013 17.3334 11.5417 17.3334H33.875C34.6154 17.3334 35.3255 17.0393 35.849 16.5157C36.3725 15.9922 36.6667 15.2821 36.6667 14.5417V11.75C36.6667 11.0096 36.3725 10.2996 35.849 9.77604C35.3255 9.2525 34.6154 8.95837 33.875 8.95837H11.5417ZM56.2083 43.8542C56.2083 39.782 54.5907 35.8766 51.7112 32.9972C48.8317 30.1177 44.9263 28.5 40.8542 28.5C36.782 28.5 32.8766 30.1177 29.9971 32.9972C27.1177 35.8766 25.5 39.782 25.5 43.8542C25.5 47.9264 27.1177 51.8318 29.9971 54.7112C32.8766 57.5907 36.782 59.2084 40.8542 59.2084C44.9263 59.2084 48.8317 57.5907 51.7112 54.7112C54.5907 51.8318 56.2083 47.9264 56.2083 43.8542ZM39.2182 37.1458L47.0517 42.2825C47.2944 42.4383 47.4935 42.6533 47.6302 42.9072C47.767 43.1612 47.8369 43.4458 47.8333 43.7342C47.8336 44.0244 47.7647 44.3106 47.6323 44.5689C47.5074 44.8245 47.3166 45.0423 47.0796 45.1998L39.2434 50.5458C39.107 50.6376 38.9586 50.7099 38.8023 50.7608C38.4394 50.8767 38.0465 50.8538 37.6996 50.6966C37.4996 50.603 37.3173 50.4755 37.1608 50.3197C37.0096 50.1551 36.887 49.9664 36.7979 49.7614C36.7107 49.5517 36.6661 49.3268 36.6667 49.0998V38.6087C36.6652 38.2728 36.7612 37.9436 36.9431 37.6612C37.1249 37.3788 37.3848 37.1551 37.6912 37.0174C37.9346 36.9034 38.2036 36.855 38.4715 36.877C38.7393 36.899 38.9968 36.9907 39.2182 37.143V37.1458Z" fill="#3F3F3F"/>
</svg>
