<svg width="41" height="34" viewBox="0 0 41 34" fill="none" xmlns="http://www.w3.org/2000/svg">
<path d="M38.9996 8.24978C38.5262 8.24978 38.0935 7.98234 37.8816 7.55879C36.9295 6.10444 35.6003 4.93551 34.0362 4.17672C32.4721 3.41752 30.7315 3.09736 28.9996 3.25011C26.1118 3.32628 23.2918 4.14157 20.8087 5.61818C17.9815 7.276 14.7764 8.18211 11.4998 8.24982C9.30291 8.41221 7.10358 7.9669 5.14276 6.96325C3.18151 5.95962 1.53462 4.43575 0.38155 2.55914C0.0714249 1.94224 0.320027 1.19093 0.936518 0.880857C1.55301 0.570732 2.30473 0.818496 2.61523 1.43499C3.56654 2.89106 4.89577 4.0617 6.46027 4.82167C8.02509 5.58172 9.76659 5.90231 11.4997 5.74996C14.3876 5.67379 17.2076 4.8585 19.6907 3.38189C22.5179 1.72364 25.7225 0.817535 28.9996 0.749821C31.1964 0.587853 33.3958 1.03274 35.3566 2.03682C37.3174 3.04045 38.9647 4.56389 40.1178 6.44093C40.3116 6.82849 40.2911 7.28845 40.063 7.65721C39.8353 8.02593 39.4331 8.24984 38.9995 8.24984L38.9996 8.24978ZM39.5587 20.6183C40.1761 20.3091 40.4259 19.5586 40.1179 18.9414C38.9648 17.0642 37.3175 15.5404 35.3567 14.5368C33.3959 13.5332 31.1965 13.0882 28.9997 13.2502C25.7226 13.318 22.518 14.2241 19.6908 15.8819C17.2076 17.3584 14.3876 18.1738 11.4998 18.2503C9.76668 18.4026 8.02518 18.0816 6.46036 17.3216C4.89586 16.5619 3.56665 15.3913 2.61533 13.9349C2.30479 13.3188 1.5531 13.0706 0.936614 13.3812C0.320125 13.6913 0.0715213 14.4426 0.381646 15.059C1.53472 16.9362 3.18161 18.46 5.14286 19.4636C7.10368 20.4672 9.303 20.9121 11.4999 20.7501C14.7765 20.6823 17.9816 19.7762 20.8087 18.1185C23.2919 16.642 26.1119 15.8266 28.9997 15.7501C30.7316 15.5978 32.4722 15.9179 34.0363 16.6767C35.6004 17.4355 36.9296 18.6049 37.8817 20.0592C38.1906 20.6765 38.9415 20.9268 39.5587 20.6184L39.5587 20.6183ZM39.5587 33.1187C40.1761 32.8094 40.4259 32.059 40.1179 31.4413C38.9648 29.5646 37.3175 28.0408 35.3567 27.0372C33.3959 26.0335 31.1965 25.5883 28.9997 25.7506C25.7226 25.8184 22.518 26.7245 19.6908 28.3822C17.2076 29.8588 14.3876 30.6741 11.4998 30.7503C9.76668 30.9031 8.02518 30.5821 6.46036 29.822C4.89586 29.062 3.56665 27.8913 2.61533 26.4353C2.30479 25.8189 1.5531 25.5711 0.936614 25.8812C0.320125 26.1918 0.0715213 26.9426 0.381646 27.5595C1.53472 29.4366 3.18161 30.96 5.14286 31.9636C7.10368 32.9676 9.303 33.4125 11.4999 33.2506C14.7765 33.1828 17.9816 32.2767 20.8087 30.6185C23.2919 29.142 26.1119 28.3266 28.9997 28.2505C30.7316 28.0981 32.4722 28.4183 34.0363 29.1771C35.6004 29.9359 36.9296 31.1048 37.8817 32.5596C38.1906 33.1769 38.9415 33.4272 39.5587 33.1187L39.5587 33.1187Z" fill="#36395A"/>
</svg>
