<svg width="91" height="111" viewBox="0 0 91 111" fill="none" xmlns="http://www.w3.org/2000/svg">
<circle cx="2.21951" cy="2.21951" r="2.21951" fill="#C4C4C4"/>
<circle cx="2.21951" cy="15.5367" r="2.21951" fill="#C4C4C4"/>
<circle cx="2.21951" cy="28.8535" r="2.21951" fill="#C4C4C4"/>
<circle cx="2.21951" cy="42.1707" r="2.21951" fill="#C4C4C4"/>
<circle cx="2.21951" cy="55.4878" r="2.21951" fill="#C4C4C4"/>
<circle cx="2.21951" cy="68.805" r="2.21951" fill="#C4C4C4"/>
<circle cx="2.21951" cy="82.1219" r="2.21951" fill="#C4C4C4"/>
<circle cx="2.21951" cy="95.439" r="2.21951" fill="#C4C4C4"/>
<circle cx="2.21951" cy="108.756" r="2.21951" fill="#C4C4C4"/>
<circle cx="16.6463" cy="2.21951" r="2.21951" fill="#C4C4C4"/>
<circle cx="16.6463" cy="15.5367" r="2.21951" fill="#C4C4C4"/>
<circle cx="16.6463" cy="28.8535" r="2.21951" fill="#C4C4C4"/>
<circle cx="16.6463" cy="42.1707" r="2.21951" fill="#C4C4C4"/>
<circle cx="16.6463" cy="55.4878" r="2.21951" fill="#C4C4C4"/>
<circle cx="16.6463" cy="68.805" r="2.21951" fill="#C4C4C4"/>
<circle cx="16.6463" cy="82.1219" r="2.21951" fill="#C4C4C4"/>
<circle cx="16.6463" cy="95.439" r="2.21951" fill="#C4C4C4"/>
<circle cx="16.6463" cy="108.756" r="2.21951" fill="#C4C4C4"/>
<circle cx="31.0733" cy="2.21951" r="2.21951" fill="#C4C4C4"/>
<circle cx="31.0733" cy="15.5367" r="2.21951" fill="#C4C4C4"/>
<circle cx="31.0733" cy="28.8535" r="2.21951" fill="#C4C4C4"/>
<circle cx="31.0733" cy="42.1707" r="2.21951" fill="#C4C4C4"/>
<circle cx="31.0733" cy="55.4878" r="2.21951" fill="#C4C4C4"/>
<circle cx="31.0733" cy="68.805" r="2.21951" fill="#C4C4C4"/>
<circle cx="31.0733" cy="82.1219" r="2.21951" fill="#C4C4C4"/>
<circle cx="31.0733" cy="95.439" r="2.21951" fill="#C4C4C4"/>
<circle cx="31.0733" cy="108.756" r="2.21951" fill="#C4C4C4"/>
<circle cx="45.5" cy="2.21951" r="2.21951" fill="#C4C4C4"/>
<circle cx="45.5" cy="15.5367" r="2.21951" fill="#C4C4C4"/>
<circle cx="45.5" cy="28.8535" r="2.21951" fill="#C4C4C4"/>
<circle cx="45.5" cy="42.1707" r="2.21951" fill="#C4C4C4"/>
<circle cx="45.5" cy="55.4878" r="2.21951" fill="#C4C4C4"/>
<circle cx="45.5" cy="68.805" r="2.21951" fill="#C4C4C4"/>
<circle cx="45.5" cy="82.1219" r="2.21951" fill="#C4C4C4"/>
<circle cx="45.5" cy="95.439" r="2.21951" fill="#C4C4C4"/>
<circle cx="45.5" cy="108.756" r="2.21951" fill="#C4C4C4"/>
<circle cx="59.9268" cy="2.21951" r="2.21951" fill="#C4C4C4"/>
<circle cx="59.9268" cy="15.5367" r="2.21951" fill="#C4C4C4"/>
<circle cx="59.9268" cy="28.8535" r="2.21951" fill="#C4C4C4"/>
<circle cx="59.9268" cy="42.1707" r="2.21951" fill="#C4C4C4"/>
<circle cx="59.9268" cy="55.4878" r="2.21951" fill="#C4C4C4"/>
<circle cx="59.9268" cy="68.805" r="2.21951" fill="#C4C4C4"/>
<circle cx="59.9268" cy="82.1219" r="2.21951" fill="#C4C4C4"/>
<circle cx="59.9268" cy="95.439" r="2.21951" fill="#C4C4C4"/>
<circle cx="59.9268" cy="108.756" r="2.21951" fill="#C4C4C4"/>
<circle cx="74.3535" cy="2.21951" r="2.21951" fill="#C4C4C4"/>
<circle cx="74.3535" cy="15.5367" r="2.21951" fill="#C4C4C4"/>
<circle cx="74.3535" cy="28.8535" r="2.21951" fill="#C4C4C4"/>
<circle cx="74.3535" cy="42.1707" r="2.21951" fill="#C4C4C4"/>
<circle cx="74.3535" cy="55.4878" r="2.21951" fill="#C4C4C4"/>
<circle cx="74.3535" cy="68.805" r="2.21951" fill="#C4C4C4"/>
<circle cx="74.3535" cy="82.1219" r="2.21951" fill="#C4C4C4"/>
<circle cx="74.3535" cy="95.439" r="2.21951" fill="#C4C4C4"/>
<circle cx="74.3535" cy="108.756" r="2.21951" fill="#C4C4C4"/>
<circle cx="88.7805" cy="2.21951" r="2.21951" fill="#C4C4C4"/>
<circle cx="88.7805" cy="15.5367" r="2.21951" fill="#C4C4C4"/>
<circle cx="88.7805" cy="28.8535" r="2.21951" fill="#C4C4C4"/>
<circle cx="88.7805" cy="42.1707" r="2.21951" fill="#C4C4C4"/>
<circle cx="88.7805" cy="55.4878" r="2.21951" fill="#C4C4C4"/>
<circle cx="88.7805" cy="68.805" r="2.21951" fill="#C4C4C4"/>
<circle cx="88.7805" cy="82.1219" r="2.21951" fill="#C4C4C4"/>
<circle cx="88.7805" cy="95.439" r="2.21951" fill="#C4C4C4"/>
<circle cx="88.7805" cy="108.756" r="2.21951" fill="#C4C4C4"/>
</svg>
