<svg width="88" height="69" viewBox="0 0 88 69" fill="none" xmlns="http://www.w3.org/2000/svg">
<g clip-path="url(#clip0_725_4336)">
<path d="M31.5182 9.09225C16.5261 5.49777 3.9746 19.3119 4.95083 33.7603C5.36921 40.4559 8.08871 46.0943 7.11248 53.0718C6.13625 60.0494 1.60376 67.5202 12.0634 68.8594C19.8732 69.9166 23.29 62.7981 27.1949 57.3006C28.3803 55.6796 29.6355 54.129 30.9603 52.5785C32.2852 51.0279 33.6798 49.4773 35.0047 47.9268C36.3296 46.3762 37.5847 44.8257 38.7702 43.1341C39.8859 41.5131 43.0935 34.606 43.2329 33.9012C43.5816 32.4916 43.7908 31.082 43.8605 29.6724C43.9302 28.1924 43.9302 26.7828 43.7908 25.3027C43.6513 23.8931 43.3724 22.413 43.0237 21.0034C42.6054 19.6643 42.1172 18.3251 41.4897 17.0565C40.8621 15.8583 40.095 14.6602 39.1885 13.603C38.2821 12.5458 37.2361 11.6295 36.0507 10.9247C34.8653 10.1495 33.5404 9.58561 32.1458 9.16273C31.8668 9.16273 31.6576 9.09225 31.5182 9.09225Z" fill="#E3E3E3"/>
<path d="M84.444 17.9725C82.4916 20.3688 79.3537 21.0736 77.192 23.2585C75.379 25.1615 74.4725 28.0512 73.0779 30.236C69.6611 35.5221 64.6405 39.4689 58.0161 39.2575C52.5074 39.1165 48.6025 35.804 48.8814 30.0246C49.0209 27.6283 50.6944 25.091 50.3457 22.6242C50.0668 20.3688 48.463 19.2412 47.6263 17.2677C42.4662 4.44034 62.967 4.29938 70.2887 3.8765C74.6817 3.59458 84.0256 2.25546 87.024 6.6957C89.4646 10.2902 86.7451 15.1533 84.444 17.9725C82.4916 20.3688 88.2792 13.2503 84.444 17.9725Z" fill="#E3E3E3"/>
<path d="M36.1206 39.8212C32.5643 45.2482 27.4043 49.9704 23.7086 55.1859C19.8036 60.6833 16.3868 67.7313 8.57702 66.7446C-1.88257 65.4055 2.71965 57.9346 3.62615 50.9571C4.60238 43.9796 1.88289 38.3411 1.4645 31.6455C0.488274 17.1971 13.0398 3.38302 28.0319 6.9775C37.8639 9.30335 41.5596 20.2982 40.165 29.7426" stroke="#647393" stroke-width="4" stroke-miterlimit="10" stroke-linecap="round" stroke-linejoin="round"/>
<path d="M64.222 33.9715C61.5025 36.0154 58.2949 37.2136 54.5294 37.0726C49.0207 36.9316 45.1158 33.6191 45.3947 27.8397C45.5342 25.4434 47.2077 22.9061 46.859 20.4393C46.5801 18.1839 44.9763 17.0563 44.1395 15.0828C39.0492 2.32591 59.55 2.25543 66.8717 1.83255C71.2647 1.55063 80.6086 0.211512 83.6071 4.65176C85.9779 8.17576 83.2584 13.0389 80.9573 15.8581C79.0048 18.2544 84.7925 11.2064 80.9573 15.8581C79.0048 18.2544 75.867 18.9592 73.7053 21.1441C71.8923 23.0471 70.9858 25.9367 69.5912 28.1216" stroke="#647393" stroke-width="4" stroke-miterlimit="10" stroke-linecap="round" stroke-linejoin="round"/>
</g>
<defs>
<clipPath id="clip0_725_4336">
<rect width="88" height="69" fill="white"/>
</clipPath>
</defs>
</svg>
