<svg width="37" height="56" viewBox="0 0 37 56" fill="none" xmlns="http://www.w3.org/2000/svg">
<path d="M21.0021 31.6399C12.3379 40.338 13.4079 49.0515 17.3422 55.6143C8.30339 51.7602 -0.0416479 36.4792 11.5209 22.6042C23.8542 10.2708 21.5417 4.875 21.5417 0.25C25.3959 7.1875 31.4176 21.1858 21.0021 31.6399Z" fill="#3F3F3F"/>
<path d="M19.223 55.75C17.3792 51.7525 15.4552 42.0832 21.0422 36.4792C31.1062 26.1038 29.4905 17.0126 29.267 16.4637L29.25 16.4375C29.2547 16.4375 29.2608 16.4468 29.267 16.4637C29.6817 17.1174 37.575 29.9225 31.7645 44.1875C35.1176 42.2512 36.5437 39.6073 36.9584 38.7917C35.2224 52.8579 26.3486 55.1735 19.223 55.75ZM16.1459 14.8959C11.5209 17.7217 1.06527 24.9167 0.448603 34.1667C-0.168064 43.4167 5.0736 47.2709 8.15694 50.3542C6.61527 48.0417 3.53194 42.3375 3.53194 34.9375C3.53194 27.5375 12.0342 18.2367 16.1459 14.8959Z" fill="#3F3F3F"/>
</svg>
