<svg width="563" height="159" viewBox="0 0 563 159" fill="none" xmlns="http://www.w3.org/2000/svg">
<path d="M430.645 153.549C404.103 148.262 376.523 130.812 361.179 104.966C360.854 104.442 360.552 103.883 360.249 103.325C372.41 105.128 384.722 105.422 396.612 102.517C422.372 96.271 448.383 68.9478 445.275 36.8893C444.027 24.0287 437.731 11.8459 427.431 5.38317C413.026 -3.63512 395.747 0.501943 382.619 9.11813C358.132 25.2159 341.347 57.1277 351.41 89.9489C352.393 93.1647 353.586 96.2876 354.963 99.3215C349.538 98.312 344.106 97.0504 338.771 95.6803C321.543 91.2354 304.508 85.9724 287.171 82.144C252.758 74.5456 217.893 70.3013 183.022 69.1903C148.014 68.0987 113.053 70.1327 78.4884 75.1803C60.5755 77.7927 42.7443 81.1847 25.113 85.4029C16.9487 87.3729 8.59559 89.591 0.890364 93.2369L1.34388 96.4638C3.54164 95.3955 5.81164 94.4437 8.12651 93.6121C17.2633 90.2081 26.8155 88.1695 36.3043 86.0765C45.4684 84.0609 54.6631 82.2624 63.8884 80.6811C100.954 74.3328 138.581 71.3861 176.28 72.1313C213.477 72.8837 250.732 77.2351 287.456 85.363C305.75 89.4367 323.717 95.1698 341.899 99.6388C346.761 100.822 351.665 101.905 356.62 102.759C368.545 125.953 391.073 142.657 412.755 151.349C444.51 164.099 479.053 158.896 509.154 145.553C525.074 138.506 540.283 129.186 554.045 117.918C556.899 115.555 559.69 113.138 562.408 110.604L561.898 106.974C551.451 116.764 540.035 125.234 527.958 132.374C498.634 149.658 464.43 160.255 430.645 153.549ZM351.648 62.0081C353.803 45.1254 362.365 30.4746 373.786 19.8519C386.125 8.404 403.047 -0.460681 419.638 5.02293C431.775 9.04422 440.118 20.8761 442.195 34.6644C447.238 68.1595 418.236 95.6815 391.615 100.372C380.648 102.293 369.498 101.709 358.428 99.9104C352.685 88.2826 349.996 75.1181 351.648 62.0081Z" fill="#2156DF"/>
</svg>
