<svg width="29" height="50" viewBox="0 0 29 50" fill="none" xmlns="http://www.w3.org/2000/svg">
<path d="M15.8981 24.52C16.4999 24.5196 17.101 24.4836 17.6982 24.412C19.8959 24.2073 21.9927 23.3925 23.7522 22.0599C27.3524 19.1737 27.9521 14.3381 27.9521 13.7919C28.0429 13.4341 27.9776 13.0549 27.7721 12.7481C27.5147 12.4832 27.1573 12.3392 26.7882 12.3522C24.8262 12.1362 20.7162 12.4062 17.7882 14.752C16.8009 15.5827 15.9718 16.5846 15.3402 17.7101V13.1021H15.8382C16.4396 13.1016 17.0407 13.0656 17.6383 12.9941C19.8549 12.8053 21.9738 11.9963 23.7521 10.66C27.3523 7.77376 27.952 2.93819 27.952 2.39197C28.0428 2.03414 27.9775 1.65453 27.772 1.34775C27.5146 1.08282 27.1572 0.939266 26.7881 0.951823C24.8261 0.735866 20.7161 1.00581 17.7881 3.35161V3.35203C16.2977 4.65488 15.148 6.30306 14.4403 8.15213C13.7321 6.30306 12.5828 4.65488 11.0921 3.35203C8.19416 1.00613 4.09006 0.736242 2.09206 0.952242V0.951823C1.72292 0.939267 1.3655 1.08283 1.1081 1.34775C0.903017 1.65453 0.837318 2.03413 0.928132 2.39197C0.982123 2.93816 1.58815 7.79176 5.12803 10.66C6.92974 12.0135 9.07978 12.825 11.326 13C11.9237 13.0715 12.5247 13.1075 13.1261 13.108H13.6242V17.716C12.9926 16.591 12.1631 15.589 11.1762 14.7578C8.27828 12.412 4.17417 12.1421 2.17617 12.3581C1.80704 12.3451 1.44962 12.4891 1.19222 12.754C0.986718 13.0608 0.921435 13.4404 1.01225 13.7982C1.06624 14.3444 1.67227 19.198 5.21214 22.0662C6.9905 23.4026 9.10946 24.2115 11.3259 24.3999C11.9236 24.4715 12.5246 24.5074 13.126 24.5079H13.6241V29.1159C12.9925 27.9909 12.163 26.9889 11.1761 26.1582C8.27819 23.8123 4.17408 23.5424 2.17608 23.7584V23.758C1.8015 23.7094 1.42859 23.8584 1.19087 24.1522C0.953568 24.446 0.885757 24.842 1.01215 25.1981C1.06614 25.7443 1.67217 30.5979 5.21205 33.4661C6.9904 34.8025 9.10937 35.6115 11.3258 35.8002C11.9235 35.8718 12.5245 35.9078 13.1259 35.9082H13.624V48.2082C13.624 48.705 14.027 49.108 14.5238 49.108C15.021 49.108 15.4241 48.705 15.4241 48.2082V35.9018H15.9221C16.5235 35.901 17.1246 35.865 17.7218 35.7934C19.9094 35.5896 21.997 34.7814 23.7519 33.4597C27.3521 30.5735 27.9518 25.7379 27.9518 25.1917C28.0782 24.8356 28.0104 24.4396 27.7731 24.1458C27.5353 23.852 27.1624 23.7026 26.7879 23.7516C24.8259 23.5415 20.7159 23.8056 17.7879 26.1514V26.1518C16.8006 26.9825 15.9715 27.9844 15.3399 29.1094V24.5014C15.5617 24.5136 15.7299 24.5194 15.8977 24.5194L15.8981 24.52ZM18.9822 16.1202C21.382 14.1941 24.6583 14.002 26.1281 14.0682C25.882 15.5201 25.0002 18.7063 22.6179 20.6261C20.2361 22.5463 16.9418 22.738 15.472 22.6781C15.7001 21.256 16.6003 18.076 18.9822 16.1499V16.1202ZM6.38218 20.6261C3.9824 18.7059 3.11808 15.5201 2.87197 14.0682C4.34187 14.0021 7.63608 14.1942 10.0179 16.1202C12.4001 18.0463 13.3004 21.256 13.5285 22.7082C12.0524 22.768 8.7644 22.6002 6.38218 20.6562V20.6261ZM6.38218 32.0261C3.9824 30.1059 3.11808 26.9201 2.87197 25.4682C4.34187 25.4021 7.63608 25.5942 10.0179 27.5202C12.4001 29.4463 13.3004 32.6564 13.5285 34.1082C12.0524 34.1743 8.7644 34.0002 6.38218 32.0562V32.0261ZM18.9822 27.5202C21.382 25.5941 24.6583 25.402 26.1281 25.4682C25.882 26.9201 25.0002 30.1063 22.6179 32.0261C20.2361 33.9463 16.9418 34.1443 15.472 34.0781C15.7001 32.6563 16.6003 29.4764 18.9822 27.5503V27.5202ZM18.9822 4.7202C21.382 2.79409 24.6583 2.60198 26.1281 2.6682C25.882 4.12009 25.0002 7.3063 22.6179 9.22609C20.2361 11.1463 16.9418 11.338 15.472 11.2781C15.7001 9.85631 16.6003 6.67641 18.9822 4.75031V4.7202ZM6.38218 9.22609C3.9824 7.30588 3.11808 4.12009 2.87197 2.6682C4.34187 2.60207 7.63608 2.79418 10.0179 4.7202C12.4001 6.64631 13.3004 9.85641 13.5285 11.3082C12.0524 11.3685 8.7644 11.2002 6.38218 9.2562V9.22609Z" fill="#36395A"/>
</svg>
