<svg width="54" height="53" viewBox="0 0 54 53" fill="none" xmlns="http://www.w3.org/2000/svg">
<path d="M27.0001 0C12.433 0 0.600098 11.8329 0.600098 26.4C0.600098 40.9671 12.433 52.8 27.0001 52.8C41.5672 52.8 53.4001 40.9671 53.4001 26.4C53.4001 11.8329 41.5672 0 27.0001 0ZM27.0001 2.19987C40.3783 2.19987 51.2004 13.022 51.2004 26.4002C51.2004 39.7784 40.3783 50.6005 27.0001 50.6005C13.6219 50.6005 2.79978 39.7784 2.79978 26.4002C2.79978 13.022 13.6219 2.19987 27.0001 2.19987V2.19987Z" fill="#36395A"/>
<path fill-rule="evenodd" clip-rule="evenodd" d="M20.432 12.1034C19.9853 12.0913 19.5754 12.3506 19.3949 12.7601C19.2148 13.1693 19.3006 13.647 19.6115 13.9681C19.6115 13.9681 20.3856 14.7894 21.2829 15.8671C22.18 16.9448 23.1973 18.3137 23.5948 19.1542C24.4371 20.936 24.8886 22.9683 25.2233 25.0666L27.1245 23.1654C26.792 21.4819 26.336 19.8032 25.5843 18.2132C24.992 16.9606 23.9184 15.5943 22.9737 14.4598C22.0293 13.3255 21.2099 12.4574 21.2099 12.4574V12.4577C21.0092 12.2397 20.7285 12.1119 20.432 12.1034L20.432 12.1034ZM27.898 28.6166L25.8141 30.7005C25.9525 34.2459 25.8505 38.4563 25.8505 38.4563V38.4567C25.8424 38.7484 25.9507 39.0312 26.1514 39.2434C26.3518 39.4555 26.6284 39.5793 26.9204 39.587C27.2121 39.5951 27.495 39.4868 27.7071 39.2861C27.9189 39.0854 28.0427 38.8088 28.0504 38.5171C28.0504 38.5171 28.225 32.6341 27.8979 28.6171L27.898 28.6166Z" fill="#36395A"/>
<path fill-rule="evenodd" clip-rule="evenodd" d="M15.0935 6.6001C14.5388 6.60746 14.0766 7.02659 14.0147 7.57756C14.0147 7.57756 13.8973 8.61065 13.8387 9.89123C13.7801 11.1718 13.7514 12.6697 14.0365 13.8767C14.3893 15.3709 14.9053 17.1973 16.3803 18.4204C18.4266 20.1179 21.4843 21.5529 24.3467 20.5905C26.4649 19.8782 27.7797 17.7911 28.0507 15.7436C28.3457 13.5143 27.2961 11.2857 25.726 9.85041C24.1052 8.36833 21.5432 7.70135 19.3194 7.23587C17.0956 6.77033 15.2029 6.60423 15.2029 6.60423V6.6046C15.1664 6.60275 15.13 6.60275 15.0935 6.6046L15.0935 6.6001ZM16.114 8.96573C16.7534 9.03718 17.384 9.07769 18.8704 9.38891C20.9513 9.82461 23.3261 10.6378 24.2414 11.475C25.2881 12.4318 26.0398 14.1717 25.87 15.456C25.709 16.6714 24.6487 18.1696 23.6465 18.5066C21.9656 19.072 19.4283 18.0904 17.7857 16.7277C16.9946 16.0718 16.5022 14.7419 16.1788 13.3717C16.0101 12.6569 15.9821 11.1933 16.037 9.99215C16.0631 9.42349 16.0812 9.35093 16.1143 8.96528L16.114 8.96573Z" fill="#36395A"/>
<path fill-rule="evenodd" clip-rule="evenodd" d="M35.9807 14.3096C34.527 14.3493 33.0663 14.7943 31.8663 15.6395C30.6273 16.5123 29.2002 17.895 29.2002 19.8373C29.2002 20.2189 29.2624 20.5817 29.3571 20.933L35.9807 14.3096ZM40.6279 15.8867L39.025 17.4895C39.067 17.5139 39.1131 17.5323 39.154 17.5566C39.5285 17.7768 39.5587 17.814 39.818 17.9864C39.5882 18.4037 39.477 18.6545 38.9801 19.3959C38.1853 20.5825 37.0521 21.844 36.4234 22.146C35.7505 22.469 34.8526 22.564 34.0581 22.4576L32.277 24.2387C33.9056 24.9845 35.8233 24.8752 37.3773 24.1286C38.8648 23.4141 39.9322 21.9276 40.8084 20.6201C41.6846 19.3123 42.2801 18.1389 42.2801 18.1389V18.1382C42.5254 17.6568 42.3851 17.069 41.949 16.7504C41.949 16.7504 41.3678 16.3445 40.6275 15.8867L40.6279 15.8867Z" fill="#36395A"/>
<path d="M22.5999 26.4009V27.69L23.889 26.4009H22.5999ZM30.113 26.4009L29.2 27.3139V41.9923C29.2 42.6873 28.8118 43.3432 28.1234 43.7174C27.4354 44.0913 26.564 44.0913 25.876 43.7174C25.188 43.3432 24.7999 42.6869 24.7995 41.9923V31.7142L22.5996 33.9141V41.9921C22.5996 43.518 23.4695 44.9124 24.8231 45.6486C26.1769 46.3848 27.8195 46.3848 29.1735 45.6486H29.1757C30.5292 44.912 31.3991 43.5176 31.3991 41.9921V26.401H30.1123L30.113 26.4009Z" fill="#36395A"/>
<path fill-rule="evenodd" clip-rule="evenodd" d="M22.0687 25.3863C21.7744 25.3823 21.4905 25.4965 21.2809 25.7031C21.0714 25.9097 20.9531 26.1918 20.9531 26.4865C20.9531 26.7811 21.0714 27.0632 21.2809 27.2699C21.4905 27.4765 21.7744 27.5906 22.0687 27.5866H22.7026L24.9025 25.3867H22.0687L22.0687 25.3863ZM31.1264 25.3863L28.9265 27.5862H32.2029V27.5866C32.4976 27.5906 32.7812 27.4765 32.9911 27.2698C33.2007 27.0632 33.3189 26.7811 33.3189 26.4865C33.3189 26.1918 33.2007 25.9097 32.9911 25.7031C32.7812 25.4965 32.4976 25.3823 32.2029 25.3863L31.1264 25.3863Z" fill="#36395A"/>
<path fill-rule="evenodd" clip-rule="evenodd" d="M23.7003 33.0011V34.6511C23.7003 34.8437 23.6616 35.0249 23.6016 35.1969V35.1966C23.6343 35.198 23.6675 35.198 23.7003 35.1966H30.0273C30.322 35.201 30.6056 35.0868 30.8155 34.8802C31.0251 34.6732 31.1429 34.3911 31.1429 34.0968C31.1429 33.8022 31.0251 33.52 30.8155 33.3134C30.6056 33.1064 30.322 32.9926 30.0273 32.9967H23.7003V33.0011Z" fill="#36395A"/>
<path fill-rule="evenodd" clip-rule="evenodd" d="M44.5788 7.69136C44.2933 7.69946 44.0222 7.81806 43.8226 8.02246L8.62294 43.2221C8.4097 43.4269 8.28815 43.709 8.28521 44.0044C8.28226 44.2998 8.39828 44.5841 8.60748 44.793C8.8163 45.0022 9.10064 45.1182 9.39602 45.1152C9.6914 45.1123 9.97352 44.9907 10.1783 44.7779L45.378 9.57818V9.57781C45.7017 9.26144 45.7986 8.77896 45.6222 8.362C45.4454 7.94508 45.0314 7.67916 44.5788 7.69132L44.5788 7.69136Z" fill="#36395A"/>
</svg>
