<svg width="45" height="54" viewBox="0 0 45 54" fill="none" xmlns="http://www.w3.org/2000/svg">
<path d="M43.9298 9.91164C44.4002 9.44457 44.4031 8.68411 43.9356 8.21365C43.4686 7.74322 42.7085 7.74029 42.2376 8.20779L20.9376 29.3342V14.046C20.9376 13.3831 20.4003 12.8457 19.7373 12.8457C19.0748 12.8457 18.5374 13.3831 18.5374 14.046V28.9024L12.3633 22.8003C12.1415 22.558 11.8301 22.4174 11.5016 22.4111C11.1734 22.4048 10.8566 22.5333 10.6256 22.7668C10.3946 23.0004 10.2694 23.3184 10.2795 23.6466C10.2891 23.9751 10.4331 24.2848 10.6775 24.5041L18.5374 32.3042V42.972C17.8669 42.9302 17.1994 42.846 16.5394 42.7201C12.1189 41.868 8.22658 39.2731 5.73937 35.5202C4.53615 33.7163 3.70408 31.6911 3.29136 29.5621C2.87577 27.4706 2.87577 25.3178 3.29136 23.2264C3.70404 21.0974 4.53604 19.0721 5.73937 17.2683C6.36967 16.3371 7.09376 15.4724 7.89937 14.6885L19.7376 2.94029L29.9978 13.1402C30.4783 13.6073 31.2467 13.5968 31.7138 13.1159C32.1809 12.6354 32.1704 11.8675 31.6899 11.3999L20.5835 0.402766C20.1152 -0.0626408 19.3593 -0.0626408 18.8914 0.402766L6.2014 13.0028V13.0023C5.28399 13.9164 4.46162 14.9217 3.74762 16.0023C2.04426 18.5709 0.993293 21.5164 0.686971 24.5834C0.38065 27.6504 0.828015 30.7458 1.9894 33.6006C2.96792 35.9522 4.4043 38.0859 6.2149 39.8776C8.02583 41.6689 10.1754 43.0818 12.5376 44.0344C13.6839 44.4936 14.8713 44.843 16.0838 45.0783C16.8949 45.2285 17.7144 45.3306 18.5376 45.3846V52.7105C18.5376 53.373 19.075 53.9104 19.7375 53.9104C20.4005 53.9104 20.9378 53.373 20.9378 52.7105V45.3846C21.7611 45.3306 22.5801 45.2285 23.3916 45.0783C24.6062 44.8439 25.7953 44.4944 26.9436 44.0344C29.8913 42.8609 32.4975 40.9658 34.5227 38.5232C36.5483 36.0807 37.9278 33.1686 38.5355 30.0543C39.0076 27.6575 39.0076 25.1914 38.5355 22.7941C38.4886 22.4689 38.3099 22.1772 38.0417 21.9868C37.7738 21.7968 37.439 21.7252 37.1167 21.7884C36.794 21.8516 36.5115 22.0445 36.3353 22.322C36.1587 22.5995 36.1039 22.9373 36.1834 23.2562C36.5915 25.3488 36.5915 27.5 36.1834 29.5923C35.9775 30.6457 35.6699 31.6761 35.2656 32.6705C34.4197 34.7284 33.1688 36.595 31.5876 38.1603C29.2229 40.5062 26.2128 42.0936 22.9417 42.7202C22.2796 42.8462 21.6103 42.9303 20.9378 42.9721V32.7124L43.9298 9.91164Z" fill="#36395A"/>
</svg>
