<svg width="66" height="46" viewBox="0 0 66 46" fill="none" xmlns="http://www.w3.org/2000/svg">
<path d="M62.25 7.2375C61.2626 6.79289 60.1662 6.64828 59.0973 6.82162C58.0283 6.99497 57.0338 7.47863 56.2375 8.2125L49.25 14.7125V10C49.25 7.41414 48.2228 4.93419 46.3943 3.10571C44.5658 1.27723 42.0859 0.25 39.5 0.25H10.25C7.66414 0.25 5.18419 1.27723 3.35571 3.10571C1.52723 4.93419 0.5 7.41414 0.5 10V36C0.5 38.5859 1.52723 41.0658 3.35571 42.8943C5.18419 44.7228 7.66414 45.75 10.25 45.75H39.5C42.0859 45.75 44.5658 44.7228 46.3943 42.8943C48.2228 41.0658 49.25 38.5859 49.25 36V31.2875L56.27 37.7875C57.3035 38.723 58.646 39.2438 60.04 39.25C60.8136 39.2482 61.578 39.082 62.2825 38.7625C63.2411 38.3747 64.0623 37.71 64.6412 36.8532C65.2201 35.9964 65.5304 34.9865 65.5325 33.9525V12.0475C65.5278 11.0097 65.2127 9.99711 64.6277 9.13992C64.0427 8.28272 63.2146 7.62017 62.25 7.2375Z" fill="#3F3F3F"/>
</svg>
