<svg width="51" height="55" viewBox="0 0 51 55" fill="none" xmlns="http://www.w3.org/2000/svg">
<path d="M32.3863 33.2068L50.877 0.8125H38.4863L19.948 33.1949C19.9248 33.2236 19.9122 33.2593 19.9122 33.2962C19.9122 33.3331 19.9248 33.3688 19.948 33.3975L31.7311 54.1041C31.7787 54.1875 31.8264 54.1875 31.9217 54.1875H44.2051L32.3744 33.3736C32.3647 33.3465 32.3608 33.3177 32.3628 33.289C32.3649 33.2603 32.3729 33.2323 32.3863 33.2068ZM21.4373 22.7582L14.4199 10.4629C14.3966 10.4216 14.3614 10.3881 14.319 10.3669C14.2765 10.3457 14.2287 10.3376 14.1816 10.3438H2.74414L9.76152 22.782C9.77708 22.8113 9.78132 22.8452 9.77344 22.8773L0.123047 38.9375H11.6559C11.6949 38.9425 11.7346 38.9347 11.7689 38.9154C11.8032 38.8961 11.8304 38.8662 11.8465 38.8303L21.4373 22.9012C21.4492 22.8543 21.4492 22.8051 21.4373 22.7582Z" fill="#3F3F3F"/>
</svg>
